G75*
%MOIN*%
%OFA0B0*%
%FSLAX25Y25*%
%IPPOS*%
%LPD*%
%AMOC8*
5,1,8,0,0,1.08239X$1,22.5*
%
%ADD10R,0.04921X0.00984*%
%ADD11R,0.08071X0.06496*%
%ADD12R,0.05800X0.01400*%
D10*
X0380012Y0080256D03*
X0380012Y0082224D03*
X0380012Y0084193D03*
X0380012Y0086161D03*
X0380012Y0088130D03*
X0380012Y0090098D03*
X0380012Y0092067D03*
X0380012Y0094035D03*
X0380012Y0096004D03*
X0380012Y0097972D03*
X0380012Y0099941D03*
X0380012Y0101909D03*
X0380012Y0103878D03*
X0380012Y0105846D03*
X0380012Y0107815D03*
X0380012Y0109783D03*
X0380012Y0111752D03*
X0380012Y0113720D03*
X0380012Y0115689D03*
X0380012Y0117657D03*
X0380012Y0119626D03*
X0380012Y0121594D03*
X0380012Y0123563D03*
X0380012Y0125531D03*
X0380012Y0127500D03*
X0380012Y0129469D03*
X0380012Y0131437D03*
X0380012Y0133406D03*
X0380012Y0135374D03*
X0380012Y0137343D03*
X0380012Y0139311D03*
X0380012Y0141280D03*
D11*
X0392807Y0147382D03*
X0392807Y0074154D03*
D12*
X0339140Y0080215D03*
X0339140Y0082715D03*
X0339140Y0085315D03*
X0339140Y0087815D03*
X0339140Y0090415D03*
X0339140Y0093015D03*
X0339140Y0095515D03*
X0339140Y0098115D03*
X0339140Y0100615D03*
X0339140Y0103215D03*
X0339140Y0105815D03*
X0339140Y0108315D03*
X0339140Y0110915D03*
X0339140Y0113415D03*
X0361340Y0113415D03*
X0361340Y0110915D03*
X0361340Y0108315D03*
X0361340Y0105815D03*
X0361340Y0103215D03*
X0361340Y0100615D03*
X0361340Y0098115D03*
X0361340Y0095515D03*
X0361340Y0093015D03*
X0361340Y0090415D03*
X0361340Y0087815D03*
X0361340Y0085315D03*
X0361340Y0082715D03*
X0361340Y0080215D03*
M02*
