G75*
%MOIN*%
%OFA0B0*%
%FSLAX25Y25*%
%IPPOS*%
%LPD*%
%AMOC8*
5,1,8,0,0,1.08239X$1,22.5*
%
%ADD10C,0.01000*%
%ADD11C,0.06400*%
%ADD12OC8,0.06400*%
%ADD13R,0.05118X0.01181*%
%ADD14R,0.08661X0.07087*%
%ADD15R,0.05800X0.01400*%
%ADD16C,0.08000*%
%ADD17C,0.03200*%
D10*
X0001500Y0001500D02*
X0001500Y0210161D01*
X0405201Y0210161D01*
X0405201Y0001500D01*
X0001500Y0001500D01*
X0003500Y0003500D02*
X0003500Y0208161D01*
X0013293Y0208161D01*
X0013255Y0208146D01*
X0012046Y0206936D01*
X0011391Y0205356D01*
X0011391Y0197245D01*
X0012046Y0195665D01*
X0013255Y0194455D01*
X0014836Y0193800D01*
X0016547Y0193800D01*
X0018127Y0194455D01*
X0019337Y0195665D01*
X0019991Y0197245D01*
X0019991Y0205356D01*
X0019337Y0206936D01*
X0018127Y0208146D01*
X0018089Y0208161D01*
X0023293Y0208161D01*
X0023255Y0208146D01*
X0022046Y0206936D01*
X0021391Y0205356D01*
X0021391Y0197245D01*
X0022046Y0195665D01*
X0023255Y0194455D01*
X0024836Y0193800D01*
X0026547Y0193800D01*
X0028127Y0194455D01*
X0029337Y0195665D01*
X0029991Y0197245D01*
X0029991Y0205356D01*
X0029337Y0206936D01*
X0028127Y0208146D01*
X0028089Y0208161D01*
X0033293Y0208161D01*
X0033255Y0208146D01*
X0032046Y0206936D01*
X0031391Y0205356D01*
X0031391Y0197245D01*
X0032046Y0195665D01*
X0033255Y0194455D01*
X0034836Y0193800D01*
X0036547Y0193800D01*
X0038127Y0194455D01*
X0039337Y0195665D01*
X0039991Y0197245D01*
X0039991Y0205356D01*
X0039337Y0206936D01*
X0038127Y0208146D01*
X0038089Y0208161D01*
X0043293Y0208161D01*
X0043255Y0208146D01*
X0042046Y0206936D01*
X0041391Y0205356D01*
X0041391Y0197245D01*
X0042046Y0195665D01*
X0043255Y0194455D01*
X0044836Y0193800D01*
X0046547Y0193800D01*
X0048127Y0194455D01*
X0049337Y0195665D01*
X0049991Y0197245D01*
X0049991Y0205356D01*
X0049337Y0206936D01*
X0048127Y0208146D01*
X0048089Y0208161D01*
X0053293Y0208161D01*
X0053255Y0208146D01*
X0052046Y0206936D01*
X0051391Y0205356D01*
X0051391Y0197245D01*
X0052046Y0195665D01*
X0053255Y0194455D01*
X0054836Y0193800D01*
X0056547Y0193800D01*
X0058127Y0194455D01*
X0059337Y0195665D01*
X0059991Y0197245D01*
X0059991Y0205356D01*
X0059337Y0206936D01*
X0058127Y0208146D01*
X0058089Y0208161D01*
X0063293Y0208161D01*
X0063255Y0208146D01*
X0062046Y0206936D01*
X0061391Y0205356D01*
X0061391Y0197245D01*
X0062046Y0195665D01*
X0063255Y0194455D01*
X0064836Y0193800D01*
X0066547Y0193800D01*
X0068127Y0194455D01*
X0069337Y0195665D01*
X0069991Y0197245D01*
X0069991Y0205356D01*
X0069337Y0206936D01*
X0068127Y0208146D01*
X0068089Y0208161D01*
X0073293Y0208161D01*
X0073255Y0208146D01*
X0072046Y0206936D01*
X0071391Y0205356D01*
X0071391Y0197245D01*
X0072046Y0195665D01*
X0073255Y0194455D01*
X0074836Y0193800D01*
X0076547Y0193800D01*
X0078127Y0194455D01*
X0079337Y0195665D01*
X0079991Y0197245D01*
X0079991Y0205356D01*
X0079337Y0206936D01*
X0078127Y0208146D01*
X0078089Y0208161D01*
X0083293Y0208161D01*
X0083255Y0208146D01*
X0082046Y0206936D01*
X0081391Y0205356D01*
X0081391Y0197245D01*
X0082046Y0195665D01*
X0083255Y0194455D01*
X0084836Y0193800D01*
X0086547Y0193800D01*
X0088127Y0194455D01*
X0089337Y0195665D01*
X0089991Y0197245D01*
X0089991Y0205356D01*
X0089337Y0206936D01*
X0088127Y0208146D01*
X0088089Y0208161D01*
X0093293Y0208161D01*
X0093255Y0208146D01*
X0092046Y0206936D01*
X0091391Y0205356D01*
X0091391Y0197245D01*
X0092046Y0195665D01*
X0093255Y0194455D01*
X0094836Y0193800D01*
X0096547Y0193800D01*
X0098127Y0194455D01*
X0099337Y0195665D01*
X0099991Y0197245D01*
X0099991Y0205356D01*
X0099337Y0206936D01*
X0098127Y0208146D01*
X0098089Y0208161D01*
X0103293Y0208161D01*
X0103255Y0208146D01*
X0102046Y0206936D01*
X0101391Y0205356D01*
X0101391Y0197245D01*
X0102046Y0195665D01*
X0103255Y0194455D01*
X0104836Y0193800D01*
X0106547Y0193800D01*
X0108127Y0194455D01*
X0109337Y0195665D01*
X0109991Y0197245D01*
X0109991Y0205356D01*
X0109337Y0206936D01*
X0108127Y0208146D01*
X0108089Y0208161D01*
X0117928Y0208161D01*
X0117370Y0207603D01*
X0116715Y0206022D01*
X0116715Y0197912D01*
X0117370Y0196331D01*
X0118579Y0195122D01*
X0120160Y0194467D01*
X0121870Y0194467D01*
X0123451Y0195122D01*
X0124660Y0196331D01*
X0125315Y0197912D01*
X0125315Y0206022D01*
X0124660Y0207603D01*
X0124102Y0208161D01*
X0127928Y0208161D01*
X0127370Y0207603D01*
X0126715Y0206022D01*
X0126715Y0197912D01*
X0127370Y0196331D01*
X0128579Y0195122D01*
X0130160Y0194467D01*
X0131870Y0194467D01*
X0133451Y0195122D01*
X0134660Y0196331D01*
X0135315Y0197912D01*
X0135315Y0206022D01*
X0134660Y0207603D01*
X0134102Y0208161D01*
X0137928Y0208161D01*
X0137370Y0207603D01*
X0136715Y0206022D01*
X0136715Y0197912D01*
X0137370Y0196331D01*
X0138579Y0195122D01*
X0140160Y0194467D01*
X0141870Y0194467D01*
X0143451Y0195122D01*
X0144660Y0196331D01*
X0145315Y0197912D01*
X0145315Y0206022D01*
X0144660Y0207603D01*
X0144102Y0208161D01*
X0147928Y0208161D01*
X0147370Y0207603D01*
X0146715Y0206022D01*
X0146715Y0197912D01*
X0147370Y0196331D01*
X0148579Y0195122D01*
X0150160Y0194467D01*
X0151870Y0194467D01*
X0153451Y0195122D01*
X0154660Y0196331D01*
X0155315Y0197912D01*
X0155315Y0206022D01*
X0154660Y0207603D01*
X0154102Y0208161D01*
X0157928Y0208161D01*
X0157370Y0207603D01*
X0156715Y0206022D01*
X0156715Y0197912D01*
X0157370Y0196331D01*
X0158579Y0195122D01*
X0160160Y0194467D01*
X0161870Y0194467D01*
X0163451Y0195122D01*
X0164660Y0196331D01*
X0165315Y0197912D01*
X0165315Y0206022D01*
X0164660Y0207603D01*
X0164102Y0208161D01*
X0167928Y0208161D01*
X0167370Y0207603D01*
X0166715Y0206022D01*
X0166715Y0197912D01*
X0167370Y0196331D01*
X0168579Y0195122D01*
X0170160Y0194467D01*
X0171870Y0194467D01*
X0173451Y0195122D01*
X0174660Y0196331D01*
X0175315Y0197912D01*
X0175315Y0206022D01*
X0174660Y0207603D01*
X0174102Y0208161D01*
X0177928Y0208161D01*
X0177370Y0207603D01*
X0176715Y0206022D01*
X0176715Y0197912D01*
X0177370Y0196331D01*
X0178579Y0195122D01*
X0180160Y0194467D01*
X0181870Y0194467D01*
X0183451Y0195122D01*
X0184660Y0196331D01*
X0185315Y0197912D01*
X0185315Y0206022D01*
X0184660Y0207603D01*
X0184102Y0208161D01*
X0187928Y0208161D01*
X0187370Y0207603D01*
X0186715Y0206022D01*
X0186715Y0197912D01*
X0187370Y0196331D01*
X0188579Y0195122D01*
X0190160Y0194467D01*
X0191870Y0194467D01*
X0193451Y0195122D01*
X0194660Y0196331D01*
X0195315Y0197912D01*
X0195315Y0206022D01*
X0194660Y0207603D01*
X0194102Y0208161D01*
X0208253Y0208161D01*
X0207361Y0207269D01*
X0206706Y0205689D01*
X0206706Y0197578D01*
X0207361Y0195998D01*
X0208570Y0194788D01*
X0210151Y0194134D01*
X0211861Y0194134D01*
X0213442Y0194788D01*
X0214651Y0195998D01*
X0215306Y0197578D01*
X0215306Y0205689D01*
X0214651Y0207269D01*
X0213759Y0208161D01*
X0218253Y0208161D01*
X0217361Y0207269D01*
X0216706Y0205689D01*
X0216706Y0197578D01*
X0217361Y0195998D01*
X0218570Y0194788D01*
X0220151Y0194134D01*
X0221861Y0194134D01*
X0223442Y0194788D01*
X0224651Y0195998D01*
X0225306Y0197578D01*
X0225306Y0205689D01*
X0224651Y0207269D01*
X0223759Y0208161D01*
X0228253Y0208161D01*
X0227361Y0207269D01*
X0226706Y0205689D01*
X0226706Y0197578D01*
X0227361Y0195998D01*
X0228570Y0194788D01*
X0230151Y0194134D01*
X0231861Y0194134D01*
X0233442Y0194788D01*
X0234651Y0195998D01*
X0235306Y0197578D01*
X0235306Y0205689D01*
X0234651Y0207269D01*
X0233759Y0208161D01*
X0238253Y0208161D01*
X0237361Y0207269D01*
X0236706Y0205689D01*
X0236706Y0197578D01*
X0237361Y0195998D01*
X0238570Y0194788D01*
X0240151Y0194134D01*
X0241861Y0194134D01*
X0243442Y0194788D01*
X0244651Y0195998D01*
X0245306Y0197578D01*
X0245306Y0205689D01*
X0244651Y0207269D01*
X0243759Y0208161D01*
X0248253Y0208161D01*
X0247361Y0207269D01*
X0246706Y0205689D01*
X0246706Y0197578D01*
X0247361Y0195998D01*
X0248570Y0194788D01*
X0250151Y0194134D01*
X0251861Y0194134D01*
X0253442Y0194788D01*
X0254651Y0195998D01*
X0255306Y0197578D01*
X0255306Y0205689D01*
X0254651Y0207269D01*
X0253759Y0208161D01*
X0258253Y0208161D01*
X0257361Y0207269D01*
X0256706Y0205689D01*
X0256706Y0197578D01*
X0257361Y0195998D01*
X0258570Y0194788D01*
X0260151Y0194134D01*
X0261861Y0194134D01*
X0263442Y0194788D01*
X0264651Y0195998D01*
X0265306Y0197578D01*
X0265306Y0205689D01*
X0264651Y0207269D01*
X0263759Y0208161D01*
X0268253Y0208161D01*
X0267361Y0207269D01*
X0266706Y0205689D01*
X0266706Y0197578D01*
X0267361Y0195998D01*
X0268570Y0194788D01*
X0270151Y0194134D01*
X0271861Y0194134D01*
X0273442Y0194788D01*
X0274651Y0195998D01*
X0275306Y0197578D01*
X0275306Y0205689D01*
X0274651Y0207269D01*
X0273759Y0208161D01*
X0278253Y0208161D01*
X0277361Y0207269D01*
X0276706Y0205689D01*
X0276706Y0197578D01*
X0277361Y0195998D01*
X0278570Y0194788D01*
X0280151Y0194134D01*
X0281861Y0194134D01*
X0283442Y0194788D01*
X0284651Y0195998D01*
X0285306Y0197578D01*
X0285306Y0205689D01*
X0284651Y0207269D01*
X0283759Y0208161D01*
X0403201Y0208161D01*
X0403201Y0003500D01*
X0211902Y0003500D01*
X0213449Y0004141D01*
X0214658Y0005350D01*
X0215313Y0006931D01*
X0215313Y0015041D01*
X0214658Y0016622D01*
X0213449Y0017831D01*
X0211868Y0018486D01*
X0210158Y0018486D01*
X0208577Y0017831D01*
X0207368Y0016622D01*
X0206713Y0015041D01*
X0206713Y0006931D01*
X0207368Y0005350D01*
X0208577Y0004141D01*
X0210124Y0003500D01*
X0201902Y0003500D01*
X0203449Y0004141D01*
X0204658Y0005350D01*
X0205313Y0006931D01*
X0205313Y0015041D01*
X0204658Y0016622D01*
X0203449Y0017831D01*
X0201868Y0018486D01*
X0200158Y0018486D01*
X0198577Y0017831D01*
X0197368Y0016622D01*
X0196713Y0015041D01*
X0196713Y0006931D01*
X0197368Y0005350D01*
X0198577Y0004141D01*
X0200124Y0003500D01*
X0191902Y0003500D01*
X0193449Y0004141D01*
X0194658Y0005350D01*
X0195313Y0006931D01*
X0195313Y0015041D01*
X0194658Y0016622D01*
X0193449Y0017831D01*
X0191868Y0018486D01*
X0190158Y0018486D01*
X0188577Y0017831D01*
X0187368Y0016622D01*
X0186713Y0015041D01*
X0186713Y0006931D01*
X0187368Y0005350D01*
X0188577Y0004141D01*
X0190124Y0003500D01*
X0181902Y0003500D01*
X0183449Y0004141D01*
X0184658Y0005350D01*
X0185313Y0006931D01*
X0185313Y0015041D01*
X0184658Y0016622D01*
X0183449Y0017831D01*
X0181868Y0018486D01*
X0180158Y0018486D01*
X0178577Y0017831D01*
X0177368Y0016622D01*
X0176713Y0015041D01*
X0176713Y0006931D01*
X0177368Y0005350D01*
X0178577Y0004141D01*
X0180124Y0003500D01*
X0171902Y0003500D01*
X0173449Y0004141D01*
X0174658Y0005350D01*
X0175313Y0006931D01*
X0175313Y0015041D01*
X0174658Y0016622D01*
X0173449Y0017831D01*
X0171868Y0018486D01*
X0170158Y0018486D01*
X0168577Y0017831D01*
X0167368Y0016622D01*
X0166713Y0015041D01*
X0166713Y0006931D01*
X0167368Y0005350D01*
X0168577Y0004141D01*
X0170124Y0003500D01*
X0161902Y0003500D01*
X0163449Y0004141D01*
X0164658Y0005350D01*
X0165313Y0006931D01*
X0165313Y0015041D01*
X0164658Y0016622D01*
X0163449Y0017831D01*
X0161868Y0018486D01*
X0160158Y0018486D01*
X0158577Y0017831D01*
X0157368Y0016622D01*
X0156713Y0015041D01*
X0156713Y0006931D01*
X0157368Y0005350D01*
X0158577Y0004141D01*
X0160124Y0003500D01*
X0151902Y0003500D01*
X0153449Y0004141D01*
X0154658Y0005350D01*
X0155313Y0006931D01*
X0155313Y0015041D01*
X0154658Y0016622D01*
X0153449Y0017831D01*
X0152613Y0018178D01*
X0152613Y0022350D01*
X0154163Y0023900D01*
X0167163Y0023900D01*
X0168100Y0024837D01*
X0298163Y0154900D01*
X0308580Y0154900D01*
X0306900Y0153220D01*
X0306900Y0149658D01*
X0309419Y0147139D01*
X0312982Y0147139D01*
X0315500Y0149658D01*
X0315500Y0153220D01*
X0313821Y0154900D01*
X0318580Y0154900D01*
X0316900Y0153220D01*
X0316900Y0149658D01*
X0319419Y0147139D01*
X0322982Y0147139D01*
X0325500Y0149658D01*
X0325500Y0153220D01*
X0323821Y0154900D01*
X0335977Y0154900D01*
X0336169Y0154438D01*
X0337603Y0153003D01*
X0339478Y0152227D01*
X0341507Y0152227D01*
X0342800Y0152763D01*
X0342800Y0151963D01*
X0343157Y0151100D01*
X0340718Y0151100D01*
X0340029Y0151789D01*
X0339037Y0152200D01*
X0337963Y0152200D01*
X0336971Y0151789D01*
X0336211Y0151029D01*
X0335800Y0150037D01*
X0335800Y0148963D01*
X0336157Y0148100D01*
X0331337Y0148100D01*
X0330400Y0147163D01*
X0325500Y0142263D01*
X0325500Y0143220D01*
X0322982Y0145739D01*
X0319419Y0145739D01*
X0316900Y0143220D01*
X0316900Y0139658D01*
X0319419Y0137139D01*
X0322982Y0137139D01*
X0324400Y0138557D01*
X0324400Y0134321D01*
X0322982Y0135739D01*
X0319419Y0135739D01*
X0316900Y0133220D01*
X0316900Y0129658D01*
X0319419Y0127139D01*
X0322982Y0127139D01*
X0324400Y0128557D01*
X0324400Y0124321D01*
X0322982Y0125739D01*
X0319419Y0125739D01*
X0316900Y0123220D01*
X0316900Y0119658D01*
X0319419Y0117139D01*
X0322982Y0117139D01*
X0324400Y0118557D01*
X0324400Y0114321D01*
X0322982Y0115739D01*
X0319419Y0115739D01*
X0316900Y0113220D01*
X0316900Y0109658D01*
X0319419Y0107139D01*
X0322982Y0107139D01*
X0324400Y0108557D01*
X0324400Y0104321D01*
X0322982Y0105739D01*
X0319419Y0105739D01*
X0316900Y0103220D01*
X0316900Y0099658D01*
X0319419Y0097139D01*
X0322982Y0097139D01*
X0324400Y0098557D01*
X0324400Y0097337D01*
X0325337Y0096400D01*
X0327837Y0093900D01*
X0335140Y0093900D01*
X0335140Y0091859D01*
X0335285Y0091715D01*
X0335140Y0091571D01*
X0335140Y0089259D01*
X0335285Y0089115D01*
X0335140Y0088971D01*
X0335140Y0086915D01*
X0332348Y0086915D01*
X0331163Y0088100D01*
X0323943Y0088100D01*
X0325500Y0089658D01*
X0325500Y0093220D01*
X0322982Y0095739D01*
X0319419Y0095739D01*
X0316900Y0093220D01*
X0316900Y0089658D01*
X0318458Y0088100D01*
X0313943Y0088100D01*
X0315500Y0089658D01*
X0315500Y0093220D01*
X0312982Y0095739D01*
X0309419Y0095739D01*
X0306900Y0093220D01*
X0306900Y0089658D01*
X0308458Y0088100D01*
X0298837Y0088100D01*
X0297937Y0087200D01*
X0296963Y0087200D01*
X0295971Y0086789D01*
X0295211Y0086029D01*
X0294800Y0085037D01*
X0294800Y0083963D01*
X0295211Y0082971D01*
X0295971Y0082211D01*
X0296963Y0081800D01*
X0298037Y0081800D01*
X0299029Y0082211D01*
X0299789Y0082971D01*
X0300200Y0083963D01*
X0300200Y0084900D01*
X0308580Y0084900D01*
X0306900Y0083220D01*
X0306900Y0079658D01*
X0309419Y0077139D01*
X0312982Y0077139D01*
X0315500Y0079658D01*
X0315500Y0083220D01*
X0313821Y0084900D01*
X0318580Y0084900D01*
X0316900Y0083220D01*
X0316900Y0079658D01*
X0319419Y0077139D01*
X0322982Y0077139D01*
X0324290Y0078447D01*
X0328837Y0073900D01*
X0335088Y0073900D01*
X0336025Y0074837D01*
X0339603Y0078415D01*
X0342496Y0078415D01*
X0343140Y0079059D01*
X0343140Y0081371D01*
X0343046Y0081465D01*
X0343140Y0081559D01*
X0343140Y0083871D01*
X0343111Y0083900D01*
X0348163Y0083900D01*
X0352163Y0087900D01*
X0353100Y0088837D01*
X0353100Y0108837D01*
X0353578Y0109315D01*
X0357340Y0109315D01*
X0357340Y0107159D01*
X0357435Y0107065D01*
X0357340Y0106971D01*
X0357340Y0104659D01*
X0357485Y0104515D01*
X0357340Y0104371D01*
X0357340Y0102059D01*
X0357485Y0101915D01*
X0357340Y0101771D01*
X0357340Y0099459D01*
X0357435Y0099365D01*
X0357340Y0099271D01*
X0357340Y0096959D01*
X0357485Y0096815D01*
X0357340Y0096671D01*
X0357340Y0094359D01*
X0357435Y0094265D01*
X0357340Y0094171D01*
X0357340Y0091859D01*
X0357485Y0091715D01*
X0357340Y0091571D01*
X0357340Y0089259D01*
X0357485Y0089115D01*
X0357340Y0088971D01*
X0357340Y0086659D01*
X0357435Y0086565D01*
X0357340Y0086471D01*
X0357340Y0084159D01*
X0357485Y0084015D01*
X0357340Y0083871D01*
X0357340Y0081559D01*
X0357435Y0081465D01*
X0357340Y0081371D01*
X0357340Y0079059D01*
X0357985Y0078415D01*
X0359740Y0078415D01*
X0359740Y0075003D01*
X0357837Y0073100D01*
X0325500Y0073100D01*
X0325500Y0073220D01*
X0322982Y0075739D01*
X0319419Y0075739D01*
X0316900Y0073220D01*
X0316900Y0069658D01*
X0319419Y0067139D01*
X0322982Y0067139D01*
X0325500Y0069658D01*
X0325500Y0069900D01*
X0327399Y0069900D01*
X0323110Y0065611D01*
X0322982Y0065739D01*
X0319419Y0065739D01*
X0316900Y0063220D01*
X0316900Y0059658D01*
X0319419Y0057139D01*
X0322982Y0057139D01*
X0325500Y0059658D01*
X0325500Y0063220D01*
X0325372Y0063348D01*
X0329924Y0067900D01*
X0360637Y0067900D01*
X0359837Y0067100D01*
X0334599Y0067100D01*
X0333661Y0066163D01*
X0323110Y0055611D01*
X0322982Y0055739D01*
X0319419Y0055739D01*
X0316900Y0053220D01*
X0316900Y0049658D01*
X0319419Y0047139D01*
X0322982Y0047139D01*
X0325500Y0049658D01*
X0325500Y0053220D01*
X0325372Y0053348D01*
X0335924Y0063900D01*
X0359637Y0063900D01*
X0358837Y0063100D01*
X0340599Y0063100D01*
X0339661Y0062163D01*
X0323110Y0045611D01*
X0322982Y0045739D01*
X0319419Y0045739D01*
X0316900Y0043220D01*
X0316900Y0039658D01*
X0319419Y0037139D01*
X0322982Y0037139D01*
X0325500Y0039658D01*
X0325500Y0043220D01*
X0325372Y0043348D01*
X0341924Y0059900D01*
X0360163Y0059900D01*
X0370663Y0070400D01*
X0371600Y0071337D01*
X0371600Y0079637D01*
X0371644Y0079593D01*
X0372581Y0078656D01*
X0376907Y0078656D01*
X0376997Y0078565D01*
X0383027Y0078565D01*
X0383671Y0079210D01*
X0383671Y0080900D01*
X0387163Y0080900D01*
X0388100Y0081837D01*
X0388100Y0141163D01*
X0387320Y0141942D01*
X0386383Y0142880D01*
X0383117Y0142880D01*
X0383027Y0142970D01*
X0380584Y0142970D01*
X0372092Y0151462D01*
X0372092Y0152469D01*
X0373381Y0153003D01*
X0374816Y0154438D01*
X0375592Y0156312D01*
X0375592Y0158341D01*
X0374816Y0160216D01*
X0373381Y0161650D01*
X0371507Y0162427D01*
X0369478Y0162427D01*
X0367603Y0161650D01*
X0366169Y0160216D01*
X0365392Y0158341D01*
X0365392Y0156312D01*
X0366169Y0154438D01*
X0367603Y0153003D01*
X0368892Y0152469D01*
X0368892Y0151371D01*
X0366163Y0154100D01*
X0347718Y0154100D01*
X0347029Y0154789D01*
X0346037Y0155200D01*
X0345131Y0155200D01*
X0345592Y0156312D01*
X0345592Y0158341D01*
X0344816Y0160216D01*
X0343381Y0161650D01*
X0342092Y0162184D01*
X0342092Y0169441D01*
X0343413Y0169987D01*
X0344847Y0171422D01*
X0345624Y0173297D01*
X0345624Y0175325D01*
X0344847Y0177200D01*
X0343413Y0178635D01*
X0341538Y0179411D01*
X0339509Y0179411D01*
X0337635Y0178635D01*
X0336200Y0177200D01*
X0335424Y0175325D01*
X0335424Y0173297D01*
X0336200Y0171422D01*
X0337635Y0169987D01*
X0338892Y0169467D01*
X0338892Y0162184D01*
X0337603Y0161650D01*
X0336169Y0160216D01*
X0335392Y0158341D01*
X0335392Y0158100D01*
X0323943Y0158100D01*
X0325500Y0159658D01*
X0325500Y0163220D01*
X0322982Y0165739D01*
X0319419Y0165739D01*
X0316900Y0163220D01*
X0316900Y0159658D01*
X0318458Y0158100D01*
X0313943Y0158100D01*
X0315500Y0159658D01*
X0315500Y0163220D01*
X0312982Y0165739D01*
X0309419Y0165739D01*
X0306900Y0163220D01*
X0306900Y0159658D01*
X0308458Y0158100D01*
X0296837Y0158100D01*
X0165837Y0027100D01*
X0152837Y0027100D01*
X0151900Y0026163D01*
X0151900Y0026163D01*
X0150350Y0024613D01*
X0149413Y0023676D01*
X0149413Y0018178D01*
X0148577Y0017831D01*
X0147368Y0016622D01*
X0146713Y0015041D01*
X0146713Y0006931D01*
X0147368Y0005350D01*
X0148577Y0004141D01*
X0150124Y0003500D01*
X0141902Y0003500D01*
X0143449Y0004141D01*
X0144658Y0005350D01*
X0145313Y0006931D01*
X0145313Y0015041D01*
X0145100Y0015556D01*
X0145100Y0023282D01*
X0145789Y0023971D01*
X0146200Y0024963D01*
X0146200Y0026037D01*
X0145789Y0027029D01*
X0145029Y0027789D01*
X0144037Y0028200D01*
X0142963Y0028200D01*
X0141971Y0027789D01*
X0141211Y0027029D01*
X0140800Y0026037D01*
X0140800Y0024963D01*
X0141211Y0023971D01*
X0141900Y0023282D01*
X0141900Y0018473D01*
X0141868Y0018486D01*
X0140158Y0018486D01*
X0138577Y0017831D01*
X0137368Y0016622D01*
X0136713Y0015041D01*
X0136713Y0006931D01*
X0137368Y0005350D01*
X0138577Y0004141D01*
X0140124Y0003500D01*
X0121578Y0003500D01*
X0123124Y0004141D01*
X0124334Y0005350D01*
X0124989Y0006931D01*
X0124989Y0015041D01*
X0124334Y0016622D01*
X0123124Y0017831D01*
X0121544Y0018486D01*
X0120451Y0018486D01*
X0132865Y0030900D01*
X0167163Y0030900D01*
X0215081Y0078818D01*
X0216029Y0079211D01*
X0216789Y0079971D01*
X0217200Y0080963D01*
X0217200Y0082037D01*
X0216789Y0083029D01*
X0216029Y0083789D01*
X0215037Y0084200D01*
X0213963Y0084200D01*
X0212971Y0083789D01*
X0212211Y0083029D01*
X0211800Y0082037D01*
X0211800Y0080963D01*
X0212064Y0080326D01*
X0165837Y0034100D01*
X0131540Y0034100D01*
X0130603Y0033163D01*
X0114198Y0016758D01*
X0113124Y0017831D01*
X0111544Y0018486D01*
X0109833Y0018486D01*
X0108253Y0017831D01*
X0107043Y0016622D01*
X0106389Y0015041D01*
X0106389Y0012586D01*
X0104989Y0012586D01*
X0104989Y0015041D01*
X0104334Y0016622D01*
X0103124Y0017831D01*
X0101544Y0018486D01*
X0099833Y0018486D01*
X0098253Y0017831D01*
X0097043Y0016622D01*
X0096389Y0015041D01*
X0096389Y0006931D01*
X0097043Y0005350D01*
X0098253Y0004141D01*
X0099800Y0003500D01*
X0091578Y0003500D01*
X0093124Y0004141D01*
X0094334Y0005350D01*
X0094989Y0006931D01*
X0094989Y0015041D01*
X0094334Y0016622D01*
X0093124Y0017831D01*
X0091544Y0018486D01*
X0090451Y0018486D01*
X0107865Y0035900D01*
X0161163Y0035900D01*
X0300163Y0174900D01*
X0301100Y0175837D01*
X0301100Y0194900D01*
X0308580Y0194900D01*
X0306900Y0193220D01*
X0306900Y0189658D01*
X0309419Y0187139D01*
X0312982Y0187139D01*
X0315500Y0189658D01*
X0315500Y0193220D01*
X0313821Y0194900D01*
X0318580Y0194900D01*
X0316900Y0193220D01*
X0316900Y0189658D01*
X0319419Y0187139D01*
X0322982Y0187139D01*
X0325500Y0189658D01*
X0325500Y0193220D01*
X0323821Y0194900D01*
X0339128Y0194900D01*
X0337650Y0194288D01*
X0336216Y0192853D01*
X0335439Y0190979D01*
X0335439Y0188950D01*
X0336216Y0187076D01*
X0337650Y0185641D01*
X0339525Y0184865D01*
X0341554Y0184865D01*
X0343428Y0185641D01*
X0344863Y0187076D01*
X0345397Y0188365D01*
X0346373Y0188365D01*
X0349900Y0184837D01*
X0349900Y0183837D01*
X0350800Y0182937D01*
X0350800Y0181963D01*
X0351211Y0180971D01*
X0351971Y0180211D01*
X0352963Y0179800D01*
X0354037Y0179800D01*
X0355029Y0180211D01*
X0355789Y0180971D01*
X0356200Y0181963D01*
X0356200Y0183037D01*
X0355789Y0184029D01*
X0355029Y0184789D01*
X0354037Y0185200D01*
X0353100Y0185200D01*
X0353100Y0186163D01*
X0352163Y0187100D01*
X0352163Y0187100D01*
X0348635Y0190627D01*
X0347698Y0191565D01*
X0345397Y0191565D01*
X0344863Y0192853D01*
X0343428Y0194288D01*
X0341951Y0194900D01*
X0354837Y0194900D01*
X0356800Y0192937D01*
X0356800Y0191963D01*
X0357211Y0190971D01*
X0357971Y0190211D01*
X0358963Y0189800D01*
X0359937Y0189800D01*
X0360435Y0189302D01*
X0361373Y0188365D01*
X0365682Y0188365D01*
X0366216Y0187076D01*
X0367650Y0185641D01*
X0368924Y0185114D01*
X0368924Y0179168D01*
X0367635Y0178635D01*
X0366200Y0177200D01*
X0365424Y0175325D01*
X0365424Y0173297D01*
X0366200Y0171422D01*
X0367635Y0169987D01*
X0369509Y0169211D01*
X0371538Y0169211D01*
X0373413Y0169987D01*
X0374847Y0171422D01*
X0375624Y0173297D01*
X0375624Y0175325D01*
X0374847Y0177200D01*
X0373413Y0178635D01*
X0372124Y0179168D01*
X0372124Y0185101D01*
X0373428Y0185641D01*
X0374863Y0187076D01*
X0375639Y0188950D01*
X0375639Y0190979D01*
X0374863Y0192853D01*
X0373428Y0194288D01*
X0371554Y0195065D01*
X0369525Y0195065D01*
X0367650Y0194288D01*
X0366216Y0192853D01*
X0365682Y0191565D01*
X0362698Y0191565D01*
X0362200Y0192063D01*
X0362200Y0193037D01*
X0361789Y0194029D01*
X0361029Y0194789D01*
X0360037Y0195200D01*
X0359063Y0195200D01*
X0356163Y0198100D01*
X0323943Y0198100D01*
X0325500Y0199658D01*
X0325500Y0203220D01*
X0322982Y0205739D01*
X0319419Y0205739D01*
X0316900Y0203220D01*
X0316900Y0199658D01*
X0318458Y0198100D01*
X0313943Y0198100D01*
X0315500Y0199658D01*
X0315500Y0203220D01*
X0312982Y0205739D01*
X0309419Y0205739D01*
X0306900Y0203220D01*
X0306900Y0199658D01*
X0308458Y0198100D01*
X0298837Y0198100D01*
X0297900Y0197163D01*
X0297900Y0177163D01*
X0159837Y0039100D01*
X0106540Y0039100D01*
X0105603Y0038163D01*
X0084198Y0016758D01*
X0083124Y0017831D01*
X0081544Y0018486D01*
X0079833Y0018486D01*
X0078253Y0017831D01*
X0077043Y0016622D01*
X0076389Y0015041D01*
X0076389Y0006931D01*
X0077043Y0005350D01*
X0078253Y0004141D01*
X0079800Y0003500D01*
X0071578Y0003500D01*
X0073124Y0004141D01*
X0074334Y0005350D01*
X0074989Y0006931D01*
X0074989Y0015041D01*
X0074334Y0016622D01*
X0073124Y0017831D01*
X0071544Y0018486D01*
X0069833Y0018486D01*
X0068253Y0017831D01*
X0067043Y0016622D01*
X0066389Y0015041D01*
X0066389Y0006931D01*
X0067043Y0005350D01*
X0068253Y0004141D01*
X0069800Y0003500D01*
X0061578Y0003500D01*
X0063124Y0004141D01*
X0064334Y0005350D01*
X0064989Y0006931D01*
X0064989Y0015041D01*
X0064334Y0016622D01*
X0063124Y0017831D01*
X0061544Y0018486D01*
X0059833Y0018486D01*
X0058253Y0017831D01*
X0057043Y0016622D01*
X0056389Y0015041D01*
X0056389Y0006931D01*
X0057043Y0005350D01*
X0058253Y0004141D01*
X0059800Y0003500D01*
X0051578Y0003500D01*
X0053124Y0004141D01*
X0054334Y0005350D01*
X0054989Y0006931D01*
X0054989Y0015041D01*
X0054334Y0016622D01*
X0053124Y0017831D01*
X0051544Y0018486D01*
X0049833Y0018486D01*
X0048253Y0017831D01*
X0047043Y0016622D01*
X0046389Y0015041D01*
X0046389Y0006931D01*
X0047043Y0005350D01*
X0048253Y0004141D01*
X0049800Y0003500D01*
X0003500Y0003500D01*
X0003500Y0004496D02*
X0047898Y0004496D01*
X0046984Y0005494D02*
X0003500Y0005494D01*
X0003500Y0006493D02*
X0046570Y0006493D01*
X0046389Y0007491D02*
X0003500Y0007491D01*
X0003500Y0008490D02*
X0046389Y0008490D01*
X0046389Y0009488D02*
X0003500Y0009488D01*
X0003500Y0010487D02*
X0046389Y0010487D01*
X0046389Y0011485D02*
X0003500Y0011485D01*
X0003500Y0012484D02*
X0046389Y0012484D01*
X0046389Y0013482D02*
X0003500Y0013482D01*
X0003500Y0014481D02*
X0046389Y0014481D01*
X0046570Y0015479D02*
X0003500Y0015479D01*
X0003500Y0016478D02*
X0046984Y0016478D01*
X0047898Y0017476D02*
X0003500Y0017476D01*
X0003500Y0018475D02*
X0049806Y0018475D01*
X0051571Y0018475D02*
X0059806Y0018475D01*
X0061571Y0018475D02*
X0069806Y0018475D01*
X0071571Y0018475D02*
X0079806Y0018475D01*
X0081571Y0018475D02*
X0085915Y0018475D01*
X0086913Y0019473D02*
X0003500Y0019473D01*
X0003500Y0020472D02*
X0087912Y0020472D01*
X0088910Y0021470D02*
X0003500Y0021470D01*
X0003500Y0022469D02*
X0089909Y0022469D01*
X0090907Y0023467D02*
X0003500Y0023467D01*
X0003500Y0024466D02*
X0091906Y0024466D01*
X0092904Y0025464D02*
X0003500Y0025464D01*
X0003500Y0026463D02*
X0093903Y0026463D01*
X0094901Y0027461D02*
X0003500Y0027461D01*
X0003500Y0028460D02*
X0095900Y0028460D01*
X0096898Y0029458D02*
X0003500Y0029458D01*
X0003500Y0030457D02*
X0097897Y0030457D01*
X0098895Y0031455D02*
X0003500Y0031455D01*
X0003500Y0032454D02*
X0099894Y0032454D01*
X0100892Y0033452D02*
X0003500Y0033452D01*
X0003500Y0034451D02*
X0101891Y0034451D01*
X0102889Y0035449D02*
X0003500Y0035449D01*
X0003500Y0036448D02*
X0103888Y0036448D01*
X0104886Y0037446D02*
X0003500Y0037446D01*
X0003500Y0038445D02*
X0105885Y0038445D01*
X0107203Y0037500D02*
X0160500Y0037500D01*
X0299500Y0176500D01*
X0299500Y0196500D01*
X0355500Y0196500D01*
X0359500Y0192500D01*
X0362035Y0189965D01*
X0370539Y0189965D01*
X0370524Y0189949D01*
X0370524Y0174311D01*
X0375245Y0176239D02*
X0403201Y0176239D01*
X0403201Y0175241D02*
X0375624Y0175241D01*
X0375624Y0174242D02*
X0403201Y0174242D01*
X0403201Y0173244D02*
X0375602Y0173244D01*
X0375188Y0172245D02*
X0403201Y0172245D01*
X0403201Y0171247D02*
X0374672Y0171247D01*
X0373673Y0170248D02*
X0403201Y0170248D01*
X0403201Y0169250D02*
X0371632Y0169250D01*
X0369415Y0169250D02*
X0342092Y0169250D01*
X0342092Y0168251D02*
X0403201Y0168251D01*
X0403201Y0167253D02*
X0342092Y0167253D01*
X0342092Y0166254D02*
X0403201Y0166254D01*
X0403201Y0165256D02*
X0342092Y0165256D01*
X0342092Y0164257D02*
X0403201Y0164257D01*
X0403201Y0163259D02*
X0342092Y0163259D01*
X0342092Y0162260D02*
X0369076Y0162260D01*
X0367215Y0161262D02*
X0343770Y0161262D01*
X0344768Y0160263D02*
X0366216Y0160263D01*
X0365775Y0159265D02*
X0345210Y0159265D01*
X0345592Y0158266D02*
X0365392Y0158266D01*
X0365392Y0157268D02*
X0345592Y0157268D01*
X0345574Y0156269D02*
X0365410Y0156269D01*
X0365824Y0155271D02*
X0345161Y0155271D01*
X0347546Y0154272D02*
X0366334Y0154272D01*
X0366989Y0153274D02*
X0367333Y0153274D01*
X0367988Y0152275D02*
X0368892Y0152275D01*
X0370492Y0150799D02*
X0370492Y0157327D01*
X0375210Y0159265D02*
X0403201Y0159265D01*
X0403201Y0160263D02*
X0374768Y0160263D01*
X0373770Y0161262D02*
X0403201Y0161262D01*
X0403201Y0162260D02*
X0371908Y0162260D01*
X0375592Y0158266D02*
X0403201Y0158266D01*
X0403201Y0157268D02*
X0375592Y0157268D01*
X0375574Y0156269D02*
X0403201Y0156269D01*
X0403201Y0155271D02*
X0375161Y0155271D01*
X0374650Y0154272D02*
X0403201Y0154272D01*
X0403201Y0153274D02*
X0373652Y0153274D01*
X0372092Y0152275D02*
X0403201Y0152275D01*
X0403201Y0151277D02*
X0398238Y0151277D01*
X0398238Y0151381D02*
X0397593Y0152025D01*
X0388021Y0152025D01*
X0387376Y0151381D01*
X0387376Y0143383D01*
X0388021Y0142739D01*
X0397593Y0142739D01*
X0398238Y0143383D01*
X0398238Y0151381D01*
X0398238Y0150278D02*
X0403201Y0150278D01*
X0403201Y0149280D02*
X0398238Y0149280D01*
X0398238Y0148281D02*
X0403201Y0148281D01*
X0403201Y0147283D02*
X0398238Y0147283D01*
X0398238Y0146284D02*
X0403201Y0146284D01*
X0403201Y0145286D02*
X0398238Y0145286D01*
X0398238Y0144287D02*
X0403201Y0144287D01*
X0403201Y0143289D02*
X0398143Y0143289D01*
X0403201Y0142290D02*
X0386973Y0142290D01*
X0387471Y0143289D02*
X0380265Y0143289D01*
X0379267Y0144287D02*
X0387376Y0144287D01*
X0387376Y0145286D02*
X0378268Y0145286D01*
X0377270Y0146284D02*
X0387376Y0146284D01*
X0387376Y0147283D02*
X0376271Y0147283D01*
X0375273Y0148281D02*
X0387376Y0148281D01*
X0387376Y0149280D02*
X0374274Y0149280D01*
X0373276Y0150278D02*
X0387376Y0150278D01*
X0387376Y0151277D02*
X0372277Y0151277D01*
X0370492Y0150799D02*
X0380012Y0141280D01*
X0385720Y0141280D01*
X0386500Y0140500D01*
X0386500Y0137500D01*
X0380169Y0137500D01*
X0380012Y0137343D01*
X0379886Y0135500D02*
X0374000Y0135500D01*
X0373000Y0136500D01*
X0369500Y0136500D01*
X0368500Y0137500D01*
X0367500Y0137500D01*
X0367500Y0145500D01*
X0363500Y0149500D01*
X0338500Y0149500D01*
X0340542Y0151277D02*
X0343084Y0151277D01*
X0342800Y0152275D02*
X0341624Y0152275D01*
X0339361Y0152275D02*
X0325500Y0152275D01*
X0325500Y0151277D02*
X0336458Y0151277D01*
X0335900Y0150278D02*
X0325500Y0150278D01*
X0325122Y0149280D02*
X0335800Y0149280D01*
X0336082Y0148281D02*
X0324124Y0148281D01*
X0323125Y0147283D02*
X0330520Y0147283D01*
X0329521Y0146284D02*
X0289547Y0146284D01*
X0288548Y0145286D02*
X0308966Y0145286D01*
X0309419Y0145739D02*
X0306900Y0143220D01*
X0306900Y0139658D01*
X0309419Y0137139D01*
X0312982Y0137139D01*
X0315500Y0139658D01*
X0315500Y0143220D01*
X0312982Y0145739D01*
X0309419Y0145739D01*
X0309276Y0147283D02*
X0290545Y0147283D01*
X0291544Y0148281D02*
X0308277Y0148281D01*
X0307279Y0149280D02*
X0292542Y0149280D01*
X0293541Y0150278D02*
X0306900Y0150278D01*
X0306900Y0151277D02*
X0294539Y0151277D01*
X0295538Y0152275D02*
X0306900Y0152275D01*
X0306954Y0153274D02*
X0296536Y0153274D01*
X0297535Y0154272D02*
X0307953Y0154272D01*
X0308292Y0158266D02*
X0283529Y0158266D01*
X0282530Y0157268D02*
X0296005Y0157268D01*
X0295007Y0156269D02*
X0281532Y0156269D01*
X0280533Y0155271D02*
X0294008Y0155271D01*
X0293009Y0154272D02*
X0279535Y0154272D01*
X0278536Y0153274D02*
X0292011Y0153274D01*
X0291012Y0152275D02*
X0277538Y0152275D01*
X0276539Y0151277D02*
X0290014Y0151277D01*
X0289015Y0150278D02*
X0275541Y0150278D01*
X0274542Y0149280D02*
X0288017Y0149280D01*
X0287018Y0148281D02*
X0273544Y0148281D01*
X0272545Y0147283D02*
X0286020Y0147283D01*
X0285021Y0146284D02*
X0271547Y0146284D01*
X0270548Y0145286D02*
X0284023Y0145286D01*
X0283024Y0144287D02*
X0269550Y0144287D01*
X0268551Y0143289D02*
X0282026Y0143289D01*
X0281027Y0142290D02*
X0267553Y0142290D01*
X0266554Y0141292D02*
X0280029Y0141292D01*
X0279030Y0140293D02*
X0265556Y0140293D01*
X0264557Y0139295D02*
X0278032Y0139295D01*
X0277033Y0138296D02*
X0263559Y0138296D01*
X0262560Y0137298D02*
X0276035Y0137298D01*
X0275036Y0136299D02*
X0261562Y0136299D01*
X0260563Y0135301D02*
X0274038Y0135301D01*
X0273039Y0134302D02*
X0259565Y0134302D01*
X0258566Y0133303D02*
X0272041Y0133303D01*
X0271042Y0132305D02*
X0257568Y0132305D01*
X0256569Y0131306D02*
X0270044Y0131306D01*
X0269045Y0130308D02*
X0255571Y0130308D01*
X0254572Y0129309D02*
X0268047Y0129309D01*
X0267048Y0128311D02*
X0253574Y0128311D01*
X0252575Y0127312D02*
X0266050Y0127312D01*
X0265051Y0126314D02*
X0251577Y0126314D01*
X0250578Y0125315D02*
X0264053Y0125315D01*
X0263054Y0124317D02*
X0249580Y0124317D01*
X0248581Y0123318D02*
X0262056Y0123318D01*
X0261057Y0122320D02*
X0247583Y0122320D01*
X0246584Y0121321D02*
X0260059Y0121321D01*
X0259060Y0120323D02*
X0245586Y0120323D01*
X0244587Y0119324D02*
X0258062Y0119324D01*
X0257063Y0118326D02*
X0243589Y0118326D01*
X0242590Y0117327D02*
X0256065Y0117327D01*
X0255066Y0116329D02*
X0241592Y0116329D01*
X0240593Y0115330D02*
X0254068Y0115330D01*
X0253069Y0114332D02*
X0239595Y0114332D01*
X0238596Y0113333D02*
X0252071Y0113333D01*
X0251072Y0112335D02*
X0237597Y0112335D01*
X0236599Y0111336D02*
X0250074Y0111336D01*
X0249075Y0110338D02*
X0235600Y0110338D01*
X0234602Y0109339D02*
X0248076Y0109339D01*
X0247078Y0108341D02*
X0233603Y0108341D01*
X0232605Y0107342D02*
X0246079Y0107342D01*
X0245081Y0106344D02*
X0231606Y0106344D01*
X0230608Y0105345D02*
X0244082Y0105345D01*
X0243084Y0104347D02*
X0229609Y0104347D01*
X0228611Y0103348D02*
X0242085Y0103348D01*
X0241087Y0102350D02*
X0227612Y0102350D01*
X0226614Y0101351D02*
X0240088Y0101351D01*
X0239090Y0100353D02*
X0225615Y0100353D01*
X0224617Y0099354D02*
X0238091Y0099354D01*
X0237093Y0098356D02*
X0223618Y0098356D01*
X0222620Y0097357D02*
X0236094Y0097357D01*
X0235096Y0096359D02*
X0221621Y0096359D01*
X0220623Y0095360D02*
X0234097Y0095360D01*
X0233099Y0094362D02*
X0219624Y0094362D01*
X0218626Y0093363D02*
X0232100Y0093363D01*
X0231102Y0092365D02*
X0217627Y0092365D01*
X0216629Y0091366D02*
X0230103Y0091366D01*
X0229105Y0090368D02*
X0215630Y0090368D01*
X0214632Y0089369D02*
X0228106Y0089369D01*
X0227108Y0088370D02*
X0213633Y0088370D01*
X0212635Y0087372D02*
X0226109Y0087372D01*
X0225111Y0086373D02*
X0211636Y0086373D01*
X0210638Y0085375D02*
X0224112Y0085375D01*
X0223114Y0084376D02*
X0209639Y0084376D01*
X0208641Y0083378D02*
X0212560Y0083378D01*
X0211942Y0082379D02*
X0207642Y0082379D01*
X0206644Y0081381D02*
X0211800Y0081381D01*
X0212040Y0080382D02*
X0205645Y0080382D01*
X0204647Y0079384D02*
X0211121Y0079384D01*
X0210123Y0078385D02*
X0203648Y0078385D01*
X0202650Y0077387D02*
X0209124Y0077387D01*
X0208126Y0076388D02*
X0201651Y0076388D01*
X0200653Y0075390D02*
X0207127Y0075390D01*
X0206129Y0074391D02*
X0199654Y0074391D01*
X0198656Y0073393D02*
X0205130Y0073393D01*
X0204132Y0072394D02*
X0197657Y0072394D01*
X0196659Y0071396D02*
X0203133Y0071396D01*
X0202135Y0070397D02*
X0195660Y0070397D01*
X0194662Y0069399D02*
X0201136Y0069399D01*
X0200138Y0068400D02*
X0193663Y0068400D01*
X0192664Y0067402D02*
X0199139Y0067402D01*
X0198141Y0066403D02*
X0191666Y0066403D01*
X0190667Y0065405D02*
X0197142Y0065405D01*
X0196143Y0064406D02*
X0189669Y0064406D01*
X0188670Y0063408D02*
X0195145Y0063408D01*
X0194146Y0062409D02*
X0187672Y0062409D01*
X0186673Y0061411D02*
X0193148Y0061411D01*
X0192149Y0060412D02*
X0185675Y0060412D01*
X0184676Y0059414D02*
X0191151Y0059414D01*
X0190152Y0058415D02*
X0183678Y0058415D01*
X0182679Y0057417D02*
X0189154Y0057417D01*
X0188155Y0056418D02*
X0181681Y0056418D01*
X0180682Y0055420D02*
X0187157Y0055420D01*
X0186158Y0054421D02*
X0179684Y0054421D01*
X0178685Y0053423D02*
X0185160Y0053423D01*
X0184161Y0052424D02*
X0177687Y0052424D01*
X0176688Y0051426D02*
X0183163Y0051426D01*
X0182164Y0050427D02*
X0175690Y0050427D01*
X0174691Y0049429D02*
X0181166Y0049429D01*
X0180167Y0048430D02*
X0173693Y0048430D01*
X0172694Y0047432D02*
X0179169Y0047432D01*
X0178170Y0046433D02*
X0171696Y0046433D01*
X0170697Y0045434D02*
X0177172Y0045434D01*
X0176173Y0044436D02*
X0169699Y0044436D01*
X0168700Y0043437D02*
X0175175Y0043437D01*
X0174176Y0042439D02*
X0167702Y0042439D01*
X0166703Y0041440D02*
X0173178Y0041440D01*
X0172179Y0040442D02*
X0165705Y0040442D01*
X0164706Y0039443D02*
X0171181Y0039443D01*
X0170182Y0038445D02*
X0163708Y0038445D01*
X0162709Y0037446D02*
X0169184Y0037446D01*
X0168185Y0036448D02*
X0161711Y0036448D01*
X0160181Y0039443D02*
X0003500Y0039443D01*
X0003500Y0040442D02*
X0161179Y0040442D01*
X0162178Y0041440D02*
X0003500Y0041440D01*
X0003500Y0042439D02*
X0163176Y0042439D01*
X0164175Y0043437D02*
X0003500Y0043437D01*
X0003500Y0044436D02*
X0165173Y0044436D01*
X0166172Y0045434D02*
X0003500Y0045434D01*
X0003500Y0046433D02*
X0167170Y0046433D01*
X0168169Y0047432D02*
X0003500Y0047432D01*
X0003500Y0048430D02*
X0169167Y0048430D01*
X0170166Y0049429D02*
X0003500Y0049429D01*
X0003500Y0050427D02*
X0171164Y0050427D01*
X0172163Y0051426D02*
X0003500Y0051426D01*
X0003500Y0052424D02*
X0173161Y0052424D01*
X0174160Y0053423D02*
X0003500Y0053423D01*
X0003500Y0054421D02*
X0175158Y0054421D01*
X0176157Y0055420D02*
X0003500Y0055420D01*
X0003500Y0056418D02*
X0177155Y0056418D01*
X0178154Y0057417D02*
X0003500Y0057417D01*
X0003500Y0058415D02*
X0179152Y0058415D01*
X0180151Y0059414D02*
X0003500Y0059414D01*
X0003500Y0060412D02*
X0181149Y0060412D01*
X0182148Y0061411D02*
X0003500Y0061411D01*
X0003500Y0062409D02*
X0183146Y0062409D01*
X0184145Y0063408D02*
X0003500Y0063408D01*
X0003500Y0064406D02*
X0185143Y0064406D01*
X0186142Y0065405D02*
X0003500Y0065405D01*
X0003500Y0066403D02*
X0187141Y0066403D01*
X0188139Y0067402D02*
X0003500Y0067402D01*
X0003500Y0068400D02*
X0189138Y0068400D01*
X0190136Y0069399D02*
X0003500Y0069399D01*
X0003500Y0070397D02*
X0191135Y0070397D01*
X0192133Y0071396D02*
X0003500Y0071396D01*
X0003500Y0072394D02*
X0193132Y0072394D01*
X0194130Y0073393D02*
X0003500Y0073393D01*
X0003500Y0074391D02*
X0195129Y0074391D01*
X0196127Y0075390D02*
X0003500Y0075390D01*
X0003500Y0076388D02*
X0197126Y0076388D01*
X0198124Y0077387D02*
X0003500Y0077387D01*
X0003500Y0078385D02*
X0199123Y0078385D01*
X0200121Y0079384D02*
X0003500Y0079384D01*
X0003500Y0080382D02*
X0201120Y0080382D01*
X0202118Y0081381D02*
X0003500Y0081381D01*
X0003500Y0082379D02*
X0203117Y0082379D01*
X0204115Y0083378D02*
X0003500Y0083378D01*
X0003500Y0084376D02*
X0205114Y0084376D01*
X0206112Y0085375D02*
X0003500Y0085375D01*
X0003500Y0086373D02*
X0207111Y0086373D01*
X0208109Y0087372D02*
X0003500Y0087372D01*
X0003500Y0088370D02*
X0209108Y0088370D01*
X0210106Y0089369D02*
X0003500Y0089369D01*
X0003500Y0090368D02*
X0211105Y0090368D01*
X0212103Y0091366D02*
X0003500Y0091366D01*
X0003500Y0092365D02*
X0213102Y0092365D01*
X0214100Y0093363D02*
X0003500Y0093363D01*
X0003500Y0094362D02*
X0215099Y0094362D01*
X0216097Y0095360D02*
X0003500Y0095360D01*
X0003500Y0096359D02*
X0217096Y0096359D01*
X0218094Y0097357D02*
X0202807Y0097357D01*
X0202792Y0097343D02*
X0205311Y0099862D01*
X0205311Y0103424D01*
X0202792Y0105943D01*
X0199230Y0105943D01*
X0196711Y0103424D01*
X0196711Y0099862D01*
X0199230Y0097343D01*
X0202792Y0097343D01*
X0203805Y0098356D02*
X0219093Y0098356D01*
X0220091Y0099354D02*
X0204804Y0099354D01*
X0205311Y0100353D02*
X0221090Y0100353D01*
X0222088Y0101351D02*
X0205311Y0101351D01*
X0205311Y0102350D02*
X0223087Y0102350D01*
X0224085Y0103348D02*
X0205311Y0103348D01*
X0204388Y0104347D02*
X0225084Y0104347D01*
X0226082Y0105345D02*
X0203390Y0105345D01*
X0202792Y0107343D02*
X0199230Y0107343D01*
X0196711Y0109862D01*
X0196711Y0113424D01*
X0199230Y0115943D01*
X0202792Y0115943D01*
X0205311Y0113424D01*
X0205311Y0109862D01*
X0202792Y0107343D01*
X0203790Y0108341D02*
X0229078Y0108341D01*
X0230076Y0109339D02*
X0204789Y0109339D01*
X0205311Y0110338D02*
X0231075Y0110338D01*
X0232074Y0111336D02*
X0205311Y0111336D01*
X0205311Y0112335D02*
X0233072Y0112335D01*
X0234071Y0113333D02*
X0205311Y0113333D01*
X0204403Y0114332D02*
X0235069Y0114332D01*
X0236068Y0115330D02*
X0203405Y0115330D01*
X0202792Y0117343D02*
X0199230Y0117343D01*
X0196711Y0119862D01*
X0196711Y0123424D01*
X0199230Y0125943D01*
X0202792Y0125943D01*
X0205311Y0123424D01*
X0205311Y0119862D01*
X0202792Y0117343D01*
X0203775Y0118326D02*
X0239063Y0118326D01*
X0240062Y0119324D02*
X0204774Y0119324D01*
X0205311Y0120323D02*
X0241060Y0120323D01*
X0242059Y0121321D02*
X0205311Y0121321D01*
X0205311Y0122320D02*
X0243057Y0122320D01*
X0244056Y0123318D02*
X0205311Y0123318D01*
X0204418Y0124317D02*
X0245054Y0124317D01*
X0246053Y0125315D02*
X0203419Y0125315D01*
X0198603Y0125315D02*
X0193419Y0125315D01*
X0192792Y0125943D02*
X0189230Y0125943D01*
X0186711Y0123424D01*
X0186711Y0119862D01*
X0189230Y0117343D01*
X0192792Y0117343D01*
X0195311Y0119862D01*
X0195311Y0123424D01*
X0192792Y0125943D01*
X0194418Y0124317D02*
X0197604Y0124317D01*
X0196711Y0123318D02*
X0195311Y0123318D01*
X0195311Y0122320D02*
X0196711Y0122320D01*
X0196711Y0121321D02*
X0195311Y0121321D01*
X0195311Y0120323D02*
X0196711Y0120323D01*
X0197248Y0119324D02*
X0194774Y0119324D01*
X0193775Y0118326D02*
X0198247Y0118326D01*
X0198618Y0115330D02*
X0193405Y0115330D01*
X0192792Y0115943D02*
X0189230Y0115943D01*
X0186711Y0113424D01*
X0186711Y0109862D01*
X0189230Y0107343D01*
X0192792Y0107343D01*
X0195311Y0109862D01*
X0195311Y0113424D01*
X0192792Y0115943D01*
X0194403Y0114332D02*
X0197619Y0114332D01*
X0196711Y0113333D02*
X0195311Y0113333D01*
X0195311Y0112335D02*
X0196711Y0112335D01*
X0196711Y0111336D02*
X0195311Y0111336D01*
X0195311Y0110338D02*
X0196711Y0110338D01*
X0197233Y0109339D02*
X0194789Y0109339D01*
X0193790Y0108341D02*
X0198232Y0108341D01*
X0198632Y0105345D02*
X0193390Y0105345D01*
X0192792Y0105943D02*
X0189230Y0105943D01*
X0186711Y0103424D01*
X0186711Y0099862D01*
X0189230Y0097343D01*
X0192792Y0097343D01*
X0195311Y0099862D01*
X0195311Y0103424D01*
X0192792Y0105943D01*
X0194388Y0104347D02*
X0197634Y0104347D01*
X0196711Y0103348D02*
X0195311Y0103348D01*
X0195311Y0102350D02*
X0196711Y0102350D01*
X0196711Y0101351D02*
X0195311Y0101351D01*
X0195311Y0100353D02*
X0196711Y0100353D01*
X0197218Y0099354D02*
X0194804Y0099354D01*
X0193805Y0098356D02*
X0198217Y0098356D01*
X0199216Y0097357D02*
X0192807Y0097357D01*
X0189216Y0097357D02*
X0003500Y0097357D01*
X0003500Y0098356D02*
X0188217Y0098356D01*
X0187218Y0099354D02*
X0003500Y0099354D01*
X0003500Y0100353D02*
X0186711Y0100353D01*
X0186711Y0101351D02*
X0003500Y0101351D01*
X0003500Y0102350D02*
X0186711Y0102350D01*
X0186711Y0103348D02*
X0003500Y0103348D01*
X0003500Y0104347D02*
X0187634Y0104347D01*
X0188632Y0105345D02*
X0003500Y0105345D01*
X0003500Y0106344D02*
X0227081Y0106344D01*
X0228079Y0107342D02*
X0003500Y0107342D01*
X0003500Y0108341D02*
X0188232Y0108341D01*
X0187233Y0109339D02*
X0003500Y0109339D01*
X0003500Y0110338D02*
X0186711Y0110338D01*
X0186711Y0111336D02*
X0003500Y0111336D01*
X0003500Y0112335D02*
X0186711Y0112335D01*
X0186711Y0113333D02*
X0003500Y0113333D01*
X0003500Y0114332D02*
X0187619Y0114332D01*
X0188618Y0115330D02*
X0003500Y0115330D01*
X0003500Y0116329D02*
X0237066Y0116329D01*
X0238065Y0117327D02*
X0003500Y0117327D01*
X0003500Y0118326D02*
X0188247Y0118326D01*
X0187248Y0119324D02*
X0003500Y0119324D01*
X0003500Y0120323D02*
X0186711Y0120323D01*
X0186711Y0121321D02*
X0003500Y0121321D01*
X0003500Y0122320D02*
X0186711Y0122320D01*
X0186711Y0123318D02*
X0003500Y0123318D01*
X0003500Y0124317D02*
X0187604Y0124317D01*
X0188603Y0125315D02*
X0003500Y0125315D01*
X0003500Y0126314D02*
X0247051Y0126314D01*
X0248050Y0127312D02*
X0003500Y0127312D01*
X0003500Y0128311D02*
X0249048Y0128311D01*
X0250047Y0129309D02*
X0003500Y0129309D01*
X0003500Y0130308D02*
X0251045Y0130308D01*
X0252044Y0131306D02*
X0003500Y0131306D01*
X0003500Y0132305D02*
X0253042Y0132305D01*
X0254041Y0133303D02*
X0003500Y0133303D01*
X0003500Y0134302D02*
X0255039Y0134302D01*
X0256038Y0135301D02*
X0003500Y0135301D01*
X0003500Y0136299D02*
X0257036Y0136299D01*
X0258035Y0137298D02*
X0003500Y0137298D01*
X0003500Y0138296D02*
X0259033Y0138296D01*
X0260032Y0139295D02*
X0003500Y0139295D01*
X0003500Y0140293D02*
X0261030Y0140293D01*
X0262029Y0141292D02*
X0003500Y0141292D01*
X0003500Y0142290D02*
X0263027Y0142290D01*
X0264026Y0143289D02*
X0003500Y0143289D01*
X0003500Y0144287D02*
X0265024Y0144287D01*
X0266023Y0145286D02*
X0003500Y0145286D01*
X0003500Y0146284D02*
X0267021Y0146284D01*
X0268020Y0147283D02*
X0003500Y0147283D01*
X0003500Y0148281D02*
X0269018Y0148281D01*
X0270017Y0149280D02*
X0003500Y0149280D01*
X0003500Y0150278D02*
X0271015Y0150278D01*
X0272014Y0151277D02*
X0003500Y0151277D01*
X0003500Y0152275D02*
X0273012Y0152275D01*
X0274011Y0153274D02*
X0003500Y0153274D01*
X0003500Y0154272D02*
X0275009Y0154272D01*
X0276008Y0155271D02*
X0003500Y0155271D01*
X0003500Y0156269D02*
X0277007Y0156269D01*
X0278005Y0157268D02*
X0003500Y0157268D01*
X0003500Y0158266D02*
X0279004Y0158266D01*
X0280002Y0159265D02*
X0003500Y0159265D01*
X0003500Y0160263D02*
X0281001Y0160263D01*
X0281999Y0161262D02*
X0003500Y0161262D01*
X0003500Y0162260D02*
X0282998Y0162260D01*
X0283996Y0163259D02*
X0003500Y0163259D01*
X0003500Y0164257D02*
X0284995Y0164257D01*
X0285993Y0165256D02*
X0003500Y0165256D01*
X0003500Y0166254D02*
X0286992Y0166254D01*
X0287990Y0167253D02*
X0003500Y0167253D01*
X0003500Y0168251D02*
X0288989Y0168251D01*
X0289987Y0169250D02*
X0003500Y0169250D01*
X0003500Y0170248D02*
X0290986Y0170248D01*
X0291984Y0171247D02*
X0003500Y0171247D01*
X0003500Y0172245D02*
X0292983Y0172245D01*
X0293981Y0173244D02*
X0003500Y0173244D01*
X0003500Y0174242D02*
X0294980Y0174242D01*
X0295978Y0175241D02*
X0003500Y0175241D01*
X0003500Y0176239D02*
X0296977Y0176239D01*
X0297900Y0177238D02*
X0003500Y0177238D01*
X0003500Y0178237D02*
X0297900Y0178237D01*
X0297900Y0179235D02*
X0003500Y0179235D01*
X0003500Y0180234D02*
X0297900Y0180234D01*
X0297900Y0181232D02*
X0003500Y0181232D01*
X0003500Y0182231D02*
X0297900Y0182231D01*
X0297900Y0183229D02*
X0003500Y0183229D01*
X0003500Y0184228D02*
X0297900Y0184228D01*
X0297900Y0185226D02*
X0003500Y0185226D01*
X0003500Y0186225D02*
X0297900Y0186225D01*
X0297900Y0187223D02*
X0003500Y0187223D01*
X0003500Y0188222D02*
X0297900Y0188222D01*
X0297900Y0189220D02*
X0003500Y0189220D01*
X0003500Y0190219D02*
X0297900Y0190219D01*
X0297900Y0191217D02*
X0003500Y0191217D01*
X0003500Y0192216D02*
X0297900Y0192216D01*
X0297900Y0193214D02*
X0003500Y0193214D01*
X0003500Y0194213D02*
X0013840Y0194213D01*
X0012499Y0195211D02*
X0003500Y0195211D01*
X0003500Y0196210D02*
X0011820Y0196210D01*
X0011406Y0197208D02*
X0003500Y0197208D01*
X0003500Y0198207D02*
X0011391Y0198207D01*
X0011391Y0199205D02*
X0003500Y0199205D01*
X0003500Y0200204D02*
X0011391Y0200204D01*
X0011391Y0201202D02*
X0003500Y0201202D01*
X0003500Y0202201D02*
X0011391Y0202201D01*
X0011391Y0203199D02*
X0003500Y0203199D01*
X0003500Y0204198D02*
X0011391Y0204198D01*
X0011391Y0205196D02*
X0003500Y0205196D01*
X0003500Y0206195D02*
X0011739Y0206195D01*
X0012303Y0207193D02*
X0003500Y0207193D01*
X0019079Y0207193D02*
X0022303Y0207193D01*
X0021739Y0206195D02*
X0019644Y0206195D01*
X0019991Y0205196D02*
X0021391Y0205196D01*
X0021391Y0204198D02*
X0019991Y0204198D01*
X0019991Y0203199D02*
X0021391Y0203199D01*
X0021391Y0202201D02*
X0019991Y0202201D01*
X0019991Y0201202D02*
X0021391Y0201202D01*
X0021391Y0200204D02*
X0019991Y0200204D01*
X0019991Y0199205D02*
X0021391Y0199205D01*
X0021391Y0198207D02*
X0019991Y0198207D01*
X0019976Y0197208D02*
X0021406Y0197208D01*
X0021820Y0196210D02*
X0019562Y0196210D01*
X0018883Y0195211D02*
X0022499Y0195211D01*
X0023840Y0194213D02*
X0017542Y0194213D01*
X0027542Y0194213D02*
X0033840Y0194213D01*
X0032499Y0195211D02*
X0028883Y0195211D01*
X0029562Y0196210D02*
X0031820Y0196210D01*
X0031406Y0197208D02*
X0029976Y0197208D01*
X0029991Y0198207D02*
X0031391Y0198207D01*
X0031391Y0199205D02*
X0029991Y0199205D01*
X0029991Y0200204D02*
X0031391Y0200204D01*
X0031391Y0201202D02*
X0029991Y0201202D01*
X0029991Y0202201D02*
X0031391Y0202201D01*
X0031391Y0203199D02*
X0029991Y0203199D01*
X0029991Y0204198D02*
X0031391Y0204198D01*
X0031391Y0205196D02*
X0029991Y0205196D01*
X0029644Y0206195D02*
X0031739Y0206195D01*
X0032303Y0207193D02*
X0029079Y0207193D01*
X0039079Y0207193D02*
X0042303Y0207193D01*
X0041739Y0206195D02*
X0039644Y0206195D01*
X0039991Y0205196D02*
X0041391Y0205196D01*
X0041391Y0204198D02*
X0039991Y0204198D01*
X0039991Y0203199D02*
X0041391Y0203199D01*
X0041391Y0202201D02*
X0039991Y0202201D01*
X0039991Y0201202D02*
X0041391Y0201202D01*
X0041391Y0200204D02*
X0039991Y0200204D01*
X0039991Y0199205D02*
X0041391Y0199205D01*
X0041391Y0198207D02*
X0039991Y0198207D01*
X0039976Y0197208D02*
X0041406Y0197208D01*
X0041820Y0196210D02*
X0039562Y0196210D01*
X0038883Y0195211D02*
X0042499Y0195211D01*
X0043840Y0194213D02*
X0037542Y0194213D01*
X0047542Y0194213D02*
X0053840Y0194213D01*
X0052499Y0195211D02*
X0048883Y0195211D01*
X0049562Y0196210D02*
X0051820Y0196210D01*
X0051406Y0197208D02*
X0049976Y0197208D01*
X0049991Y0198207D02*
X0051391Y0198207D01*
X0051391Y0199205D02*
X0049991Y0199205D01*
X0049991Y0200204D02*
X0051391Y0200204D01*
X0051391Y0201202D02*
X0049991Y0201202D01*
X0049991Y0202201D02*
X0051391Y0202201D01*
X0051391Y0203199D02*
X0049991Y0203199D01*
X0049991Y0204198D02*
X0051391Y0204198D01*
X0051391Y0205196D02*
X0049991Y0205196D01*
X0049644Y0206195D02*
X0051739Y0206195D01*
X0052303Y0207193D02*
X0049079Y0207193D01*
X0059079Y0207193D02*
X0062303Y0207193D01*
X0061739Y0206195D02*
X0059644Y0206195D01*
X0059991Y0205196D02*
X0061391Y0205196D01*
X0061391Y0204198D02*
X0059991Y0204198D01*
X0059991Y0203199D02*
X0061391Y0203199D01*
X0061391Y0202201D02*
X0059991Y0202201D01*
X0059991Y0201202D02*
X0061391Y0201202D01*
X0061391Y0200204D02*
X0059991Y0200204D01*
X0059991Y0199205D02*
X0061391Y0199205D01*
X0061391Y0198207D02*
X0059991Y0198207D01*
X0059976Y0197208D02*
X0061406Y0197208D01*
X0061820Y0196210D02*
X0059562Y0196210D01*
X0058883Y0195211D02*
X0062499Y0195211D01*
X0063840Y0194213D02*
X0057542Y0194213D01*
X0067542Y0194213D02*
X0073840Y0194213D01*
X0072499Y0195211D02*
X0068883Y0195211D01*
X0069562Y0196210D02*
X0071820Y0196210D01*
X0071406Y0197208D02*
X0069976Y0197208D01*
X0069991Y0198207D02*
X0071391Y0198207D01*
X0071391Y0199205D02*
X0069991Y0199205D01*
X0069991Y0200204D02*
X0071391Y0200204D01*
X0071391Y0201202D02*
X0069991Y0201202D01*
X0069991Y0202201D02*
X0071391Y0202201D01*
X0071391Y0203199D02*
X0069991Y0203199D01*
X0069991Y0204198D02*
X0071391Y0204198D01*
X0071391Y0205196D02*
X0069991Y0205196D01*
X0069644Y0206195D02*
X0071739Y0206195D01*
X0072303Y0207193D02*
X0069079Y0207193D01*
X0079079Y0207193D02*
X0082303Y0207193D01*
X0081739Y0206195D02*
X0079644Y0206195D01*
X0079991Y0205196D02*
X0081391Y0205196D01*
X0081391Y0204198D02*
X0079991Y0204198D01*
X0079991Y0203199D02*
X0081391Y0203199D01*
X0081391Y0202201D02*
X0079991Y0202201D01*
X0079991Y0201202D02*
X0081391Y0201202D01*
X0081391Y0200204D02*
X0079991Y0200204D01*
X0079991Y0199205D02*
X0081391Y0199205D01*
X0081391Y0198207D02*
X0079991Y0198207D01*
X0079976Y0197208D02*
X0081406Y0197208D01*
X0081820Y0196210D02*
X0079562Y0196210D01*
X0078883Y0195211D02*
X0082499Y0195211D01*
X0083840Y0194213D02*
X0077542Y0194213D01*
X0087542Y0194213D02*
X0093840Y0194213D01*
X0092499Y0195211D02*
X0088883Y0195211D01*
X0089562Y0196210D02*
X0091820Y0196210D01*
X0091406Y0197208D02*
X0089976Y0197208D01*
X0089991Y0198207D02*
X0091391Y0198207D01*
X0091391Y0199205D02*
X0089991Y0199205D01*
X0089991Y0200204D02*
X0091391Y0200204D01*
X0091391Y0201202D02*
X0089991Y0201202D01*
X0089991Y0202201D02*
X0091391Y0202201D01*
X0091391Y0203199D02*
X0089991Y0203199D01*
X0089991Y0204198D02*
X0091391Y0204198D01*
X0091391Y0205196D02*
X0089991Y0205196D01*
X0089644Y0206195D02*
X0091739Y0206195D01*
X0092303Y0207193D02*
X0089079Y0207193D01*
X0099079Y0207193D02*
X0102303Y0207193D01*
X0101739Y0206195D02*
X0099644Y0206195D01*
X0099991Y0205196D02*
X0101391Y0205196D01*
X0101391Y0204198D02*
X0099991Y0204198D01*
X0099991Y0203199D02*
X0101391Y0203199D01*
X0101391Y0202201D02*
X0099991Y0202201D01*
X0099991Y0201202D02*
X0101391Y0201202D01*
X0101391Y0200204D02*
X0099991Y0200204D01*
X0099991Y0199205D02*
X0101391Y0199205D01*
X0101391Y0198207D02*
X0099991Y0198207D01*
X0099976Y0197208D02*
X0101406Y0197208D01*
X0101820Y0196210D02*
X0099562Y0196210D01*
X0098883Y0195211D02*
X0102499Y0195211D01*
X0103840Y0194213D02*
X0097542Y0194213D01*
X0107542Y0194213D02*
X0209960Y0194213D01*
X0208147Y0195211D02*
X0193540Y0195211D01*
X0194539Y0196210D02*
X0207273Y0196210D01*
X0206859Y0197208D02*
X0195024Y0197208D01*
X0195315Y0198207D02*
X0206706Y0198207D01*
X0206706Y0199205D02*
X0195315Y0199205D01*
X0195315Y0200204D02*
X0206706Y0200204D01*
X0206706Y0201202D02*
X0195315Y0201202D01*
X0195315Y0202201D02*
X0206706Y0202201D01*
X0206706Y0203199D02*
X0195315Y0203199D01*
X0195315Y0204198D02*
X0206706Y0204198D01*
X0206706Y0205196D02*
X0195315Y0205196D01*
X0195244Y0206195D02*
X0206916Y0206195D01*
X0207329Y0207193D02*
X0194830Y0207193D01*
X0187200Y0207193D02*
X0184830Y0207193D01*
X0185244Y0206195D02*
X0186786Y0206195D01*
X0186715Y0205196D02*
X0185315Y0205196D01*
X0185315Y0204198D02*
X0186715Y0204198D01*
X0186715Y0203199D02*
X0185315Y0203199D01*
X0185315Y0202201D02*
X0186715Y0202201D01*
X0186715Y0201202D02*
X0185315Y0201202D01*
X0185315Y0200204D02*
X0186715Y0200204D01*
X0186715Y0199205D02*
X0185315Y0199205D01*
X0185315Y0198207D02*
X0186715Y0198207D01*
X0187006Y0197208D02*
X0185024Y0197208D01*
X0184539Y0196210D02*
X0187491Y0196210D01*
X0188490Y0195211D02*
X0183540Y0195211D01*
X0178490Y0195211D02*
X0173540Y0195211D01*
X0174539Y0196210D02*
X0177491Y0196210D01*
X0177006Y0197208D02*
X0175024Y0197208D01*
X0175315Y0198207D02*
X0176715Y0198207D01*
X0176715Y0199205D02*
X0175315Y0199205D01*
X0175315Y0200204D02*
X0176715Y0200204D01*
X0176715Y0201202D02*
X0175315Y0201202D01*
X0175315Y0202201D02*
X0176715Y0202201D01*
X0176715Y0203199D02*
X0175315Y0203199D01*
X0175315Y0204198D02*
X0176715Y0204198D01*
X0176715Y0205196D02*
X0175315Y0205196D01*
X0175244Y0206195D02*
X0176786Y0206195D01*
X0177200Y0207193D02*
X0174830Y0207193D01*
X0167200Y0207193D02*
X0164830Y0207193D01*
X0165244Y0206195D02*
X0166786Y0206195D01*
X0166715Y0205196D02*
X0165315Y0205196D01*
X0165315Y0204198D02*
X0166715Y0204198D01*
X0166715Y0203199D02*
X0165315Y0203199D01*
X0165315Y0202201D02*
X0166715Y0202201D01*
X0166715Y0201202D02*
X0165315Y0201202D01*
X0165315Y0200204D02*
X0166715Y0200204D01*
X0166715Y0199205D02*
X0165315Y0199205D01*
X0165315Y0198207D02*
X0166715Y0198207D01*
X0167006Y0197208D02*
X0165024Y0197208D01*
X0164539Y0196210D02*
X0167491Y0196210D01*
X0168490Y0195211D02*
X0163540Y0195211D01*
X0158490Y0195211D02*
X0153540Y0195211D01*
X0154539Y0196210D02*
X0157491Y0196210D01*
X0157006Y0197208D02*
X0155024Y0197208D01*
X0155315Y0198207D02*
X0156715Y0198207D01*
X0156715Y0199205D02*
X0155315Y0199205D01*
X0155315Y0200204D02*
X0156715Y0200204D01*
X0156715Y0201202D02*
X0155315Y0201202D01*
X0155315Y0202201D02*
X0156715Y0202201D01*
X0156715Y0203199D02*
X0155315Y0203199D01*
X0155315Y0204198D02*
X0156715Y0204198D01*
X0156715Y0205196D02*
X0155315Y0205196D01*
X0155244Y0206195D02*
X0156786Y0206195D01*
X0157200Y0207193D02*
X0154830Y0207193D01*
X0147200Y0207193D02*
X0144830Y0207193D01*
X0145244Y0206195D02*
X0146786Y0206195D01*
X0146715Y0205196D02*
X0145315Y0205196D01*
X0145315Y0204198D02*
X0146715Y0204198D01*
X0146715Y0203199D02*
X0145315Y0203199D01*
X0145315Y0202201D02*
X0146715Y0202201D01*
X0146715Y0201202D02*
X0145315Y0201202D01*
X0145315Y0200204D02*
X0146715Y0200204D01*
X0146715Y0199205D02*
X0145315Y0199205D01*
X0145315Y0198207D02*
X0146715Y0198207D01*
X0147006Y0197208D02*
X0145024Y0197208D01*
X0144539Y0196210D02*
X0147491Y0196210D01*
X0148490Y0195211D02*
X0143540Y0195211D01*
X0138490Y0195211D02*
X0133540Y0195211D01*
X0134539Y0196210D02*
X0137491Y0196210D01*
X0137006Y0197208D02*
X0135024Y0197208D01*
X0135315Y0198207D02*
X0136715Y0198207D01*
X0136715Y0199205D02*
X0135315Y0199205D01*
X0135315Y0200204D02*
X0136715Y0200204D01*
X0136715Y0201202D02*
X0135315Y0201202D01*
X0135315Y0202201D02*
X0136715Y0202201D01*
X0136715Y0203199D02*
X0135315Y0203199D01*
X0135315Y0204198D02*
X0136715Y0204198D01*
X0136715Y0205196D02*
X0135315Y0205196D01*
X0135244Y0206195D02*
X0136786Y0206195D01*
X0137200Y0207193D02*
X0134830Y0207193D01*
X0127200Y0207193D02*
X0124830Y0207193D01*
X0125244Y0206195D02*
X0126786Y0206195D01*
X0126715Y0205196D02*
X0125315Y0205196D01*
X0125315Y0204198D02*
X0126715Y0204198D01*
X0126715Y0203199D02*
X0125315Y0203199D01*
X0125315Y0202201D02*
X0126715Y0202201D01*
X0126715Y0201202D02*
X0125315Y0201202D01*
X0125315Y0200204D02*
X0126715Y0200204D01*
X0126715Y0199205D02*
X0125315Y0199205D01*
X0125315Y0198207D02*
X0126715Y0198207D01*
X0127006Y0197208D02*
X0125024Y0197208D01*
X0124539Y0196210D02*
X0127491Y0196210D01*
X0128490Y0195211D02*
X0123540Y0195211D01*
X0118490Y0195211D02*
X0108883Y0195211D01*
X0109562Y0196210D02*
X0117491Y0196210D01*
X0117006Y0197208D02*
X0109976Y0197208D01*
X0109991Y0198207D02*
X0116715Y0198207D01*
X0116715Y0199205D02*
X0109991Y0199205D01*
X0109991Y0200204D02*
X0116715Y0200204D01*
X0116715Y0201202D02*
X0109991Y0201202D01*
X0109991Y0202201D02*
X0116715Y0202201D01*
X0116715Y0203199D02*
X0109991Y0203199D01*
X0109991Y0204198D02*
X0116715Y0204198D01*
X0116715Y0205196D02*
X0109991Y0205196D01*
X0109644Y0206195D02*
X0116786Y0206195D01*
X0117200Y0207193D02*
X0109079Y0207193D01*
X0212052Y0194213D02*
X0219960Y0194213D01*
X0218147Y0195211D02*
X0213865Y0195211D01*
X0214739Y0196210D02*
X0217273Y0196210D01*
X0216859Y0197208D02*
X0215153Y0197208D01*
X0215306Y0198207D02*
X0216706Y0198207D01*
X0216706Y0199205D02*
X0215306Y0199205D01*
X0215306Y0200204D02*
X0216706Y0200204D01*
X0216706Y0201202D02*
X0215306Y0201202D01*
X0215306Y0202201D02*
X0216706Y0202201D01*
X0216706Y0203199D02*
X0215306Y0203199D01*
X0215306Y0204198D02*
X0216706Y0204198D01*
X0216706Y0205196D02*
X0215306Y0205196D01*
X0215096Y0206195D02*
X0216916Y0206195D01*
X0217329Y0207193D02*
X0214683Y0207193D01*
X0224683Y0207193D02*
X0227329Y0207193D01*
X0226916Y0206195D02*
X0225096Y0206195D01*
X0225306Y0205196D02*
X0226706Y0205196D01*
X0226706Y0204198D02*
X0225306Y0204198D01*
X0225306Y0203199D02*
X0226706Y0203199D01*
X0226706Y0202201D02*
X0225306Y0202201D01*
X0225306Y0201202D02*
X0226706Y0201202D01*
X0226706Y0200204D02*
X0225306Y0200204D01*
X0225306Y0199205D02*
X0226706Y0199205D01*
X0226706Y0198207D02*
X0225306Y0198207D01*
X0225153Y0197208D02*
X0226859Y0197208D01*
X0227273Y0196210D02*
X0224739Y0196210D01*
X0223865Y0195211D02*
X0228147Y0195211D01*
X0229960Y0194213D02*
X0222052Y0194213D01*
X0232052Y0194213D02*
X0239960Y0194213D01*
X0238147Y0195211D02*
X0233865Y0195211D01*
X0234739Y0196210D02*
X0237273Y0196210D01*
X0236859Y0197208D02*
X0235153Y0197208D01*
X0235306Y0198207D02*
X0236706Y0198207D01*
X0236706Y0199205D02*
X0235306Y0199205D01*
X0235306Y0200204D02*
X0236706Y0200204D01*
X0236706Y0201202D02*
X0235306Y0201202D01*
X0235306Y0202201D02*
X0236706Y0202201D01*
X0236706Y0203199D02*
X0235306Y0203199D01*
X0235306Y0204198D02*
X0236706Y0204198D01*
X0236706Y0205196D02*
X0235306Y0205196D01*
X0235096Y0206195D02*
X0236916Y0206195D01*
X0237329Y0207193D02*
X0234683Y0207193D01*
X0244683Y0207193D02*
X0247329Y0207193D01*
X0246916Y0206195D02*
X0245096Y0206195D01*
X0245306Y0205196D02*
X0246706Y0205196D01*
X0246706Y0204198D02*
X0245306Y0204198D01*
X0245306Y0203199D02*
X0246706Y0203199D01*
X0246706Y0202201D02*
X0245306Y0202201D01*
X0245306Y0201202D02*
X0246706Y0201202D01*
X0246706Y0200204D02*
X0245306Y0200204D01*
X0245306Y0199205D02*
X0246706Y0199205D01*
X0246706Y0198207D02*
X0245306Y0198207D01*
X0245153Y0197208D02*
X0246859Y0197208D01*
X0247273Y0196210D02*
X0244739Y0196210D01*
X0243865Y0195211D02*
X0248147Y0195211D01*
X0249960Y0194213D02*
X0242052Y0194213D01*
X0252052Y0194213D02*
X0259960Y0194213D01*
X0258147Y0195211D02*
X0253865Y0195211D01*
X0254739Y0196210D02*
X0257273Y0196210D01*
X0256859Y0197208D02*
X0255153Y0197208D01*
X0255306Y0198207D02*
X0256706Y0198207D01*
X0256706Y0199205D02*
X0255306Y0199205D01*
X0255306Y0200204D02*
X0256706Y0200204D01*
X0256706Y0201202D02*
X0255306Y0201202D01*
X0255306Y0202201D02*
X0256706Y0202201D01*
X0256706Y0203199D02*
X0255306Y0203199D01*
X0255306Y0204198D02*
X0256706Y0204198D01*
X0256706Y0205196D02*
X0255306Y0205196D01*
X0255096Y0206195D02*
X0256916Y0206195D01*
X0257329Y0207193D02*
X0254683Y0207193D01*
X0264683Y0207193D02*
X0267329Y0207193D01*
X0266916Y0206195D02*
X0265096Y0206195D01*
X0265306Y0205196D02*
X0266706Y0205196D01*
X0266706Y0204198D02*
X0265306Y0204198D01*
X0265306Y0203199D02*
X0266706Y0203199D01*
X0266706Y0202201D02*
X0265306Y0202201D01*
X0265306Y0201202D02*
X0266706Y0201202D01*
X0266706Y0200204D02*
X0265306Y0200204D01*
X0265306Y0199205D02*
X0266706Y0199205D01*
X0266706Y0198207D02*
X0265306Y0198207D01*
X0265153Y0197208D02*
X0266859Y0197208D01*
X0267273Y0196210D02*
X0264739Y0196210D01*
X0263865Y0195211D02*
X0268147Y0195211D01*
X0269960Y0194213D02*
X0262052Y0194213D01*
X0272052Y0194213D02*
X0279960Y0194213D01*
X0278147Y0195211D02*
X0273865Y0195211D01*
X0274739Y0196210D02*
X0277273Y0196210D01*
X0276859Y0197208D02*
X0275153Y0197208D01*
X0275306Y0198207D02*
X0276706Y0198207D01*
X0276706Y0199205D02*
X0275306Y0199205D01*
X0275306Y0200204D02*
X0276706Y0200204D01*
X0276706Y0201202D02*
X0275306Y0201202D01*
X0275306Y0202201D02*
X0276706Y0202201D01*
X0276706Y0203199D02*
X0275306Y0203199D01*
X0275306Y0204198D02*
X0276706Y0204198D01*
X0276706Y0205196D02*
X0275306Y0205196D01*
X0275096Y0206195D02*
X0276916Y0206195D01*
X0277329Y0207193D02*
X0274683Y0207193D01*
X0284683Y0207193D02*
X0403201Y0207193D01*
X0403201Y0206195D02*
X0285096Y0206195D01*
X0285306Y0205196D02*
X0308877Y0205196D01*
X0307878Y0204198D02*
X0285306Y0204198D01*
X0285306Y0203199D02*
X0306900Y0203199D01*
X0306900Y0202201D02*
X0285306Y0202201D01*
X0285306Y0201202D02*
X0306900Y0201202D01*
X0306900Y0200204D02*
X0285306Y0200204D01*
X0285306Y0199205D02*
X0307353Y0199205D01*
X0308352Y0198207D02*
X0285306Y0198207D01*
X0285153Y0197208D02*
X0297945Y0197208D01*
X0297900Y0196210D02*
X0284739Y0196210D01*
X0283865Y0195211D02*
X0297900Y0195211D01*
X0297900Y0194213D02*
X0282052Y0194213D01*
X0301100Y0194213D02*
X0307893Y0194213D01*
X0306900Y0193214D02*
X0301100Y0193214D01*
X0301100Y0192216D02*
X0306900Y0192216D01*
X0306900Y0191217D02*
X0301100Y0191217D01*
X0301100Y0190219D02*
X0306900Y0190219D01*
X0307338Y0189220D02*
X0301100Y0189220D01*
X0301100Y0188222D02*
X0308337Y0188222D01*
X0309335Y0187223D02*
X0301100Y0187223D01*
X0301100Y0186225D02*
X0337067Y0186225D01*
X0336155Y0187223D02*
X0323066Y0187223D01*
X0324064Y0188222D02*
X0335741Y0188222D01*
X0335439Y0189220D02*
X0325063Y0189220D01*
X0325500Y0190219D02*
X0335439Y0190219D01*
X0335538Y0191217D02*
X0325500Y0191217D01*
X0325500Y0192216D02*
X0335952Y0192216D01*
X0336576Y0193214D02*
X0325500Y0193214D01*
X0324508Y0194213D02*
X0337575Y0194213D01*
X0340539Y0189965D02*
X0347035Y0189965D01*
X0351500Y0185500D01*
X0351500Y0184500D01*
X0353500Y0182500D01*
X0355897Y0181232D02*
X0368924Y0181232D01*
X0368924Y0180234D02*
X0355052Y0180234D01*
X0356200Y0182231D02*
X0368924Y0182231D01*
X0368924Y0183229D02*
X0356120Y0183229D01*
X0355591Y0184228D02*
X0368924Y0184228D01*
X0368652Y0185226D02*
X0353100Y0185226D01*
X0353038Y0186225D02*
X0367067Y0186225D01*
X0366155Y0187223D02*
X0352040Y0187223D01*
X0351041Y0188222D02*
X0365741Y0188222D01*
X0360517Y0189220D02*
X0350043Y0189220D01*
X0349044Y0190219D02*
X0357963Y0190219D01*
X0357109Y0191217D02*
X0348046Y0191217D01*
X0345127Y0192216D02*
X0356800Y0192216D01*
X0356523Y0193214D02*
X0344502Y0193214D01*
X0343504Y0194213D02*
X0355525Y0194213D01*
X0358053Y0196210D02*
X0403201Y0196210D01*
X0403201Y0197208D02*
X0357055Y0197208D01*
X0359052Y0195211D02*
X0403201Y0195211D01*
X0403201Y0194213D02*
X0373504Y0194213D01*
X0374502Y0193214D02*
X0403201Y0193214D01*
X0403201Y0192216D02*
X0375127Y0192216D01*
X0375541Y0191217D02*
X0403201Y0191217D01*
X0403201Y0190219D02*
X0375639Y0190219D01*
X0375639Y0189220D02*
X0403201Y0189220D01*
X0403201Y0188222D02*
X0375338Y0188222D01*
X0374924Y0187223D02*
X0403201Y0187223D01*
X0403201Y0186225D02*
X0374012Y0186225D01*
X0372427Y0185226D02*
X0403201Y0185226D01*
X0403201Y0184228D02*
X0372124Y0184228D01*
X0372124Y0183229D02*
X0403201Y0183229D01*
X0403201Y0182231D02*
X0372124Y0182231D01*
X0372124Y0181232D02*
X0403201Y0181232D01*
X0403201Y0180234D02*
X0372124Y0180234D01*
X0372124Y0179235D02*
X0403201Y0179235D01*
X0403201Y0178237D02*
X0373811Y0178237D01*
X0374809Y0177238D02*
X0403201Y0177238D01*
X0368924Y0179235D02*
X0341963Y0179235D01*
X0343811Y0178237D02*
X0367237Y0178237D01*
X0366238Y0177238D02*
X0344809Y0177238D01*
X0345245Y0176239D02*
X0365802Y0176239D01*
X0365424Y0175241D02*
X0345624Y0175241D01*
X0345624Y0174242D02*
X0365424Y0174242D01*
X0365445Y0173244D02*
X0345602Y0173244D01*
X0345188Y0172245D02*
X0365859Y0172245D01*
X0366375Y0171247D02*
X0344672Y0171247D01*
X0343673Y0170248D02*
X0367374Y0170248D01*
X0351948Y0180234D02*
X0325500Y0180234D01*
X0325500Y0179658D02*
X0322982Y0177139D01*
X0319419Y0177139D01*
X0316900Y0179658D01*
X0316900Y0183220D01*
X0319419Y0185739D01*
X0322982Y0185739D01*
X0325500Y0183220D01*
X0325500Y0179658D01*
X0325078Y0179235D02*
X0339084Y0179235D01*
X0337237Y0178237D02*
X0324079Y0178237D01*
X0323081Y0177238D02*
X0336238Y0177238D01*
X0335802Y0176239D02*
X0301100Y0176239D01*
X0301100Y0177238D02*
X0309320Y0177238D01*
X0309419Y0177139D02*
X0312982Y0177139D01*
X0315500Y0179658D01*
X0315500Y0183220D01*
X0312982Y0185739D01*
X0309419Y0185739D01*
X0306900Y0183220D01*
X0306900Y0179658D01*
X0309419Y0177139D01*
X0309419Y0175739D02*
X0306900Y0173220D01*
X0306900Y0169658D01*
X0309419Y0167139D01*
X0312982Y0167139D01*
X0315500Y0169658D01*
X0315500Y0173220D01*
X0312982Y0175739D01*
X0309419Y0175739D01*
X0308921Y0175241D02*
X0300504Y0175241D01*
X0299505Y0174242D02*
X0307923Y0174242D01*
X0306924Y0173244D02*
X0298507Y0173244D01*
X0297508Y0172245D02*
X0306900Y0172245D01*
X0306900Y0171247D02*
X0296510Y0171247D01*
X0295511Y0170248D02*
X0306900Y0170248D01*
X0307309Y0169250D02*
X0294513Y0169250D01*
X0293514Y0168251D02*
X0308307Y0168251D01*
X0309306Y0167253D02*
X0292516Y0167253D01*
X0291517Y0166254D02*
X0338892Y0166254D01*
X0338892Y0165256D02*
X0323465Y0165256D01*
X0324463Y0164257D02*
X0338892Y0164257D01*
X0338892Y0163259D02*
X0325462Y0163259D01*
X0325500Y0162260D02*
X0338892Y0162260D01*
X0337215Y0161262D02*
X0325500Y0161262D01*
X0325500Y0160263D02*
X0336216Y0160263D01*
X0335775Y0159265D02*
X0325107Y0159265D01*
X0324109Y0158266D02*
X0335392Y0158266D01*
X0339665Y0156500D02*
X0297500Y0156500D01*
X0166500Y0025500D01*
X0153500Y0025500D01*
X0151013Y0023013D01*
X0151013Y0010986D01*
X0155313Y0011485D02*
X0156713Y0011485D01*
X0156713Y0010487D02*
X0155313Y0010487D01*
X0155313Y0009488D02*
X0156713Y0009488D01*
X0156713Y0008490D02*
X0155313Y0008490D01*
X0155313Y0007491D02*
X0156713Y0007491D01*
X0156895Y0006493D02*
X0155131Y0006493D01*
X0154718Y0005494D02*
X0157308Y0005494D01*
X0158222Y0004496D02*
X0153804Y0004496D01*
X0148222Y0004496D02*
X0143804Y0004496D01*
X0144718Y0005494D02*
X0147308Y0005494D01*
X0146895Y0006493D02*
X0145131Y0006493D01*
X0145313Y0007491D02*
X0146713Y0007491D01*
X0146713Y0008490D02*
X0145313Y0008490D01*
X0145313Y0009488D02*
X0146713Y0009488D01*
X0146713Y0010487D02*
X0145313Y0010487D01*
X0145313Y0011485D02*
X0146713Y0011485D01*
X0146713Y0012484D02*
X0145313Y0012484D01*
X0145313Y0013482D02*
X0146713Y0013482D01*
X0146713Y0014481D02*
X0145313Y0014481D01*
X0145132Y0015479D02*
X0146894Y0015479D01*
X0147308Y0016478D02*
X0145100Y0016478D01*
X0145100Y0017476D02*
X0148222Y0017476D01*
X0149413Y0018475D02*
X0145100Y0018475D01*
X0145100Y0019473D02*
X0149413Y0019473D01*
X0149413Y0020472D02*
X0145100Y0020472D01*
X0145100Y0021470D02*
X0149413Y0021470D01*
X0149413Y0022469D02*
X0145100Y0022469D01*
X0145286Y0023467D02*
X0149413Y0023467D01*
X0150203Y0024466D02*
X0145994Y0024466D01*
X0146200Y0025464D02*
X0151202Y0025464D01*
X0150350Y0024613D02*
X0150350Y0024613D01*
X0152200Y0026463D02*
X0146024Y0026463D01*
X0145357Y0027461D02*
X0166199Y0027461D01*
X0167197Y0028460D02*
X0130425Y0028460D01*
X0131424Y0029458D02*
X0168196Y0029458D01*
X0169194Y0030457D02*
X0132422Y0030457D01*
X0132203Y0032500D02*
X0166500Y0032500D01*
X0214500Y0080500D01*
X0214500Y0081500D01*
X0216440Y0083378D02*
X0222115Y0083378D01*
X0221117Y0082379D02*
X0217058Y0082379D01*
X0217200Y0081381D02*
X0220118Y0081381D01*
X0219120Y0080382D02*
X0216960Y0080382D01*
X0216202Y0079384D02*
X0218121Y0079384D01*
X0217123Y0078385D02*
X0214648Y0078385D01*
X0213650Y0077387D02*
X0216124Y0077387D01*
X0215126Y0076388D02*
X0212651Y0076388D01*
X0211653Y0075390D02*
X0214127Y0075390D01*
X0213129Y0074391D02*
X0210654Y0074391D01*
X0209656Y0073393D02*
X0212130Y0073393D01*
X0211132Y0072394D02*
X0208657Y0072394D01*
X0207659Y0071396D02*
X0210133Y0071396D01*
X0209135Y0070397D02*
X0206660Y0070397D01*
X0205661Y0069399D02*
X0208136Y0069399D01*
X0207138Y0068400D02*
X0204663Y0068400D01*
X0203664Y0067402D02*
X0206139Y0067402D01*
X0205141Y0066403D02*
X0202666Y0066403D01*
X0201667Y0065405D02*
X0204142Y0065405D01*
X0203143Y0064406D02*
X0200669Y0064406D01*
X0199670Y0063408D02*
X0202145Y0063408D01*
X0201146Y0062409D02*
X0198672Y0062409D01*
X0197673Y0061411D02*
X0200148Y0061411D01*
X0199149Y0060412D02*
X0196675Y0060412D01*
X0195676Y0059414D02*
X0198151Y0059414D01*
X0197152Y0058415D02*
X0194678Y0058415D01*
X0193679Y0057417D02*
X0196154Y0057417D01*
X0195155Y0056418D02*
X0192681Y0056418D01*
X0191682Y0055420D02*
X0194157Y0055420D01*
X0193158Y0054421D02*
X0190684Y0054421D01*
X0189685Y0053423D02*
X0192160Y0053423D01*
X0191161Y0052424D02*
X0188687Y0052424D01*
X0187688Y0051426D02*
X0190163Y0051426D01*
X0189164Y0050427D02*
X0186690Y0050427D01*
X0185691Y0049429D02*
X0188166Y0049429D01*
X0187167Y0048430D02*
X0184693Y0048430D01*
X0183694Y0047432D02*
X0186169Y0047432D01*
X0185170Y0046433D02*
X0182696Y0046433D01*
X0181697Y0045434D02*
X0184172Y0045434D01*
X0183173Y0044436D02*
X0180699Y0044436D01*
X0179700Y0043437D02*
X0182175Y0043437D01*
X0181176Y0042439D02*
X0178702Y0042439D01*
X0177703Y0041440D02*
X0180178Y0041440D01*
X0179179Y0040442D02*
X0176705Y0040442D01*
X0175706Y0039443D02*
X0178181Y0039443D01*
X0177182Y0038445D02*
X0174708Y0038445D01*
X0173709Y0037446D02*
X0176184Y0037446D01*
X0175185Y0036448D02*
X0172711Y0036448D01*
X0171712Y0035449D02*
X0174187Y0035449D01*
X0173188Y0034451D02*
X0170714Y0034451D01*
X0169715Y0033452D02*
X0172190Y0033452D01*
X0171191Y0032454D02*
X0168717Y0032454D01*
X0167718Y0031455D02*
X0170193Y0031455D01*
X0172721Y0029458D02*
X0307100Y0029458D01*
X0306900Y0029658D02*
X0309419Y0027139D01*
X0312982Y0027139D01*
X0315500Y0029658D01*
X0315500Y0029839D01*
X0316900Y0029839D01*
X0316900Y0029658D01*
X0319419Y0027139D01*
X0322982Y0027139D01*
X0325500Y0029658D01*
X0325500Y0033220D01*
X0322982Y0035739D01*
X0319419Y0035739D01*
X0316900Y0033220D01*
X0316900Y0033039D01*
X0315500Y0033039D01*
X0315500Y0033220D01*
X0312982Y0035739D01*
X0309419Y0035739D01*
X0306900Y0033220D01*
X0306900Y0029658D01*
X0306900Y0030457D02*
X0173720Y0030457D01*
X0174718Y0031455D02*
X0306900Y0031455D01*
X0306900Y0032454D02*
X0175717Y0032454D01*
X0176715Y0033452D02*
X0307133Y0033452D01*
X0308131Y0034451D02*
X0177714Y0034451D01*
X0178712Y0035449D02*
X0309130Y0035449D01*
X0309419Y0037139D02*
X0312982Y0037139D01*
X0315500Y0039658D01*
X0315500Y0043220D01*
X0312982Y0045739D01*
X0309419Y0045739D01*
X0306900Y0043220D01*
X0306900Y0039658D01*
X0309419Y0037139D01*
X0309112Y0037446D02*
X0180709Y0037446D01*
X0179711Y0036448D02*
X0403201Y0036448D01*
X0403201Y0037446D02*
X0323289Y0037446D01*
X0324287Y0038445D02*
X0403201Y0038445D01*
X0403201Y0039443D02*
X0325286Y0039443D01*
X0325500Y0040442D02*
X0403201Y0040442D01*
X0403201Y0041440D02*
X0325500Y0041440D01*
X0325500Y0042439D02*
X0403201Y0042439D01*
X0403201Y0043437D02*
X0325462Y0043437D01*
X0326460Y0044436D02*
X0403201Y0044436D01*
X0403201Y0045434D02*
X0327459Y0045434D01*
X0328457Y0046433D02*
X0403201Y0046433D01*
X0403201Y0047432D02*
X0329456Y0047432D01*
X0330454Y0048430D02*
X0403201Y0048430D01*
X0403201Y0049429D02*
X0331453Y0049429D01*
X0332451Y0050427D02*
X0403201Y0050427D01*
X0403201Y0051426D02*
X0333450Y0051426D01*
X0334448Y0052424D02*
X0403201Y0052424D01*
X0403201Y0053423D02*
X0335447Y0053423D01*
X0336445Y0054421D02*
X0403201Y0054421D01*
X0403201Y0055420D02*
X0337444Y0055420D01*
X0338442Y0056418D02*
X0403201Y0056418D01*
X0403201Y0057417D02*
X0339441Y0057417D01*
X0340439Y0058415D02*
X0403201Y0058415D01*
X0403201Y0059414D02*
X0341438Y0059414D01*
X0341261Y0061500D02*
X0359500Y0061500D01*
X0370000Y0072000D01*
X0370000Y0086000D01*
X0368185Y0087815D01*
X0361340Y0087815D01*
X0361340Y0085315D02*
X0366685Y0085315D01*
X0366685Y0084815D01*
X0368000Y0083500D01*
X0368000Y0076000D01*
X0366500Y0074500D01*
X0366500Y0071500D01*
X0360500Y0065500D01*
X0335261Y0065500D01*
X0321200Y0051439D01*
X0316900Y0051426D02*
X0315500Y0051426D01*
X0315500Y0052424D02*
X0316900Y0052424D01*
X0317103Y0053423D02*
X0315298Y0053423D01*
X0315500Y0053220D02*
X0312982Y0055739D01*
X0309419Y0055739D01*
X0306900Y0053220D01*
X0306900Y0049658D01*
X0309419Y0047139D01*
X0312982Y0047139D01*
X0315500Y0049658D01*
X0315500Y0053220D01*
X0314300Y0054421D02*
X0318101Y0054421D01*
X0319100Y0055420D02*
X0313301Y0055420D01*
X0312982Y0057139D02*
X0315500Y0059658D01*
X0315500Y0063220D01*
X0312982Y0065739D01*
X0309419Y0065739D01*
X0306900Y0063220D01*
X0306900Y0059658D01*
X0309419Y0057139D01*
X0312982Y0057139D01*
X0313259Y0057417D02*
X0319142Y0057417D01*
X0318143Y0058415D02*
X0314258Y0058415D01*
X0315256Y0059414D02*
X0317145Y0059414D01*
X0316900Y0060412D02*
X0315500Y0060412D01*
X0315500Y0061411D02*
X0316900Y0061411D01*
X0316900Y0062409D02*
X0315500Y0062409D01*
X0315313Y0063408D02*
X0317088Y0063408D01*
X0318087Y0064406D02*
X0314314Y0064406D01*
X0313316Y0065405D02*
X0319085Y0065405D01*
X0319157Y0067402D02*
X0313244Y0067402D01*
X0312982Y0067139D02*
X0315500Y0069658D01*
X0315500Y0073220D01*
X0312982Y0075739D01*
X0309419Y0075739D01*
X0306900Y0073220D01*
X0306900Y0069658D01*
X0309419Y0067139D01*
X0312982Y0067139D01*
X0314243Y0068400D02*
X0318158Y0068400D01*
X0317160Y0069399D02*
X0315241Y0069399D01*
X0315500Y0070397D02*
X0316900Y0070397D01*
X0316900Y0071396D02*
X0315500Y0071396D01*
X0315500Y0072394D02*
X0316900Y0072394D01*
X0317073Y0073393D02*
X0315328Y0073393D01*
X0314329Y0074391D02*
X0318072Y0074391D01*
X0319070Y0075390D02*
X0313331Y0075390D01*
X0313229Y0077387D02*
X0319172Y0077387D01*
X0318173Y0078385D02*
X0314228Y0078385D01*
X0315226Y0079384D02*
X0317175Y0079384D01*
X0316900Y0080382D02*
X0315500Y0080382D01*
X0315500Y0081381D02*
X0316900Y0081381D01*
X0316900Y0082379D02*
X0315500Y0082379D01*
X0315343Y0083378D02*
X0317058Y0083378D01*
X0318057Y0084376D02*
X0314344Y0084376D01*
X0321200Y0081439D02*
X0323561Y0081439D01*
X0329500Y0075500D01*
X0334425Y0075500D01*
X0339140Y0080215D01*
X0339573Y0078385D02*
X0359740Y0078385D01*
X0359740Y0077387D02*
X0338575Y0077387D01*
X0337576Y0076388D02*
X0359740Y0076388D01*
X0359740Y0075390D02*
X0336578Y0075390D01*
X0335579Y0074391D02*
X0359129Y0074391D01*
X0358130Y0073393D02*
X0325328Y0073393D01*
X0324329Y0074391D02*
X0328346Y0074391D01*
X0327347Y0075390D02*
X0323331Y0075390D01*
X0323229Y0077387D02*
X0325350Y0077387D01*
X0324352Y0078385D02*
X0324228Y0078385D01*
X0326349Y0076388D02*
X0219651Y0076388D01*
X0218653Y0075390D02*
X0309070Y0075390D01*
X0308072Y0074391D02*
X0217654Y0074391D01*
X0216656Y0073393D02*
X0307073Y0073393D01*
X0306900Y0072394D02*
X0215657Y0072394D01*
X0214659Y0071396D02*
X0306900Y0071396D01*
X0306900Y0070397D02*
X0213660Y0070397D01*
X0212662Y0069399D02*
X0307160Y0069399D01*
X0308158Y0068400D02*
X0211663Y0068400D01*
X0210664Y0067402D02*
X0309157Y0067402D01*
X0309085Y0065405D02*
X0208667Y0065405D01*
X0207669Y0064406D02*
X0308087Y0064406D01*
X0307088Y0063408D02*
X0206670Y0063408D01*
X0205672Y0062409D02*
X0306900Y0062409D01*
X0306900Y0061411D02*
X0204673Y0061411D01*
X0203675Y0060412D02*
X0306900Y0060412D01*
X0307145Y0059414D02*
X0202676Y0059414D01*
X0201678Y0058415D02*
X0308143Y0058415D01*
X0309142Y0057417D02*
X0200679Y0057417D01*
X0199681Y0056418D02*
X0323917Y0056418D01*
X0323259Y0057417D02*
X0324915Y0057417D01*
X0324258Y0058415D02*
X0325914Y0058415D01*
X0325256Y0059414D02*
X0326912Y0059414D01*
X0327911Y0060412D02*
X0325500Y0060412D01*
X0325500Y0061411D02*
X0328909Y0061411D01*
X0329908Y0062409D02*
X0325500Y0062409D01*
X0325432Y0063408D02*
X0330906Y0063408D01*
X0331905Y0064406D02*
X0326430Y0064406D01*
X0327429Y0065405D02*
X0332903Y0065405D01*
X0333902Y0066403D02*
X0328427Y0066403D01*
X0329426Y0067402D02*
X0360139Y0067402D01*
X0360500Y0069500D02*
X0363500Y0072500D01*
X0363500Y0075500D01*
X0366000Y0078000D01*
X0366000Y0081500D01*
X0365000Y0082500D01*
X0363500Y0082500D01*
X0363285Y0082715D01*
X0361340Y0082715D01*
X0357340Y0082379D02*
X0343140Y0082379D01*
X0343130Y0081381D02*
X0357350Y0081381D01*
X0357340Y0080382D02*
X0343140Y0080382D01*
X0343140Y0079384D02*
X0357340Y0079384D01*
X0361340Y0080215D02*
X0361340Y0074340D01*
X0358500Y0071500D01*
X0321261Y0071500D01*
X0321200Y0071439D01*
X0324243Y0068400D02*
X0325899Y0068400D01*
X0325241Y0069399D02*
X0326897Y0069399D01*
X0329261Y0069500D02*
X0360500Y0069500D01*
X0364669Y0064406D02*
X0403201Y0064406D01*
X0403201Y0063408D02*
X0363670Y0063408D01*
X0362672Y0062409D02*
X0403201Y0062409D01*
X0403201Y0061411D02*
X0361673Y0061411D01*
X0360675Y0060412D02*
X0403201Y0060412D01*
X0403201Y0065405D02*
X0365667Y0065405D01*
X0366666Y0066403D02*
X0403201Y0066403D01*
X0403201Y0067402D02*
X0367664Y0067402D01*
X0368663Y0068400D02*
X0403201Y0068400D01*
X0403201Y0069399D02*
X0369662Y0069399D01*
X0370660Y0070397D02*
X0387376Y0070397D01*
X0387376Y0070155D02*
X0388021Y0069510D01*
X0397593Y0069510D01*
X0398238Y0070155D01*
X0398238Y0078152D01*
X0397593Y0078797D01*
X0388021Y0078797D01*
X0387376Y0078152D01*
X0387376Y0070155D01*
X0387376Y0071396D02*
X0371600Y0071396D01*
X0371600Y0072394D02*
X0387376Y0072394D01*
X0387376Y0073393D02*
X0371600Y0073393D01*
X0371600Y0074391D02*
X0387376Y0074391D01*
X0387376Y0075390D02*
X0371600Y0075390D01*
X0371600Y0076388D02*
X0387376Y0076388D01*
X0387376Y0077387D02*
X0371600Y0077387D01*
X0371600Y0078385D02*
X0387609Y0078385D01*
X0383671Y0079384D02*
X0403201Y0079384D01*
X0403201Y0080382D02*
X0383671Y0080382D01*
X0386500Y0082500D02*
X0380287Y0082500D01*
X0380012Y0082224D01*
X0380012Y0080256D02*
X0373244Y0080256D01*
X0372000Y0081500D01*
X0372000Y0087000D01*
X0368500Y0090500D01*
X0361425Y0090500D01*
X0361340Y0090415D01*
X0361355Y0093000D02*
X0369000Y0093000D01*
X0373700Y0088300D01*
X0373700Y0086300D01*
X0375807Y0084193D01*
X0380012Y0084193D01*
X0380173Y0086000D02*
X0386500Y0086000D01*
X0386500Y0090000D01*
X0380110Y0090000D01*
X0380012Y0090098D01*
X0380012Y0088130D02*
X0375630Y0088130D01*
X0375500Y0088000D01*
X0375500Y0089500D01*
X0369500Y0095500D01*
X0361355Y0095500D01*
X0361340Y0095515D01*
X0361455Y0098000D02*
X0369500Y0098000D01*
X0375433Y0092067D01*
X0380012Y0092067D01*
X0380047Y0094000D02*
X0386500Y0094000D01*
X0386500Y0098000D01*
X0380039Y0098000D01*
X0380012Y0097972D01*
X0380012Y0096004D02*
X0374504Y0096004D01*
X0374500Y0096000D01*
X0370000Y0100500D01*
X0361455Y0100500D01*
X0361340Y0100615D01*
X0361555Y0103000D02*
X0370000Y0103000D01*
X0373059Y0099941D01*
X0380012Y0099941D01*
X0380012Y0101909D02*
X0380102Y0102000D01*
X0386500Y0102000D01*
X0386500Y0106000D01*
X0380165Y0106000D01*
X0380012Y0105846D01*
X0380012Y0103878D02*
X0371622Y0103878D01*
X0369500Y0106000D01*
X0361525Y0106000D01*
X0361340Y0105815D01*
X0361655Y0108000D02*
X0371000Y0108000D01*
X0371185Y0107815D01*
X0380012Y0107815D01*
X0380012Y0109783D02*
X0380228Y0110000D01*
X0386500Y0110000D01*
X0386500Y0113500D01*
X0380232Y0113500D01*
X0380012Y0113720D01*
X0380012Y0111752D02*
X0375248Y0111752D01*
X0373500Y0113500D01*
X0368500Y0113500D01*
X0367500Y0114500D01*
X0367500Y0117500D01*
X0362500Y0122500D01*
X0350500Y0122500D01*
X0349500Y0121500D01*
X0349500Y0090500D01*
X0346500Y0087500D01*
X0339455Y0087500D01*
X0339140Y0087815D01*
X0339325Y0085500D02*
X0347500Y0085500D01*
X0351500Y0089500D01*
X0351500Y0109500D01*
X0352915Y0110915D01*
X0361340Y0110915D01*
X0361425Y0111000D01*
X0372500Y0111000D01*
X0373717Y0109783D01*
X0380012Y0109783D01*
X0383671Y0108400D02*
X0383671Y0107600D01*
X0384900Y0107600D01*
X0384900Y0108400D01*
X0383671Y0108400D01*
X0383671Y0108341D02*
X0384900Y0108341D01*
X0386500Y0110000D02*
X0386500Y0106000D01*
X0388100Y0106344D02*
X0403201Y0106344D01*
X0403201Y0107342D02*
X0388100Y0107342D01*
X0388100Y0108341D02*
X0403201Y0108341D01*
X0403201Y0109339D02*
X0388100Y0109339D01*
X0388100Y0110338D02*
X0403201Y0110338D01*
X0403201Y0111336D02*
X0388100Y0111336D01*
X0388100Y0112335D02*
X0403201Y0112335D01*
X0403201Y0113333D02*
X0388100Y0113333D01*
X0388100Y0114332D02*
X0403201Y0114332D01*
X0403201Y0115330D02*
X0388100Y0115330D01*
X0388100Y0116329D02*
X0403201Y0116329D01*
X0403201Y0117327D02*
X0388100Y0117327D01*
X0388100Y0118326D02*
X0403201Y0118326D01*
X0403201Y0119324D02*
X0388100Y0119324D01*
X0388100Y0120323D02*
X0403201Y0120323D01*
X0403201Y0121321D02*
X0388100Y0121321D01*
X0388100Y0122320D02*
X0403201Y0122320D01*
X0403201Y0123318D02*
X0388100Y0123318D01*
X0388100Y0124317D02*
X0403201Y0124317D01*
X0403201Y0125315D02*
X0388100Y0125315D01*
X0388100Y0126314D02*
X0403201Y0126314D01*
X0403201Y0127312D02*
X0388100Y0127312D01*
X0388100Y0128311D02*
X0403201Y0128311D01*
X0403201Y0129309D02*
X0388100Y0129309D01*
X0388100Y0130308D02*
X0403201Y0130308D01*
X0403201Y0131306D02*
X0388100Y0131306D01*
X0388100Y0132305D02*
X0403201Y0132305D01*
X0403201Y0133303D02*
X0388100Y0133303D01*
X0388100Y0134302D02*
X0403201Y0134302D01*
X0403201Y0135301D02*
X0388100Y0135301D01*
X0388100Y0136299D02*
X0403201Y0136299D01*
X0403201Y0137298D02*
X0388100Y0137298D01*
X0388100Y0138296D02*
X0403201Y0138296D01*
X0403201Y0139295D02*
X0388100Y0139295D01*
X0388100Y0140293D02*
X0403201Y0140293D01*
X0403201Y0141292D02*
X0387971Y0141292D01*
X0384900Y0139680D02*
X0384900Y0139100D01*
X0383671Y0139100D01*
X0383671Y0139680D01*
X0384900Y0139680D01*
X0384900Y0139295D02*
X0383671Y0139295D01*
X0386500Y0137500D02*
X0386500Y0133500D01*
X0380106Y0133500D01*
X0380012Y0133406D01*
X0379949Y0131500D02*
X0373500Y0131500D01*
X0375515Y0133303D02*
X0376353Y0133303D01*
X0376353Y0133100D02*
X0376353Y0133900D01*
X0374761Y0133900D01*
X0375029Y0133789D01*
X0375718Y0133100D01*
X0376353Y0133100D01*
X0376353Y0129900D02*
X0376353Y0129100D01*
X0374761Y0129100D01*
X0375029Y0129211D01*
X0375718Y0129900D01*
X0376353Y0129900D01*
X0376353Y0129309D02*
X0375128Y0129309D01*
X0373000Y0127500D02*
X0368500Y0132000D01*
X0368500Y0133000D01*
X0371200Y0133003D02*
X0371200Y0133537D01*
X0370789Y0134529D01*
X0370418Y0134900D01*
X0372337Y0134900D01*
X0373037Y0134200D01*
X0372963Y0134200D01*
X0371971Y0133789D01*
X0371211Y0133029D01*
X0371200Y0133003D01*
X0371200Y0133303D02*
X0371485Y0133303D01*
X0370883Y0134302D02*
X0372935Y0134302D01*
X0374663Y0137100D02*
X0374600Y0137163D01*
X0374052Y0137711D01*
X0376353Y0137711D01*
X0376353Y0137100D01*
X0374663Y0137100D01*
X0374465Y0137298D02*
X0376353Y0137298D01*
X0379886Y0135500D02*
X0380012Y0135374D01*
X0383671Y0135301D02*
X0384900Y0135301D01*
X0384900Y0135100D02*
X0383671Y0135100D01*
X0383671Y0135900D01*
X0384900Y0135900D01*
X0384900Y0135100D01*
X0386500Y0133500D02*
X0386500Y0129500D01*
X0380043Y0129500D01*
X0380012Y0129469D01*
X0380012Y0131437D02*
X0379949Y0131500D01*
X0383671Y0131306D02*
X0384900Y0131306D01*
X0384900Y0131100D02*
X0383671Y0131100D01*
X0383671Y0131900D01*
X0384900Y0131900D01*
X0384900Y0131100D01*
X0386500Y0129500D02*
X0386500Y0125500D01*
X0380043Y0125500D01*
X0380012Y0125531D01*
X0380012Y0123563D02*
X0373437Y0123563D01*
X0366500Y0130500D01*
X0365500Y0130500D01*
X0365000Y0131000D01*
X0365000Y0144000D01*
X0362500Y0146500D01*
X0332000Y0146500D01*
X0326000Y0140500D01*
X0326000Y0098000D01*
X0328500Y0095500D01*
X0339125Y0095500D01*
X0339140Y0095515D01*
X0339140Y0098115D02*
X0329385Y0098115D01*
X0328000Y0099500D01*
X0328000Y0133000D01*
X0330300Y0135300D01*
X0330600Y0135300D01*
X0331400Y0136100D01*
X0359200Y0136100D01*
X0360500Y0134800D01*
X0360500Y0133500D01*
X0357992Y0134500D02*
X0357800Y0134037D01*
X0357800Y0133591D01*
X0357537Y0133700D01*
X0356463Y0133700D01*
X0355471Y0133289D01*
X0354782Y0132600D01*
X0330337Y0132600D01*
X0329837Y0132100D01*
X0329600Y0131863D01*
X0329600Y0132337D01*
X0330963Y0133700D01*
X0331263Y0133700D01*
X0332063Y0134500D01*
X0357992Y0134500D01*
X0357910Y0134302D02*
X0331865Y0134302D01*
X0330566Y0133303D02*
X0355506Y0133303D01*
X0357000Y0131000D02*
X0331000Y0131000D01*
X0330500Y0130500D01*
X0330500Y0101500D01*
X0331385Y0100615D01*
X0339140Y0100615D01*
X0338925Y0103000D02*
X0333000Y0103000D01*
X0332500Y0103500D01*
X0332500Y0125500D01*
X0333500Y0126500D01*
X0333500Y0127500D01*
X0333000Y0127000D01*
X0334100Y0124826D02*
X0334100Y0124363D01*
X0334891Y0125154D01*
X0334100Y0124826D01*
X0334500Y0122500D02*
X0337500Y0125500D01*
X0337500Y0126500D01*
X0339507Y0128311D02*
X0345048Y0128311D01*
X0345400Y0128663D02*
X0346137Y0129400D01*
X0335418Y0129400D01*
X0335789Y0129029D01*
X0335913Y0128731D01*
X0335971Y0128789D01*
X0336963Y0129200D01*
X0338037Y0129200D01*
X0339029Y0128789D01*
X0339789Y0128029D01*
X0340200Y0127037D01*
X0340200Y0125963D01*
X0339789Y0124971D01*
X0339029Y0124211D01*
X0338081Y0123818D01*
X0336100Y0121837D01*
X0336100Y0115215D01*
X0338677Y0115215D01*
X0338822Y0115360D01*
X0338211Y0115971D01*
X0337800Y0116963D01*
X0337800Y0118037D01*
X0338211Y0119029D01*
X0338971Y0119789D01*
X0339963Y0120200D01*
X0341037Y0120200D01*
X0342029Y0119789D01*
X0342789Y0119029D01*
X0343200Y0118037D01*
X0343200Y0116963D01*
X0342789Y0115971D01*
X0342100Y0115282D01*
X0342100Y0115215D01*
X0342496Y0115215D01*
X0343140Y0114571D01*
X0343140Y0112259D01*
X0343046Y0112165D01*
X0343140Y0112071D01*
X0343140Y0109759D01*
X0342996Y0109615D01*
X0343140Y0109471D01*
X0343140Y0107159D01*
X0343046Y0107065D01*
X0343140Y0106971D01*
X0343140Y0104659D01*
X0342996Y0104515D01*
X0343140Y0104371D01*
X0343140Y0102059D01*
X0342996Y0101915D01*
X0343140Y0101771D01*
X0343140Y0099459D01*
X0343046Y0099365D01*
X0343140Y0099271D01*
X0343140Y0096959D01*
X0342996Y0096815D01*
X0343140Y0096671D01*
X0343140Y0094600D01*
X0343400Y0094600D01*
X0343400Y0126663D01*
X0345400Y0128663D01*
X0346047Y0129309D02*
X0335509Y0129309D01*
X0340086Y0127312D02*
X0344050Y0127312D01*
X0343400Y0126314D02*
X0340200Y0126314D01*
X0339932Y0125315D02*
X0343400Y0125315D01*
X0343400Y0124317D02*
X0339135Y0124317D01*
X0337581Y0123318D02*
X0343400Y0123318D01*
X0343400Y0122320D02*
X0336583Y0122320D01*
X0336100Y0121321D02*
X0343400Y0121321D01*
X0343400Y0120323D02*
X0336100Y0120323D01*
X0336100Y0119324D02*
X0338506Y0119324D01*
X0337920Y0118326D02*
X0336100Y0118326D01*
X0336100Y0117327D02*
X0337800Y0117327D01*
X0338063Y0116329D02*
X0336100Y0116329D01*
X0336100Y0115330D02*
X0338793Y0115330D01*
X0340500Y0114775D02*
X0340500Y0117500D01*
X0342494Y0119324D02*
X0343400Y0119324D01*
X0343400Y0118326D02*
X0343080Y0118326D01*
X0343200Y0117327D02*
X0343400Y0117327D01*
X0343400Y0116329D02*
X0342937Y0116329D01*
X0343400Y0115330D02*
X0342149Y0115330D01*
X0343140Y0114332D02*
X0343400Y0114332D01*
X0343400Y0113333D02*
X0343140Y0113333D01*
X0343140Y0112335D02*
X0343400Y0112335D01*
X0343400Y0111336D02*
X0343140Y0111336D01*
X0343140Y0110338D02*
X0343400Y0110338D01*
X0343400Y0109339D02*
X0343140Y0109339D01*
X0343140Y0108341D02*
X0343400Y0108341D01*
X0343400Y0107342D02*
X0343140Y0107342D01*
X0343140Y0106344D02*
X0343400Y0106344D01*
X0343400Y0105345D02*
X0343140Y0105345D01*
X0343140Y0104347D02*
X0343400Y0104347D01*
X0343400Y0103348D02*
X0343140Y0103348D01*
X0343140Y0102350D02*
X0343400Y0102350D01*
X0343400Y0101351D02*
X0343140Y0101351D01*
X0343140Y0100353D02*
X0343400Y0100353D01*
X0343400Y0099354D02*
X0343057Y0099354D01*
X0343140Y0098356D02*
X0343400Y0098356D01*
X0343400Y0097357D02*
X0343140Y0097357D01*
X0343140Y0096359D02*
X0343400Y0096359D01*
X0343400Y0095360D02*
X0343140Y0095360D01*
X0345000Y0093500D02*
X0345000Y0126000D01*
X0347000Y0128000D01*
X0366000Y0128000D01*
X0374374Y0119626D01*
X0380012Y0119626D01*
X0380106Y0121500D02*
X0386500Y0121500D01*
X0386500Y0125500D01*
X0384900Y0127100D02*
X0383671Y0127100D01*
X0383671Y0127900D01*
X0384900Y0127900D01*
X0384900Y0127100D01*
X0384900Y0127312D02*
X0383671Y0127312D01*
X0380012Y0127500D02*
X0373000Y0127500D01*
X0373363Y0125900D02*
X0376353Y0125900D01*
X0376353Y0125163D01*
X0374100Y0125163D01*
X0373363Y0125900D01*
X0373947Y0125315D02*
X0376353Y0125315D01*
X0376353Y0121963D02*
X0374300Y0121963D01*
X0375037Y0121226D01*
X0376353Y0121226D01*
X0376353Y0121963D01*
X0376353Y0121321D02*
X0374941Y0121321D01*
X0372774Y0118963D02*
X0373711Y0118026D01*
X0376353Y0118026D01*
X0376353Y0117289D01*
X0371974Y0117289D01*
X0371600Y0117663D01*
X0371600Y0120137D01*
X0372774Y0118963D01*
X0372413Y0119324D02*
X0371600Y0119324D01*
X0371600Y0118326D02*
X0373411Y0118326D01*
X0371935Y0117327D02*
X0376353Y0117327D01*
X0380012Y0117657D02*
X0380169Y0117500D01*
X0386500Y0117500D01*
X0386500Y0121500D01*
X0384900Y0123100D02*
X0383671Y0123100D01*
X0383671Y0123900D01*
X0384900Y0123900D01*
X0384900Y0123100D01*
X0384900Y0123318D02*
X0383671Y0123318D01*
X0380106Y0121500D02*
X0380012Y0121594D01*
X0383671Y0119900D02*
X0383671Y0119100D01*
X0384900Y0119100D01*
X0384900Y0119900D01*
X0383671Y0119900D01*
X0383671Y0119324D02*
X0384900Y0119324D01*
X0386500Y0117500D02*
X0386500Y0113500D01*
X0384900Y0115100D02*
X0383671Y0115100D01*
X0383671Y0115900D01*
X0384900Y0115900D01*
X0384900Y0115100D01*
X0384900Y0115330D02*
X0383671Y0115330D01*
X0380012Y0115689D02*
X0371311Y0115689D01*
X0370000Y0117000D01*
X0370000Y0121000D01*
X0365500Y0125500D01*
X0348500Y0125500D01*
X0347500Y0124500D01*
X0347500Y0092000D01*
X0346000Y0090500D01*
X0339225Y0090500D01*
X0339140Y0090415D01*
X0339155Y0093000D02*
X0344500Y0093000D01*
X0345000Y0093500D01*
X0339155Y0093000D02*
X0339140Y0093015D01*
X0335140Y0093363D02*
X0325358Y0093363D01*
X0325500Y0092365D02*
X0335140Y0092365D01*
X0335140Y0091366D02*
X0325500Y0091366D01*
X0325500Y0090368D02*
X0335140Y0090368D01*
X0335140Y0089369D02*
X0325212Y0089369D01*
X0324213Y0088370D02*
X0335140Y0088370D01*
X0335140Y0087372D02*
X0331891Y0087372D01*
X0330500Y0086500D02*
X0331685Y0085315D01*
X0339140Y0085315D01*
X0339325Y0085500D01*
X0343140Y0083378D02*
X0357340Y0083378D01*
X0357340Y0084376D02*
X0348639Y0084376D01*
X0349638Y0085375D02*
X0357340Y0085375D01*
X0357340Y0086373D02*
X0350636Y0086373D01*
X0351635Y0087372D02*
X0357340Y0087372D01*
X0357340Y0088370D02*
X0352633Y0088370D01*
X0353100Y0089369D02*
X0357340Y0089369D01*
X0357340Y0090368D02*
X0353100Y0090368D01*
X0353100Y0091366D02*
X0357340Y0091366D01*
X0357340Y0092365D02*
X0353100Y0092365D01*
X0353100Y0093363D02*
X0357340Y0093363D01*
X0357340Y0094362D02*
X0353100Y0094362D01*
X0353100Y0095360D02*
X0357340Y0095360D01*
X0357340Y0096359D02*
X0353100Y0096359D01*
X0353100Y0097357D02*
X0357340Y0097357D01*
X0357340Y0098356D02*
X0353100Y0098356D01*
X0353100Y0099354D02*
X0357424Y0099354D01*
X0357340Y0100353D02*
X0353100Y0100353D01*
X0353100Y0101351D02*
X0357340Y0101351D01*
X0357340Y0102350D02*
X0353100Y0102350D01*
X0353100Y0103348D02*
X0357340Y0103348D01*
X0357340Y0104347D02*
X0353100Y0104347D01*
X0353100Y0105345D02*
X0357340Y0105345D01*
X0357340Y0106344D02*
X0353100Y0106344D01*
X0353100Y0107342D02*
X0357340Y0107342D01*
X0357340Y0108341D02*
X0353100Y0108341D01*
X0351100Y0111363D02*
X0351100Y0116239D01*
X0351211Y0115971D01*
X0351900Y0115282D01*
X0351900Y0114837D01*
X0352837Y0113900D01*
X0354222Y0112515D01*
X0352252Y0112515D01*
X0351315Y0111578D01*
X0351100Y0111363D01*
X0351100Y0112335D02*
X0352072Y0112335D01*
X0351100Y0113333D02*
X0353404Y0113333D01*
X0352405Y0114332D02*
X0351100Y0114332D01*
X0351100Y0115330D02*
X0351851Y0115330D01*
X0353500Y0115500D02*
X0353500Y0117500D01*
X0353500Y0115500D02*
X0355500Y0113500D01*
X0361255Y0113500D01*
X0361340Y0113415D01*
X0357985Y0115215D02*
X0357870Y0115100D01*
X0356163Y0115100D01*
X0355541Y0115722D01*
X0355789Y0115971D01*
X0356200Y0116963D01*
X0356200Y0118037D01*
X0355789Y0119029D01*
X0355029Y0119789D01*
X0354037Y0120200D01*
X0352963Y0120200D01*
X0351971Y0119789D01*
X0351211Y0119029D01*
X0351100Y0118761D01*
X0351100Y0120837D01*
X0351163Y0120900D01*
X0361837Y0120900D01*
X0365900Y0116837D01*
X0365900Y0113837D01*
X0366900Y0112837D01*
X0367137Y0112600D01*
X0365340Y0112600D01*
X0365340Y0114571D01*
X0364696Y0115215D01*
X0357985Y0115215D01*
X0355932Y0115330D02*
X0365900Y0115330D01*
X0365900Y0114332D02*
X0365340Y0114332D01*
X0365340Y0113333D02*
X0366404Y0113333D01*
X0365900Y0116329D02*
X0355937Y0116329D01*
X0356200Y0117327D02*
X0365410Y0117327D01*
X0364411Y0118326D02*
X0356080Y0118326D01*
X0355494Y0119324D02*
X0363413Y0119324D01*
X0362414Y0120323D02*
X0351100Y0120323D01*
X0351100Y0119324D02*
X0351506Y0119324D01*
X0349100Y0123363D02*
X0349637Y0123900D01*
X0349163Y0123900D01*
X0349100Y0123837D01*
X0349100Y0123363D01*
X0359343Y0129600D02*
X0359700Y0130463D01*
X0359700Y0130909D01*
X0359963Y0130800D01*
X0361037Y0130800D01*
X0362029Y0131211D01*
X0362789Y0131971D01*
X0363200Y0132963D01*
X0363200Y0134037D01*
X0362789Y0135029D01*
X0362029Y0135789D01*
X0361593Y0135970D01*
X0359863Y0137700D01*
X0330737Y0137700D01*
X0329937Y0136900D01*
X0329637Y0136900D01*
X0328700Y0135963D01*
X0327600Y0134863D01*
X0327600Y0139837D01*
X0332663Y0144900D01*
X0361837Y0144900D01*
X0363400Y0143337D01*
X0363400Y0130337D01*
X0363900Y0129837D01*
X0364137Y0129600D01*
X0359343Y0129600D01*
X0359636Y0130308D02*
X0363429Y0130308D01*
X0363400Y0131306D02*
X0362125Y0131306D01*
X0362927Y0132305D02*
X0363400Y0132305D01*
X0363400Y0133303D02*
X0363200Y0133303D01*
X0363090Y0134302D02*
X0363400Y0134302D01*
X0363400Y0135301D02*
X0362518Y0135301D01*
X0363400Y0136299D02*
X0361264Y0136299D01*
X0360265Y0137298D02*
X0363400Y0137298D01*
X0363400Y0138296D02*
X0327600Y0138296D01*
X0327600Y0137298D02*
X0330335Y0137298D01*
X0329036Y0136299D02*
X0327600Y0136299D01*
X0327600Y0135301D02*
X0328038Y0135301D01*
X0329600Y0132305D02*
X0330042Y0132305D01*
X0324400Y0135301D02*
X0323420Y0135301D01*
X0324400Y0136299D02*
X0279562Y0136299D01*
X0280560Y0137298D02*
X0309261Y0137298D01*
X0308262Y0138296D02*
X0281559Y0138296D01*
X0282557Y0139295D02*
X0307264Y0139295D01*
X0306900Y0140293D02*
X0283556Y0140293D01*
X0284554Y0141292D02*
X0306900Y0141292D01*
X0306900Y0142290D02*
X0285553Y0142290D01*
X0286551Y0143289D02*
X0306969Y0143289D01*
X0307967Y0144287D02*
X0287550Y0144287D01*
X0278563Y0135301D02*
X0308981Y0135301D01*
X0309419Y0135739D02*
X0306900Y0133220D01*
X0306900Y0129658D01*
X0309419Y0127139D01*
X0312982Y0127139D01*
X0315500Y0129658D01*
X0315500Y0133220D01*
X0312982Y0135739D01*
X0309419Y0135739D01*
X0307982Y0134302D02*
X0277565Y0134302D01*
X0276566Y0133303D02*
X0306984Y0133303D01*
X0306900Y0132305D02*
X0275568Y0132305D01*
X0274569Y0131306D02*
X0306900Y0131306D01*
X0306900Y0130308D02*
X0273571Y0130308D01*
X0272572Y0129309D02*
X0307249Y0129309D01*
X0308247Y0128311D02*
X0271574Y0128311D01*
X0270575Y0127312D02*
X0309246Y0127312D01*
X0309419Y0125739D02*
X0306900Y0123220D01*
X0306900Y0119658D01*
X0309419Y0117139D01*
X0312982Y0117139D01*
X0315500Y0119658D01*
X0315500Y0123220D01*
X0312982Y0125739D01*
X0309419Y0125739D01*
X0308996Y0125315D02*
X0268578Y0125315D01*
X0267580Y0124317D02*
X0307997Y0124317D01*
X0306999Y0123318D02*
X0266581Y0123318D01*
X0265583Y0122320D02*
X0306900Y0122320D01*
X0306900Y0121321D02*
X0264584Y0121321D01*
X0263586Y0120323D02*
X0306900Y0120323D01*
X0307234Y0119324D02*
X0262587Y0119324D01*
X0261589Y0118326D02*
X0308233Y0118326D01*
X0309231Y0117327D02*
X0260590Y0117327D01*
X0259592Y0116329D02*
X0324400Y0116329D01*
X0324400Y0117327D02*
X0323170Y0117327D01*
X0324168Y0118326D02*
X0324400Y0118326D01*
X0324400Y0115330D02*
X0323390Y0115330D01*
X0324389Y0114332D02*
X0324400Y0114332D01*
X0319011Y0115330D02*
X0313390Y0115330D01*
X0312982Y0115739D02*
X0315500Y0113220D01*
X0315500Y0109658D01*
X0312982Y0107139D01*
X0309419Y0107139D01*
X0306900Y0109658D01*
X0306900Y0113220D01*
X0309419Y0115739D01*
X0312982Y0115739D01*
X0313170Y0117327D02*
X0319231Y0117327D01*
X0318233Y0118326D02*
X0314168Y0118326D01*
X0315167Y0119324D02*
X0317234Y0119324D01*
X0316900Y0120323D02*
X0315500Y0120323D01*
X0315500Y0121321D02*
X0316900Y0121321D01*
X0316900Y0122320D02*
X0315500Y0122320D01*
X0315402Y0123318D02*
X0316999Y0123318D01*
X0317997Y0124317D02*
X0314404Y0124317D01*
X0313405Y0125315D02*
X0318996Y0125315D01*
X0319246Y0127312D02*
X0313155Y0127312D01*
X0314153Y0128311D02*
X0318247Y0128311D01*
X0317249Y0129309D02*
X0315152Y0129309D01*
X0315500Y0130308D02*
X0316900Y0130308D01*
X0316900Y0131306D02*
X0315500Y0131306D01*
X0315500Y0132305D02*
X0316900Y0132305D01*
X0316984Y0133303D02*
X0315417Y0133303D01*
X0314419Y0134302D02*
X0317982Y0134302D01*
X0318981Y0135301D02*
X0313420Y0135301D01*
X0313140Y0137298D02*
X0319261Y0137298D01*
X0318262Y0138296D02*
X0314139Y0138296D01*
X0315137Y0139295D02*
X0317264Y0139295D01*
X0316900Y0140293D02*
X0315500Y0140293D01*
X0315500Y0141292D02*
X0316900Y0141292D01*
X0316900Y0142290D02*
X0315500Y0142290D01*
X0315432Y0143289D02*
X0316969Y0143289D01*
X0317967Y0144287D02*
X0314434Y0144287D01*
X0313435Y0145286D02*
X0318966Y0145286D01*
X0319276Y0147283D02*
X0313125Y0147283D01*
X0314124Y0148281D02*
X0318277Y0148281D01*
X0317279Y0149280D02*
X0315122Y0149280D01*
X0315500Y0150278D02*
X0316900Y0150278D01*
X0316900Y0151277D02*
X0315500Y0151277D01*
X0315500Y0152275D02*
X0316900Y0152275D01*
X0316954Y0153274D02*
X0315447Y0153274D01*
X0314448Y0154272D02*
X0317953Y0154272D01*
X0324448Y0154272D02*
X0336334Y0154272D01*
X0337333Y0153274D02*
X0325447Y0153274D01*
X0318292Y0158266D02*
X0314109Y0158266D01*
X0315107Y0159265D02*
X0317294Y0159265D01*
X0316900Y0160263D02*
X0315500Y0160263D01*
X0315500Y0161262D02*
X0316900Y0161262D01*
X0316900Y0162260D02*
X0315500Y0162260D01*
X0315462Y0163259D02*
X0316939Y0163259D01*
X0317938Y0164257D02*
X0314463Y0164257D01*
X0313465Y0165256D02*
X0318936Y0165256D01*
X0319419Y0167139D02*
X0322982Y0167139D01*
X0325500Y0169658D01*
X0325500Y0173220D01*
X0322982Y0175739D01*
X0319419Y0175739D01*
X0316900Y0173220D01*
X0316900Y0169658D01*
X0319419Y0167139D01*
X0319306Y0167253D02*
X0313095Y0167253D01*
X0314094Y0168251D02*
X0318307Y0168251D01*
X0317309Y0169250D02*
X0315092Y0169250D01*
X0315500Y0170248D02*
X0316900Y0170248D01*
X0316900Y0171247D02*
X0315500Y0171247D01*
X0315500Y0172245D02*
X0316900Y0172245D01*
X0316924Y0173244D02*
X0315477Y0173244D01*
X0314478Y0174242D02*
X0317923Y0174242D01*
X0318921Y0175241D02*
X0313480Y0175241D01*
X0313081Y0177238D02*
X0319320Y0177238D01*
X0318322Y0178237D02*
X0314079Y0178237D01*
X0315078Y0179235D02*
X0317323Y0179235D01*
X0316900Y0180234D02*
X0315500Y0180234D01*
X0315500Y0181232D02*
X0316900Y0181232D01*
X0316900Y0182231D02*
X0315500Y0182231D01*
X0315492Y0183229D02*
X0316909Y0183229D01*
X0317908Y0184228D02*
X0314493Y0184228D01*
X0313495Y0185226D02*
X0318906Y0185226D01*
X0319335Y0187223D02*
X0313066Y0187223D01*
X0314064Y0188222D02*
X0318337Y0188222D01*
X0317338Y0189220D02*
X0315063Y0189220D01*
X0315500Y0190219D02*
X0316900Y0190219D01*
X0316900Y0191217D02*
X0315500Y0191217D01*
X0315500Y0192216D02*
X0316900Y0192216D01*
X0316900Y0193214D02*
X0315500Y0193214D01*
X0314508Y0194213D02*
X0317893Y0194213D01*
X0318352Y0198207D02*
X0314049Y0198207D01*
X0315048Y0199205D02*
X0317353Y0199205D01*
X0316900Y0200204D02*
X0315500Y0200204D01*
X0315500Y0201202D02*
X0316900Y0201202D01*
X0316900Y0202201D02*
X0315500Y0202201D01*
X0315500Y0203199D02*
X0316900Y0203199D01*
X0317878Y0204198D02*
X0314523Y0204198D01*
X0313524Y0205196D02*
X0318877Y0205196D01*
X0323524Y0205196D02*
X0403201Y0205196D01*
X0403201Y0204198D02*
X0324523Y0204198D01*
X0325500Y0203199D02*
X0403201Y0203199D01*
X0403201Y0202201D02*
X0325500Y0202201D01*
X0325500Y0201202D02*
X0403201Y0201202D01*
X0403201Y0200204D02*
X0325500Y0200204D01*
X0325048Y0199205D02*
X0403201Y0199205D01*
X0403201Y0198207D02*
X0324049Y0198207D01*
X0345338Y0188222D02*
X0346516Y0188222D01*
X0347514Y0187223D02*
X0344924Y0187223D01*
X0344012Y0186225D02*
X0348513Y0186225D01*
X0349511Y0185226D02*
X0342427Y0185226D01*
X0338652Y0185226D02*
X0323495Y0185226D01*
X0324493Y0184228D02*
X0349900Y0184228D01*
X0350508Y0183229D02*
X0325492Y0183229D01*
X0325500Y0182231D02*
X0350800Y0182231D01*
X0351103Y0181232D02*
X0325500Y0181232D01*
X0323480Y0175241D02*
X0335424Y0175241D01*
X0335424Y0174242D02*
X0324478Y0174242D01*
X0325477Y0173244D02*
X0335445Y0173244D01*
X0335859Y0172245D02*
X0325500Y0172245D01*
X0325500Y0171247D02*
X0336375Y0171247D01*
X0337374Y0170248D02*
X0325500Y0170248D01*
X0325092Y0169250D02*
X0338892Y0169250D01*
X0338892Y0168251D02*
X0324094Y0168251D01*
X0323095Y0167253D02*
X0338892Y0167253D01*
X0340492Y0174280D02*
X0340492Y0157327D01*
X0339665Y0156500D01*
X0345500Y0152500D02*
X0365500Y0152500D01*
X0369500Y0148500D01*
X0369500Y0140500D01*
X0370689Y0139311D01*
X0380012Y0139311D01*
X0376353Y0140911D02*
X0371352Y0140911D01*
X0371100Y0141163D01*
X0371100Y0147929D01*
X0376528Y0142501D01*
X0376353Y0142326D01*
X0376353Y0140911D01*
X0376353Y0141292D02*
X0371100Y0141292D01*
X0371100Y0142290D02*
X0376353Y0142290D01*
X0375740Y0143289D02*
X0371100Y0143289D01*
X0371100Y0144287D02*
X0374741Y0144287D01*
X0373743Y0145286D02*
X0371100Y0145286D01*
X0371100Y0146284D02*
X0372744Y0146284D01*
X0371746Y0147283D02*
X0371100Y0147283D01*
X0367900Y0147363D02*
X0364363Y0150900D01*
X0364837Y0150900D01*
X0367900Y0147837D01*
X0367900Y0147363D01*
X0367456Y0148281D02*
X0366982Y0148281D01*
X0366458Y0149280D02*
X0365983Y0149280D01*
X0365459Y0150278D02*
X0364985Y0150278D01*
X0362450Y0144287D02*
X0332050Y0144287D01*
X0331051Y0143289D02*
X0363400Y0143289D01*
X0363400Y0142290D02*
X0330053Y0142290D01*
X0329054Y0141292D02*
X0363400Y0141292D01*
X0363400Y0140293D02*
X0328056Y0140293D01*
X0327600Y0139295D02*
X0363400Y0139295D01*
X0366600Y0136137D02*
X0366837Y0135900D01*
X0367837Y0135900D01*
X0368037Y0135700D01*
X0367963Y0135700D01*
X0366971Y0135289D01*
X0366600Y0134918D01*
X0366600Y0136137D01*
X0366600Y0135301D02*
X0366999Y0135301D01*
X0364837Y0123900D02*
X0368400Y0120337D01*
X0368400Y0118863D01*
X0368163Y0119100D01*
X0363363Y0123900D01*
X0364837Y0123900D01*
X0365419Y0123318D02*
X0363944Y0123318D01*
X0364943Y0122320D02*
X0366417Y0122320D01*
X0365941Y0121321D02*
X0367416Y0121321D01*
X0366940Y0120323D02*
X0368400Y0120323D01*
X0368400Y0119324D02*
X0367938Y0119324D01*
X0369100Y0115637D02*
X0369637Y0115100D01*
X0369163Y0115100D01*
X0369100Y0115163D01*
X0369100Y0115637D01*
X0369100Y0115330D02*
X0369407Y0115330D01*
X0375174Y0114089D02*
X0376353Y0114089D01*
X0376353Y0113352D01*
X0375911Y0113352D01*
X0375174Y0114089D01*
X0383671Y0111900D02*
X0383671Y0111600D01*
X0384900Y0111600D01*
X0384900Y0111900D01*
X0383671Y0111900D01*
X0376353Y0106215D02*
X0376353Y0105478D01*
X0372285Y0105478D01*
X0371548Y0106215D01*
X0376353Y0106215D01*
X0376353Y0102278D02*
X0372985Y0102278D01*
X0373722Y0101541D01*
X0376353Y0101541D01*
X0376353Y0102278D01*
X0376353Y0098341D02*
X0374422Y0098341D01*
X0375159Y0097604D01*
X0376353Y0097604D01*
X0376353Y0098341D01*
X0376353Y0094404D02*
X0376353Y0093667D01*
X0376096Y0093667D01*
X0375359Y0094404D01*
X0376353Y0094404D01*
X0376353Y0094362D02*
X0375401Y0094362D01*
X0380012Y0094035D02*
X0380047Y0094000D01*
X0383671Y0092400D02*
X0383671Y0091600D01*
X0384900Y0091600D01*
X0384900Y0092400D01*
X0383671Y0092400D01*
X0383671Y0092365D02*
X0384900Y0092365D01*
X0386500Y0094000D02*
X0386500Y0090000D01*
X0388100Y0090368D02*
X0403201Y0090368D01*
X0403201Y0091366D02*
X0388100Y0091366D01*
X0388100Y0092365D02*
X0403201Y0092365D01*
X0403201Y0093363D02*
X0388100Y0093363D01*
X0388100Y0094362D02*
X0403201Y0094362D01*
X0403201Y0095360D02*
X0388100Y0095360D01*
X0388100Y0096359D02*
X0403201Y0096359D01*
X0403201Y0097357D02*
X0388100Y0097357D01*
X0388100Y0098356D02*
X0403201Y0098356D01*
X0403201Y0099354D02*
X0388100Y0099354D01*
X0388100Y0100353D02*
X0403201Y0100353D01*
X0403201Y0101351D02*
X0388100Y0101351D01*
X0388100Y0102350D02*
X0403201Y0102350D01*
X0403201Y0103348D02*
X0388100Y0103348D01*
X0388100Y0104347D02*
X0403201Y0104347D01*
X0403201Y0105345D02*
X0388100Y0105345D01*
X0384900Y0104400D02*
X0384900Y0103600D01*
X0383671Y0103600D01*
X0383671Y0104400D01*
X0384900Y0104400D01*
X0384900Y0104347D02*
X0383671Y0104347D01*
X0386500Y0102000D02*
X0386500Y0098000D01*
X0384900Y0099600D02*
X0383671Y0099600D01*
X0383671Y0100400D01*
X0384900Y0100400D01*
X0384900Y0099600D01*
X0384900Y0100353D02*
X0383671Y0100353D01*
X0383671Y0096400D02*
X0383671Y0095600D01*
X0384900Y0095600D01*
X0384900Y0096400D01*
X0383671Y0096400D01*
X0383671Y0096359D02*
X0384900Y0096359D01*
X0388100Y0089369D02*
X0403201Y0089369D01*
X0403201Y0088370D02*
X0388100Y0088370D01*
X0388100Y0087372D02*
X0403201Y0087372D01*
X0403201Y0086373D02*
X0388100Y0086373D01*
X0388100Y0085375D02*
X0403201Y0085375D01*
X0403201Y0084376D02*
X0388100Y0084376D01*
X0388100Y0083378D02*
X0403201Y0083378D01*
X0403201Y0082379D02*
X0388100Y0082379D01*
X0387644Y0081381D02*
X0403201Y0081381D01*
X0403201Y0078385D02*
X0398005Y0078385D01*
X0398238Y0077387D02*
X0403201Y0077387D01*
X0403201Y0076388D02*
X0398238Y0076388D01*
X0398238Y0075390D02*
X0403201Y0075390D01*
X0403201Y0074391D02*
X0398238Y0074391D01*
X0398238Y0073393D02*
X0403201Y0073393D01*
X0403201Y0072394D02*
X0398238Y0072394D01*
X0398238Y0071396D02*
X0403201Y0071396D01*
X0403201Y0070397D02*
X0398238Y0070397D01*
X0386500Y0082500D02*
X0386500Y0086000D01*
X0384900Y0087600D02*
X0383671Y0087600D01*
X0383671Y0088400D01*
X0384900Y0088400D01*
X0384900Y0087600D01*
X0384900Y0088370D02*
X0383671Y0088370D01*
X0380173Y0086000D02*
X0380012Y0086161D01*
X0376353Y0086373D02*
X0375889Y0086373D01*
X0375863Y0086400D02*
X0376163Y0086400D01*
X0376293Y0086530D01*
X0376353Y0086530D01*
X0376353Y0085910D01*
X0375863Y0086400D01*
X0373600Y0084137D02*
X0374207Y0083530D01*
X0375144Y0082593D01*
X0376353Y0082593D01*
X0376353Y0081856D01*
X0373907Y0081856D01*
X0373600Y0082163D01*
X0373600Y0084137D01*
X0373600Y0083378D02*
X0374359Y0083378D01*
X0373600Y0082379D02*
X0376353Y0082379D01*
X0371853Y0079384D02*
X0371600Y0079384D01*
X0364152Y0078415D02*
X0362940Y0078415D01*
X0362940Y0077203D01*
X0364152Y0078415D01*
X0364123Y0078385D02*
X0362940Y0078385D01*
X0362940Y0077387D02*
X0363124Y0077387D01*
X0368100Y0073837D02*
X0368400Y0074137D01*
X0368400Y0072663D01*
X0368100Y0072363D01*
X0368100Y0073837D01*
X0368100Y0073393D02*
X0368400Y0073393D01*
X0368132Y0072394D02*
X0368100Y0072394D01*
X0359145Y0063408D02*
X0335432Y0063408D01*
X0334433Y0062409D02*
X0339908Y0062409D01*
X0338909Y0061411D02*
X0333435Y0061411D01*
X0332436Y0060412D02*
X0337911Y0060412D01*
X0336912Y0059414D02*
X0331438Y0059414D01*
X0330439Y0058415D02*
X0335914Y0058415D01*
X0334915Y0057417D02*
X0329441Y0057417D01*
X0328442Y0056418D02*
X0333917Y0056418D01*
X0332918Y0055420D02*
X0327444Y0055420D01*
X0326445Y0054421D02*
X0331920Y0054421D01*
X0330921Y0053423D02*
X0325447Y0053423D01*
X0325500Y0052424D02*
X0329923Y0052424D01*
X0328924Y0051426D02*
X0325500Y0051426D01*
X0325500Y0050427D02*
X0327926Y0050427D01*
X0326927Y0049429D02*
X0325271Y0049429D01*
X0325929Y0048430D02*
X0324273Y0048430D01*
X0324930Y0047432D02*
X0323274Y0047432D01*
X0323932Y0046433D02*
X0189696Y0046433D01*
X0190694Y0047432D02*
X0309127Y0047432D01*
X0308128Y0048430D02*
X0191693Y0048430D01*
X0192691Y0049429D02*
X0307130Y0049429D01*
X0306900Y0050427D02*
X0193690Y0050427D01*
X0194688Y0051426D02*
X0306900Y0051426D01*
X0306900Y0052424D02*
X0195687Y0052424D01*
X0196685Y0053423D02*
X0307103Y0053423D01*
X0308101Y0054421D02*
X0197684Y0054421D01*
X0198682Y0055420D02*
X0309100Y0055420D01*
X0315500Y0050427D02*
X0316900Y0050427D01*
X0317130Y0049429D02*
X0315271Y0049429D01*
X0314273Y0048430D02*
X0318128Y0048430D01*
X0319127Y0047432D02*
X0313274Y0047432D01*
X0313286Y0045434D02*
X0319115Y0045434D01*
X0318116Y0044436D02*
X0314285Y0044436D01*
X0315283Y0043437D02*
X0317118Y0043437D01*
X0316900Y0042439D02*
X0315500Y0042439D01*
X0315500Y0041440D02*
X0316900Y0041440D01*
X0316900Y0040442D02*
X0315500Y0040442D01*
X0315286Y0039443D02*
X0317115Y0039443D01*
X0318113Y0038445D02*
X0314287Y0038445D01*
X0313289Y0037446D02*
X0319112Y0037446D01*
X0319130Y0035449D02*
X0313271Y0035449D01*
X0314270Y0034451D02*
X0318131Y0034451D01*
X0317133Y0033452D02*
X0315268Y0033452D01*
X0311200Y0031439D02*
X0321200Y0031439D01*
X0318099Y0028460D02*
X0314302Y0028460D01*
X0313304Y0027461D02*
X0319097Y0027461D01*
X0317100Y0029458D02*
X0315301Y0029458D01*
X0309097Y0027461D02*
X0170724Y0027461D01*
X0169726Y0026463D02*
X0403201Y0026463D01*
X0403201Y0027461D02*
X0323304Y0027461D01*
X0324302Y0028460D02*
X0403201Y0028460D01*
X0403201Y0029458D02*
X0325301Y0029458D01*
X0325500Y0030457D02*
X0403201Y0030457D01*
X0403201Y0031455D02*
X0325500Y0031455D01*
X0325500Y0032454D02*
X0403201Y0032454D01*
X0403201Y0033452D02*
X0325268Y0033452D01*
X0324270Y0034451D02*
X0403201Y0034451D01*
X0403201Y0035449D02*
X0323271Y0035449D01*
X0321200Y0041439D02*
X0341261Y0061500D01*
X0329261Y0069500D02*
X0321200Y0061439D01*
X0323902Y0066403D02*
X0209666Y0066403D01*
X0220650Y0077387D02*
X0309172Y0077387D01*
X0308173Y0078385D02*
X0221648Y0078385D01*
X0222647Y0079384D02*
X0307175Y0079384D01*
X0306900Y0080382D02*
X0223645Y0080382D01*
X0224644Y0081381D02*
X0306900Y0081381D01*
X0306900Y0082379D02*
X0299198Y0082379D01*
X0299958Y0083378D02*
X0307058Y0083378D01*
X0308057Y0084376D02*
X0300200Y0084376D01*
X0299500Y0086500D02*
X0297500Y0084500D01*
X0295555Y0086373D02*
X0229636Y0086373D01*
X0228638Y0085375D02*
X0294940Y0085375D01*
X0294800Y0084376D02*
X0227639Y0084376D01*
X0226641Y0083378D02*
X0295042Y0083378D01*
X0295802Y0082379D02*
X0225642Y0082379D01*
X0230635Y0087372D02*
X0298109Y0087372D01*
X0299500Y0086500D02*
X0330500Y0086500D01*
X0329837Y0084900D02*
X0330085Y0084652D01*
X0331022Y0083715D01*
X0335140Y0083715D01*
X0335140Y0081559D01*
X0335235Y0081465D01*
X0335140Y0081371D01*
X0335140Y0079059D01*
X0335431Y0078769D01*
X0333762Y0077100D01*
X0330163Y0077100D01*
X0325500Y0081762D01*
X0325500Y0083220D01*
X0323821Y0084900D01*
X0329837Y0084900D01*
X0330361Y0084376D02*
X0324344Y0084376D01*
X0325343Y0083378D02*
X0335140Y0083378D01*
X0335140Y0082379D02*
X0325500Y0082379D01*
X0325882Y0081381D02*
X0335150Y0081381D01*
X0335140Y0080382D02*
X0326880Y0080382D01*
X0327879Y0079384D02*
X0335140Y0079384D01*
X0335048Y0078385D02*
X0328877Y0078385D01*
X0329876Y0077387D02*
X0334049Y0077387D01*
X0324900Y0067402D02*
X0323244Y0067402D01*
X0318188Y0088370D02*
X0314213Y0088370D01*
X0315212Y0089369D02*
X0317189Y0089369D01*
X0316900Y0090368D02*
X0315500Y0090368D01*
X0315500Y0091366D02*
X0316900Y0091366D01*
X0316900Y0092365D02*
X0315500Y0092365D01*
X0315358Y0093363D02*
X0317043Y0093363D01*
X0318042Y0094362D02*
X0314359Y0094362D01*
X0313361Y0095360D02*
X0319040Y0095360D01*
X0319201Y0097357D02*
X0313200Y0097357D01*
X0312982Y0097139D02*
X0315500Y0099658D01*
X0315500Y0103220D01*
X0312982Y0105739D01*
X0309419Y0105739D01*
X0306900Y0103220D01*
X0306900Y0099658D01*
X0309419Y0097139D01*
X0312982Y0097139D01*
X0314198Y0098356D02*
X0318203Y0098356D01*
X0317204Y0099354D02*
X0315197Y0099354D01*
X0315500Y0100353D02*
X0316900Y0100353D01*
X0316900Y0101351D02*
X0315500Y0101351D01*
X0315500Y0102350D02*
X0316900Y0102350D01*
X0317028Y0103348D02*
X0315372Y0103348D01*
X0314374Y0104347D02*
X0318027Y0104347D01*
X0319026Y0105345D02*
X0313375Y0105345D01*
X0313185Y0107342D02*
X0319216Y0107342D01*
X0318218Y0108341D02*
X0314183Y0108341D01*
X0315182Y0109339D02*
X0317219Y0109339D01*
X0316900Y0110338D02*
X0315500Y0110338D01*
X0315500Y0111336D02*
X0316900Y0111336D01*
X0316900Y0112335D02*
X0315500Y0112335D01*
X0315387Y0113333D02*
X0317014Y0113333D01*
X0318012Y0114332D02*
X0314389Y0114332D01*
X0309011Y0115330D02*
X0258593Y0115330D01*
X0257595Y0114332D02*
X0308012Y0114332D01*
X0307014Y0113333D02*
X0256596Y0113333D01*
X0255597Y0112335D02*
X0306900Y0112335D01*
X0306900Y0111336D02*
X0254599Y0111336D01*
X0253600Y0110338D02*
X0306900Y0110338D01*
X0307219Y0109339D02*
X0252602Y0109339D01*
X0251603Y0108341D02*
X0308218Y0108341D01*
X0309216Y0107342D02*
X0250605Y0107342D01*
X0249606Y0106344D02*
X0324400Y0106344D01*
X0324400Y0107342D02*
X0323185Y0107342D01*
X0324183Y0108341D02*
X0324400Y0108341D01*
X0324400Y0105345D02*
X0323375Y0105345D01*
X0324374Y0104347D02*
X0324400Y0104347D01*
X0324400Y0098356D02*
X0324198Y0098356D01*
X0324400Y0097357D02*
X0323200Y0097357D01*
X0323361Y0095360D02*
X0326377Y0095360D01*
X0325379Y0096359D02*
X0239621Y0096359D01*
X0240620Y0097357D02*
X0309201Y0097357D01*
X0308203Y0098356D02*
X0241618Y0098356D01*
X0242617Y0099354D02*
X0307204Y0099354D01*
X0306900Y0100353D02*
X0243615Y0100353D01*
X0244614Y0101351D02*
X0306900Y0101351D01*
X0306900Y0102350D02*
X0245612Y0102350D01*
X0246611Y0103348D02*
X0307028Y0103348D01*
X0308027Y0104347D02*
X0247609Y0104347D01*
X0248608Y0105345D02*
X0309026Y0105345D01*
X0309040Y0095360D02*
X0238623Y0095360D01*
X0237624Y0094362D02*
X0308042Y0094362D01*
X0307043Y0093363D02*
X0236626Y0093363D01*
X0235627Y0092365D02*
X0306900Y0092365D01*
X0306900Y0091366D02*
X0234629Y0091366D01*
X0233630Y0090368D02*
X0306900Y0090368D01*
X0307189Y0089369D02*
X0232632Y0089369D01*
X0231633Y0088370D02*
X0308188Y0088370D01*
X0324359Y0094362D02*
X0327376Y0094362D01*
X0338925Y0103000D02*
X0339140Y0103215D01*
X0339140Y0105815D02*
X0338955Y0106000D01*
X0335000Y0106000D01*
X0334500Y0106500D01*
X0334500Y0122500D01*
X0340500Y0114775D02*
X0339140Y0113415D01*
X0334100Y0104637D02*
X0334137Y0104600D01*
X0334100Y0104600D01*
X0334100Y0104637D01*
X0361340Y0103215D02*
X0361555Y0103000D01*
X0361340Y0098115D02*
X0361455Y0098000D01*
X0361340Y0093015D02*
X0361355Y0093000D01*
X0383671Y0084400D02*
X0384900Y0084400D01*
X0384900Y0084100D01*
X0383671Y0084100D01*
X0383671Y0084400D01*
X0383671Y0084376D02*
X0384900Y0084376D01*
X0361655Y0108000D02*
X0361340Y0108315D01*
X0324400Y0125315D02*
X0323405Y0125315D01*
X0324400Y0126314D02*
X0269577Y0126314D01*
X0323155Y0127312D02*
X0324400Y0127312D01*
X0324400Y0128311D02*
X0324153Y0128311D01*
X0324400Y0137298D02*
X0323140Y0137298D01*
X0324139Y0138296D02*
X0324400Y0138296D01*
X0325500Y0142290D02*
X0325527Y0142290D01*
X0325432Y0143289D02*
X0326526Y0143289D01*
X0327524Y0144287D02*
X0324434Y0144287D01*
X0323435Y0145286D02*
X0328523Y0145286D01*
X0307294Y0159265D02*
X0284528Y0159265D01*
X0285526Y0160263D02*
X0306900Y0160263D01*
X0306900Y0161262D02*
X0286525Y0161262D01*
X0287523Y0162260D02*
X0306900Y0162260D01*
X0306939Y0163259D02*
X0288522Y0163259D01*
X0289520Y0164257D02*
X0307938Y0164257D01*
X0308936Y0165256D02*
X0290519Y0165256D01*
X0301100Y0178237D02*
X0308322Y0178237D01*
X0307323Y0179235D02*
X0301100Y0179235D01*
X0301100Y0180234D02*
X0306900Y0180234D01*
X0306900Y0181232D02*
X0301100Y0181232D01*
X0301100Y0182231D02*
X0306900Y0182231D01*
X0306909Y0183229D02*
X0301100Y0183229D01*
X0301100Y0184228D02*
X0307908Y0184228D01*
X0308906Y0185226D02*
X0301100Y0185226D01*
X0340492Y0174280D02*
X0340524Y0174311D01*
X0362200Y0192216D02*
X0365952Y0192216D01*
X0366576Y0193214D02*
X0362127Y0193214D01*
X0361606Y0194213D02*
X0367575Y0194213D01*
X0309115Y0045434D02*
X0188697Y0045434D01*
X0187699Y0044436D02*
X0308116Y0044436D01*
X0307118Y0043437D02*
X0186700Y0043437D01*
X0185702Y0042439D02*
X0306900Y0042439D01*
X0306900Y0041440D02*
X0184703Y0041440D01*
X0183705Y0040442D02*
X0306900Y0040442D01*
X0307115Y0039443D02*
X0182706Y0039443D01*
X0181708Y0038445D02*
X0308113Y0038445D01*
X0308099Y0028460D02*
X0171723Y0028460D01*
X0168727Y0025464D02*
X0403201Y0025464D01*
X0403201Y0024466D02*
X0167728Y0024466D01*
X0170130Y0018475D02*
X0161896Y0018475D01*
X0160130Y0018475D02*
X0152613Y0018475D01*
X0152613Y0019473D02*
X0403201Y0019473D01*
X0403201Y0018475D02*
X0303025Y0018475D01*
X0303773Y0018165D02*
X0302193Y0018819D01*
X0300482Y0018819D01*
X0298902Y0018165D01*
X0297692Y0016955D01*
X0297037Y0015375D01*
X0297037Y0007264D01*
X0297692Y0005684D01*
X0298902Y0004474D01*
X0300482Y0003819D01*
X0302193Y0003819D01*
X0303773Y0004474D01*
X0304983Y0005684D01*
X0305637Y0007264D01*
X0305637Y0015375D01*
X0304983Y0016955D01*
X0303773Y0018165D01*
X0304462Y0017476D02*
X0403201Y0017476D01*
X0403201Y0016478D02*
X0305180Y0016478D01*
X0305594Y0015479D02*
X0403201Y0015479D01*
X0403201Y0014481D02*
X0305637Y0014481D01*
X0305637Y0013482D02*
X0403201Y0013482D01*
X0403201Y0012484D02*
X0305637Y0012484D01*
X0305637Y0011485D02*
X0403201Y0011485D01*
X0403201Y0010487D02*
X0305637Y0010487D01*
X0305637Y0009488D02*
X0403201Y0009488D01*
X0403201Y0008490D02*
X0305637Y0008490D01*
X0305637Y0007491D02*
X0403201Y0007491D01*
X0403201Y0006493D02*
X0305318Y0006493D01*
X0304793Y0005494D02*
X0403201Y0005494D01*
X0403201Y0004496D02*
X0303795Y0004496D01*
X0298880Y0004496D02*
X0293795Y0004496D01*
X0293773Y0004474D02*
X0294983Y0005684D01*
X0295637Y0007264D01*
X0295637Y0015375D01*
X0294983Y0016955D01*
X0293773Y0018165D01*
X0292193Y0018819D01*
X0290482Y0018819D01*
X0288902Y0018165D01*
X0287692Y0016955D01*
X0287037Y0015375D01*
X0287037Y0007264D01*
X0287692Y0005684D01*
X0288902Y0004474D01*
X0290482Y0003819D01*
X0292193Y0003819D01*
X0293773Y0004474D01*
X0294793Y0005494D02*
X0297882Y0005494D01*
X0297357Y0006493D02*
X0295318Y0006493D01*
X0295637Y0007491D02*
X0297037Y0007491D01*
X0297037Y0008490D02*
X0295637Y0008490D01*
X0295637Y0009488D02*
X0297037Y0009488D01*
X0297037Y0010487D02*
X0295637Y0010487D01*
X0295637Y0011485D02*
X0297037Y0011485D01*
X0297037Y0012484D02*
X0295637Y0012484D01*
X0295637Y0013482D02*
X0297037Y0013482D01*
X0297037Y0014481D02*
X0295637Y0014481D01*
X0295594Y0015479D02*
X0297081Y0015479D01*
X0297494Y0016478D02*
X0295180Y0016478D01*
X0294462Y0017476D02*
X0298213Y0017476D01*
X0299650Y0018475D02*
X0293025Y0018475D01*
X0289650Y0018475D02*
X0283025Y0018475D01*
X0283773Y0018165D02*
X0282193Y0018819D01*
X0280482Y0018819D01*
X0278902Y0018165D01*
X0277692Y0016955D01*
X0277037Y0015375D01*
X0277037Y0007264D01*
X0277692Y0005684D01*
X0278902Y0004474D01*
X0280482Y0003819D01*
X0282193Y0003819D01*
X0283773Y0004474D01*
X0284983Y0005684D01*
X0285637Y0007264D01*
X0285637Y0015375D01*
X0284983Y0016955D01*
X0283773Y0018165D01*
X0284462Y0017476D02*
X0288213Y0017476D01*
X0287494Y0016478D02*
X0285180Y0016478D01*
X0285594Y0015479D02*
X0287081Y0015479D01*
X0287037Y0014481D02*
X0285637Y0014481D01*
X0285637Y0013482D02*
X0287037Y0013482D01*
X0287037Y0012484D02*
X0285637Y0012484D01*
X0285637Y0011485D02*
X0287037Y0011485D01*
X0287037Y0010487D02*
X0285637Y0010487D01*
X0285637Y0009488D02*
X0287037Y0009488D01*
X0287037Y0008490D02*
X0285637Y0008490D01*
X0285637Y0007491D02*
X0287037Y0007491D01*
X0287357Y0006493D02*
X0285318Y0006493D01*
X0284793Y0005494D02*
X0287882Y0005494D01*
X0288880Y0004496D02*
X0283795Y0004496D01*
X0278880Y0004496D02*
X0273795Y0004496D01*
X0273773Y0004474D02*
X0274983Y0005684D01*
X0275637Y0007264D01*
X0275637Y0015375D01*
X0274983Y0016955D01*
X0273773Y0018165D01*
X0272193Y0018819D01*
X0270482Y0018819D01*
X0268902Y0018165D01*
X0267692Y0016955D01*
X0267037Y0015375D01*
X0267037Y0007264D01*
X0267692Y0005684D01*
X0268902Y0004474D01*
X0270482Y0003819D01*
X0272193Y0003819D01*
X0273773Y0004474D01*
X0274793Y0005494D02*
X0277882Y0005494D01*
X0277357Y0006493D02*
X0275318Y0006493D01*
X0275637Y0007491D02*
X0277037Y0007491D01*
X0277037Y0008490D02*
X0275637Y0008490D01*
X0275637Y0009488D02*
X0277037Y0009488D01*
X0277037Y0010487D02*
X0275637Y0010487D01*
X0275637Y0011485D02*
X0277037Y0011485D01*
X0277037Y0012484D02*
X0275637Y0012484D01*
X0275637Y0013482D02*
X0277037Y0013482D01*
X0277037Y0014481D02*
X0275637Y0014481D01*
X0275594Y0015479D02*
X0277081Y0015479D01*
X0277494Y0016478D02*
X0275180Y0016478D01*
X0274462Y0017476D02*
X0278213Y0017476D01*
X0279650Y0018475D02*
X0273025Y0018475D01*
X0269650Y0018475D02*
X0263025Y0018475D01*
X0263773Y0018165D02*
X0262193Y0018819D01*
X0260482Y0018819D01*
X0258902Y0018165D01*
X0257692Y0016955D01*
X0257037Y0015375D01*
X0257037Y0007264D01*
X0257692Y0005684D01*
X0258902Y0004474D01*
X0260482Y0003819D01*
X0262193Y0003819D01*
X0263773Y0004474D01*
X0264983Y0005684D01*
X0265637Y0007264D01*
X0265637Y0015375D01*
X0264983Y0016955D01*
X0263773Y0018165D01*
X0264462Y0017476D02*
X0268213Y0017476D01*
X0267494Y0016478D02*
X0265180Y0016478D01*
X0265594Y0015479D02*
X0267081Y0015479D01*
X0267037Y0014481D02*
X0265637Y0014481D01*
X0265637Y0013482D02*
X0267037Y0013482D01*
X0267037Y0012484D02*
X0265637Y0012484D01*
X0265637Y0011485D02*
X0267037Y0011485D01*
X0267037Y0010487D02*
X0265637Y0010487D01*
X0265637Y0009488D02*
X0267037Y0009488D01*
X0267037Y0008490D02*
X0265637Y0008490D01*
X0265637Y0007491D02*
X0267037Y0007491D01*
X0267357Y0006493D02*
X0265318Y0006493D01*
X0264793Y0005494D02*
X0267882Y0005494D01*
X0268880Y0004496D02*
X0263795Y0004496D01*
X0258880Y0004496D02*
X0253795Y0004496D01*
X0253773Y0004474D02*
X0254983Y0005684D01*
X0255637Y0007264D01*
X0255637Y0015375D01*
X0254983Y0016955D01*
X0253773Y0018165D01*
X0252193Y0018819D01*
X0250482Y0018819D01*
X0248902Y0018165D01*
X0247692Y0016955D01*
X0247037Y0015375D01*
X0247037Y0007264D01*
X0247692Y0005684D01*
X0248902Y0004474D01*
X0250482Y0003819D01*
X0252193Y0003819D01*
X0253773Y0004474D01*
X0254793Y0005494D02*
X0257882Y0005494D01*
X0257357Y0006493D02*
X0255318Y0006493D01*
X0255637Y0007491D02*
X0257037Y0007491D01*
X0257037Y0008490D02*
X0255637Y0008490D01*
X0255637Y0009488D02*
X0257037Y0009488D01*
X0257037Y0010487D02*
X0255637Y0010487D01*
X0255637Y0011485D02*
X0257037Y0011485D01*
X0257037Y0012484D02*
X0255637Y0012484D01*
X0255637Y0013482D02*
X0257037Y0013482D01*
X0257037Y0014481D02*
X0255637Y0014481D01*
X0255594Y0015479D02*
X0257081Y0015479D01*
X0257494Y0016478D02*
X0255180Y0016478D01*
X0254462Y0017476D02*
X0258213Y0017476D01*
X0259650Y0018475D02*
X0253025Y0018475D01*
X0249650Y0018475D02*
X0243025Y0018475D01*
X0243773Y0018165D02*
X0242193Y0018819D01*
X0240482Y0018819D01*
X0238902Y0018165D01*
X0237692Y0016955D01*
X0237037Y0015375D01*
X0237037Y0007264D01*
X0237692Y0005684D01*
X0238902Y0004474D01*
X0240482Y0003819D01*
X0242193Y0003819D01*
X0243773Y0004474D01*
X0244983Y0005684D01*
X0245637Y0007264D01*
X0245637Y0015375D01*
X0244983Y0016955D01*
X0243773Y0018165D01*
X0244462Y0017476D02*
X0248213Y0017476D01*
X0247494Y0016478D02*
X0245180Y0016478D01*
X0245594Y0015479D02*
X0247081Y0015479D01*
X0247037Y0014481D02*
X0245637Y0014481D01*
X0245637Y0013482D02*
X0247037Y0013482D01*
X0247037Y0012484D02*
X0245637Y0012484D01*
X0245637Y0011485D02*
X0247037Y0011485D01*
X0247037Y0010487D02*
X0245637Y0010487D01*
X0245637Y0009488D02*
X0247037Y0009488D01*
X0247037Y0008490D02*
X0245637Y0008490D01*
X0245637Y0007491D02*
X0247037Y0007491D01*
X0247357Y0006493D02*
X0245318Y0006493D01*
X0244793Y0005494D02*
X0247882Y0005494D01*
X0248880Y0004496D02*
X0243795Y0004496D01*
X0238880Y0004496D02*
X0233795Y0004496D01*
X0233773Y0004474D02*
X0234983Y0005684D01*
X0235637Y0007264D01*
X0235637Y0015375D01*
X0234983Y0016955D01*
X0233773Y0018165D01*
X0232193Y0018819D01*
X0230482Y0018819D01*
X0228902Y0018165D01*
X0227692Y0016955D01*
X0227037Y0015375D01*
X0227037Y0007264D01*
X0227692Y0005684D01*
X0228902Y0004474D01*
X0230482Y0003819D01*
X0232193Y0003819D01*
X0233773Y0004474D01*
X0234793Y0005494D02*
X0237882Y0005494D01*
X0237357Y0006493D02*
X0235318Y0006493D01*
X0235637Y0007491D02*
X0237037Y0007491D01*
X0237037Y0008490D02*
X0235637Y0008490D01*
X0235637Y0009488D02*
X0237037Y0009488D01*
X0237037Y0010487D02*
X0235637Y0010487D01*
X0235637Y0011485D02*
X0237037Y0011485D01*
X0237037Y0012484D02*
X0235637Y0012484D01*
X0235637Y0013482D02*
X0237037Y0013482D01*
X0237037Y0014481D02*
X0235637Y0014481D01*
X0235594Y0015479D02*
X0237081Y0015479D01*
X0237494Y0016478D02*
X0235180Y0016478D01*
X0234462Y0017476D02*
X0238213Y0017476D01*
X0239650Y0018475D02*
X0233025Y0018475D01*
X0229650Y0018475D02*
X0211896Y0018475D01*
X0210130Y0018475D02*
X0201896Y0018475D01*
X0200130Y0018475D02*
X0191896Y0018475D01*
X0190130Y0018475D02*
X0181896Y0018475D01*
X0180130Y0018475D02*
X0171896Y0018475D01*
X0173804Y0017476D02*
X0178222Y0017476D01*
X0177308Y0016478D02*
X0174718Y0016478D01*
X0175132Y0015479D02*
X0176894Y0015479D01*
X0176713Y0014481D02*
X0175313Y0014481D01*
X0175313Y0013482D02*
X0176713Y0013482D01*
X0176713Y0012484D02*
X0175313Y0012484D01*
X0175313Y0011485D02*
X0176713Y0011485D01*
X0176713Y0010487D02*
X0175313Y0010487D01*
X0175313Y0009488D02*
X0176713Y0009488D01*
X0176713Y0008490D02*
X0175313Y0008490D01*
X0175313Y0007491D02*
X0176713Y0007491D01*
X0176895Y0006493D02*
X0175131Y0006493D01*
X0174718Y0005494D02*
X0177308Y0005494D01*
X0178222Y0004496D02*
X0173804Y0004496D01*
X0168222Y0004496D02*
X0163804Y0004496D01*
X0164718Y0005494D02*
X0167308Y0005494D01*
X0166895Y0006493D02*
X0165131Y0006493D01*
X0165313Y0007491D02*
X0166713Y0007491D01*
X0166713Y0008490D02*
X0165313Y0008490D01*
X0165313Y0009488D02*
X0166713Y0009488D01*
X0166713Y0010487D02*
X0165313Y0010487D01*
X0165313Y0011485D02*
X0166713Y0011485D01*
X0166713Y0012484D02*
X0165313Y0012484D01*
X0165313Y0013482D02*
X0166713Y0013482D01*
X0166713Y0014481D02*
X0165313Y0014481D01*
X0165132Y0015479D02*
X0166894Y0015479D01*
X0167308Y0016478D02*
X0164718Y0016478D01*
X0163804Y0017476D02*
X0168222Y0017476D01*
X0158222Y0017476D02*
X0153804Y0017476D01*
X0154718Y0016478D02*
X0157308Y0016478D01*
X0156894Y0015479D02*
X0155132Y0015479D01*
X0155313Y0014481D02*
X0156713Y0014481D01*
X0156713Y0013482D02*
X0155313Y0013482D01*
X0155313Y0012484D02*
X0156713Y0012484D01*
X0143500Y0013473D02*
X0143500Y0025500D01*
X0141006Y0024466D02*
X0126431Y0024466D01*
X0127430Y0025464D02*
X0140800Y0025464D01*
X0140976Y0026463D02*
X0128428Y0026463D01*
X0129427Y0027461D02*
X0141643Y0027461D01*
X0141714Y0023467D02*
X0125433Y0023467D01*
X0124434Y0022469D02*
X0141900Y0022469D01*
X0141900Y0021470D02*
X0123436Y0021470D01*
X0122437Y0020472D02*
X0141900Y0020472D01*
X0141900Y0019473D02*
X0121439Y0019473D01*
X0121571Y0018475D02*
X0140130Y0018475D01*
X0141896Y0018475D02*
X0141900Y0018475D01*
X0138222Y0017476D02*
X0123480Y0017476D01*
X0124394Y0016478D02*
X0137308Y0016478D01*
X0136894Y0015479D02*
X0124807Y0015479D01*
X0124989Y0014481D02*
X0136713Y0014481D01*
X0136713Y0013482D02*
X0124989Y0013482D01*
X0124989Y0012484D02*
X0136713Y0012484D01*
X0136713Y0011485D02*
X0124989Y0011485D01*
X0124989Y0010487D02*
X0136713Y0010487D01*
X0136713Y0009488D02*
X0124989Y0009488D01*
X0124989Y0008490D02*
X0136713Y0008490D01*
X0136713Y0007491D02*
X0124989Y0007491D01*
X0124807Y0006493D02*
X0136895Y0006493D01*
X0137308Y0005494D02*
X0124394Y0005494D01*
X0123479Y0004496D02*
X0138222Y0004496D01*
X0141013Y0010986D02*
X0143500Y0013473D01*
X0152613Y0020472D02*
X0403201Y0020472D01*
X0403201Y0021470D02*
X0152613Y0021470D01*
X0152731Y0022469D02*
X0403201Y0022469D01*
X0403201Y0023467D02*
X0153730Y0023467D01*
X0166188Y0034451D02*
X0106416Y0034451D01*
X0105418Y0033452D02*
X0130892Y0033452D01*
X0129894Y0032454D02*
X0104419Y0032454D01*
X0103421Y0031455D02*
X0128895Y0031455D01*
X0127897Y0030457D02*
X0102422Y0030457D01*
X0101424Y0029458D02*
X0126898Y0029458D01*
X0125900Y0028460D02*
X0100425Y0028460D01*
X0099427Y0027461D02*
X0124901Y0027461D01*
X0123903Y0026463D02*
X0098428Y0026463D01*
X0097430Y0025464D02*
X0122904Y0025464D01*
X0121906Y0024466D02*
X0096431Y0024466D01*
X0095433Y0023467D02*
X0120907Y0023467D01*
X0119909Y0022469D02*
X0094434Y0022469D01*
X0093436Y0021470D02*
X0118910Y0021470D01*
X0117912Y0020472D02*
X0092437Y0020472D01*
X0091439Y0019473D02*
X0116913Y0019473D01*
X0115915Y0018475D02*
X0111571Y0018475D01*
X0109806Y0018475D02*
X0101571Y0018475D01*
X0099806Y0018475D02*
X0091571Y0018475D01*
X0093480Y0017476D02*
X0097898Y0017476D01*
X0096984Y0016478D02*
X0094394Y0016478D01*
X0094807Y0015479D02*
X0096570Y0015479D01*
X0096389Y0014481D02*
X0094989Y0014481D01*
X0094989Y0013482D02*
X0096389Y0013482D01*
X0096389Y0012484D02*
X0094989Y0012484D01*
X0094989Y0011485D02*
X0096389Y0011485D01*
X0096389Y0010487D02*
X0094989Y0010487D01*
X0094989Y0009488D02*
X0096389Y0009488D01*
X0096389Y0008490D02*
X0094989Y0008490D01*
X0094989Y0007491D02*
X0096389Y0007491D01*
X0096570Y0006493D02*
X0094807Y0006493D01*
X0094394Y0005494D02*
X0096984Y0005494D01*
X0097898Y0004496D02*
X0093479Y0004496D01*
X0089800Y0003500D02*
X0088253Y0004141D01*
X0087043Y0005350D01*
X0086389Y0006931D01*
X0086389Y0014423D01*
X0084989Y0013023D01*
X0084989Y0006931D01*
X0084334Y0005350D01*
X0083124Y0004141D01*
X0081578Y0003500D01*
X0089800Y0003500D01*
X0087898Y0004496D02*
X0083479Y0004496D01*
X0084394Y0005494D02*
X0086984Y0005494D01*
X0086570Y0006493D02*
X0084807Y0006493D01*
X0084989Y0007491D02*
X0086389Y0007491D01*
X0086389Y0008490D02*
X0084989Y0008490D01*
X0084989Y0009488D02*
X0086389Y0009488D01*
X0086389Y0010487D02*
X0084989Y0010487D01*
X0084989Y0011485D02*
X0086389Y0011485D01*
X0086389Y0012484D02*
X0084989Y0012484D01*
X0085447Y0013482D02*
X0086389Y0013482D01*
X0084916Y0017476D02*
X0083480Y0017476D01*
X0077898Y0017476D02*
X0073480Y0017476D01*
X0074394Y0016478D02*
X0076984Y0016478D01*
X0076570Y0015479D02*
X0074807Y0015479D01*
X0074989Y0014481D02*
X0076389Y0014481D01*
X0076389Y0013482D02*
X0074989Y0013482D01*
X0074989Y0012484D02*
X0076389Y0012484D01*
X0076389Y0011485D02*
X0074989Y0011485D01*
X0074989Y0010487D02*
X0076389Y0010487D01*
X0076389Y0009488D02*
X0074989Y0009488D01*
X0074989Y0008490D02*
X0076389Y0008490D01*
X0076389Y0007491D02*
X0074989Y0007491D01*
X0074807Y0006493D02*
X0076570Y0006493D01*
X0076984Y0005494D02*
X0074394Y0005494D01*
X0073479Y0004496D02*
X0077898Y0004496D01*
X0080689Y0010986D02*
X0107203Y0037500D01*
X0107415Y0035449D02*
X0167187Y0035449D01*
X0183804Y0017476D02*
X0188222Y0017476D01*
X0187308Y0016478D02*
X0184718Y0016478D01*
X0185132Y0015479D02*
X0186894Y0015479D01*
X0186713Y0014481D02*
X0185313Y0014481D01*
X0185313Y0013482D02*
X0186713Y0013482D01*
X0186713Y0012484D02*
X0185313Y0012484D01*
X0185313Y0011485D02*
X0186713Y0011485D01*
X0186713Y0010487D02*
X0185313Y0010487D01*
X0185313Y0009488D02*
X0186713Y0009488D01*
X0186713Y0008490D02*
X0185313Y0008490D01*
X0185313Y0007491D02*
X0186713Y0007491D01*
X0186895Y0006493D02*
X0185131Y0006493D01*
X0184718Y0005494D02*
X0187308Y0005494D01*
X0188222Y0004496D02*
X0183804Y0004496D01*
X0193804Y0004496D02*
X0198222Y0004496D01*
X0197308Y0005494D02*
X0194718Y0005494D01*
X0195131Y0006493D02*
X0196895Y0006493D01*
X0196713Y0007491D02*
X0195313Y0007491D01*
X0195313Y0008490D02*
X0196713Y0008490D01*
X0196713Y0009488D02*
X0195313Y0009488D01*
X0195313Y0010487D02*
X0196713Y0010487D01*
X0196713Y0011485D02*
X0195313Y0011485D01*
X0195313Y0012484D02*
X0196713Y0012484D01*
X0196713Y0013482D02*
X0195313Y0013482D01*
X0195313Y0014481D02*
X0196713Y0014481D01*
X0196894Y0015479D02*
X0195132Y0015479D01*
X0194718Y0016478D02*
X0197308Y0016478D01*
X0198222Y0017476D02*
X0193804Y0017476D01*
X0203804Y0017476D02*
X0208222Y0017476D01*
X0207308Y0016478D02*
X0204718Y0016478D01*
X0205132Y0015479D02*
X0206894Y0015479D01*
X0206713Y0014481D02*
X0205313Y0014481D01*
X0205313Y0013482D02*
X0206713Y0013482D01*
X0206713Y0012484D02*
X0205313Y0012484D01*
X0205313Y0011485D02*
X0206713Y0011485D01*
X0206713Y0010487D02*
X0205313Y0010487D01*
X0205313Y0009488D02*
X0206713Y0009488D01*
X0206713Y0008490D02*
X0205313Y0008490D01*
X0205313Y0007491D02*
X0206713Y0007491D01*
X0206895Y0006493D02*
X0205131Y0006493D01*
X0204718Y0005494D02*
X0207308Y0005494D01*
X0208222Y0004496D02*
X0203804Y0004496D01*
X0213804Y0004496D02*
X0228880Y0004496D01*
X0227882Y0005494D02*
X0214718Y0005494D01*
X0215131Y0006493D02*
X0227357Y0006493D01*
X0227037Y0007491D02*
X0215313Y0007491D01*
X0215313Y0008490D02*
X0227037Y0008490D01*
X0227037Y0009488D02*
X0215313Y0009488D01*
X0215313Y0010487D02*
X0227037Y0010487D01*
X0227037Y0011485D02*
X0215313Y0011485D01*
X0215313Y0012484D02*
X0227037Y0012484D01*
X0227037Y0013482D02*
X0215313Y0013482D01*
X0215313Y0014481D02*
X0227037Y0014481D01*
X0227081Y0015479D02*
X0215132Y0015479D01*
X0214718Y0016478D02*
X0227494Y0016478D01*
X0228213Y0017476D02*
X0213804Y0017476D01*
X0132203Y0032500D02*
X0110689Y0010986D01*
X0100689Y0010986D01*
X0104989Y0009386D02*
X0106389Y0009386D01*
X0106389Y0006931D01*
X0107043Y0005350D01*
X0108253Y0004141D01*
X0109800Y0003500D01*
X0101578Y0003500D01*
X0103124Y0004141D01*
X0104334Y0005350D01*
X0104989Y0006931D01*
X0104989Y0009386D01*
X0104989Y0008490D02*
X0106389Y0008490D01*
X0106389Y0007491D02*
X0104989Y0007491D01*
X0104807Y0006493D02*
X0106570Y0006493D01*
X0106984Y0005494D02*
X0104394Y0005494D01*
X0103479Y0004496D02*
X0107898Y0004496D01*
X0111578Y0003500D02*
X0113124Y0004141D01*
X0114334Y0005350D01*
X0114989Y0006931D01*
X0114989Y0013023D01*
X0116389Y0014423D01*
X0116389Y0006931D01*
X0117043Y0005350D01*
X0118253Y0004141D01*
X0119800Y0003500D01*
X0111578Y0003500D01*
X0113479Y0004496D02*
X0117898Y0004496D01*
X0116984Y0005494D02*
X0114394Y0005494D01*
X0114807Y0006493D02*
X0116570Y0006493D01*
X0116389Y0007491D02*
X0114989Y0007491D01*
X0114989Y0008490D02*
X0116389Y0008490D01*
X0116389Y0009488D02*
X0114989Y0009488D01*
X0114989Y0010487D02*
X0116389Y0010487D01*
X0116389Y0011485D02*
X0114989Y0011485D01*
X0114989Y0012484D02*
X0116389Y0012484D01*
X0116389Y0013482D02*
X0115447Y0013482D01*
X0114916Y0017476D02*
X0113480Y0017476D01*
X0107898Y0017476D02*
X0103480Y0017476D01*
X0104394Y0016478D02*
X0106984Y0016478D01*
X0106570Y0015479D02*
X0104807Y0015479D01*
X0104989Y0014481D02*
X0106389Y0014481D01*
X0106389Y0013482D02*
X0104989Y0013482D01*
X0067898Y0017476D02*
X0063480Y0017476D01*
X0064394Y0016478D02*
X0066984Y0016478D01*
X0066570Y0015479D02*
X0064807Y0015479D01*
X0064989Y0014481D02*
X0066389Y0014481D01*
X0066389Y0013482D02*
X0064989Y0013482D01*
X0064989Y0012484D02*
X0066389Y0012484D01*
X0066389Y0011485D02*
X0064989Y0011485D01*
X0064989Y0010487D02*
X0066389Y0010487D01*
X0066389Y0009488D02*
X0064989Y0009488D01*
X0064989Y0008490D02*
X0066389Y0008490D01*
X0066389Y0007491D02*
X0064989Y0007491D01*
X0064807Y0006493D02*
X0066570Y0006493D01*
X0066984Y0005494D02*
X0064394Y0005494D01*
X0063479Y0004496D02*
X0067898Y0004496D01*
X0057898Y0004496D02*
X0053479Y0004496D01*
X0054394Y0005494D02*
X0056984Y0005494D01*
X0056570Y0006493D02*
X0054807Y0006493D01*
X0054989Y0007491D02*
X0056389Y0007491D01*
X0056389Y0008490D02*
X0054989Y0008490D01*
X0054989Y0009488D02*
X0056389Y0009488D01*
X0056389Y0010487D02*
X0054989Y0010487D01*
X0054989Y0011485D02*
X0056389Y0011485D01*
X0056389Y0012484D02*
X0054989Y0012484D01*
X0054989Y0013482D02*
X0056389Y0013482D01*
X0056389Y0014481D02*
X0054989Y0014481D01*
X0054807Y0015479D02*
X0056570Y0015479D01*
X0056984Y0016478D02*
X0054394Y0016478D01*
X0053480Y0017476D02*
X0057898Y0017476D01*
D11*
X0060689Y0014186D02*
X0060689Y0007786D01*
X0050689Y0007786D02*
X0050689Y0014186D01*
X0070689Y0014186D02*
X0070689Y0007786D01*
X0080689Y0007786D02*
X0080689Y0014186D01*
X0090689Y0014186D02*
X0090689Y0007786D01*
X0100689Y0007786D02*
X0100689Y0014186D01*
X0110689Y0014186D02*
X0110689Y0007786D01*
X0120689Y0007786D02*
X0120689Y0014186D01*
X0141013Y0014186D02*
X0141013Y0007786D01*
X0151013Y0007786D02*
X0151013Y0014186D01*
X0161013Y0014186D02*
X0161013Y0007786D01*
X0171013Y0007786D02*
X0171013Y0014186D01*
X0181013Y0014186D02*
X0181013Y0007786D01*
X0191013Y0007786D02*
X0191013Y0014186D01*
X0201013Y0014186D02*
X0201013Y0007786D01*
X0211013Y0007786D02*
X0211013Y0014186D01*
X0231337Y0014519D02*
X0231337Y0008119D01*
X0241337Y0008119D02*
X0241337Y0014519D01*
X0251337Y0014519D02*
X0251337Y0008119D01*
X0261337Y0008119D02*
X0261337Y0014519D01*
X0271337Y0014519D02*
X0271337Y0008119D01*
X0281337Y0008119D02*
X0281337Y0014519D01*
X0291337Y0014519D02*
X0291337Y0008119D01*
X0301337Y0008119D02*
X0301337Y0014519D01*
X0281006Y0198434D02*
X0281006Y0204834D01*
X0271006Y0204834D02*
X0271006Y0198434D01*
X0261006Y0198434D02*
X0261006Y0204834D01*
X0251006Y0204834D02*
X0251006Y0198434D01*
X0241006Y0198434D02*
X0241006Y0204834D01*
X0231006Y0204834D02*
X0231006Y0198434D01*
X0221006Y0198434D02*
X0221006Y0204834D01*
X0211006Y0204834D02*
X0211006Y0198434D01*
X0191015Y0198767D02*
X0191015Y0205167D01*
X0181015Y0205167D02*
X0181015Y0198767D01*
X0171015Y0198767D02*
X0171015Y0205167D01*
X0161015Y0205167D02*
X0161015Y0198767D01*
X0151015Y0198767D02*
X0151015Y0205167D01*
X0141015Y0205167D02*
X0141015Y0198767D01*
X0131015Y0198767D02*
X0131015Y0205167D01*
X0121015Y0205167D02*
X0121015Y0198767D01*
X0105691Y0198100D02*
X0105691Y0204500D01*
X0095691Y0204500D02*
X0095691Y0198100D01*
X0085691Y0198100D02*
X0085691Y0204500D01*
X0075691Y0204500D02*
X0075691Y0198100D01*
X0065691Y0198100D02*
X0065691Y0204500D01*
X0055691Y0204500D02*
X0055691Y0198100D01*
X0045691Y0198100D02*
X0045691Y0204500D01*
X0035691Y0204500D02*
X0035691Y0198100D01*
X0025691Y0198100D02*
X0025691Y0204500D01*
X0015691Y0204500D02*
X0015691Y0198100D01*
D12*
X0191011Y0121643D03*
X0201011Y0121643D03*
X0201011Y0111643D03*
X0191011Y0111643D03*
X0191011Y0101643D03*
X0201011Y0101643D03*
X0311200Y0101439D03*
X0321200Y0101439D03*
X0321200Y0091439D03*
X0311200Y0091439D03*
X0311200Y0081439D03*
X0321200Y0081439D03*
X0321200Y0071439D03*
X0311200Y0071439D03*
X0311200Y0061439D03*
X0321200Y0061439D03*
X0321200Y0051439D03*
X0311200Y0051439D03*
X0311200Y0041439D03*
X0321200Y0041439D03*
X0321200Y0031439D03*
X0311200Y0031439D03*
X0311200Y0111439D03*
X0321200Y0111439D03*
X0321200Y0121439D03*
X0311200Y0121439D03*
X0311200Y0131439D03*
X0321200Y0131439D03*
X0321200Y0141439D03*
X0311200Y0141439D03*
X0311200Y0151439D03*
X0321200Y0151439D03*
X0321200Y0161439D03*
X0311200Y0161439D03*
X0311200Y0171439D03*
X0321200Y0171439D03*
X0321200Y0181439D03*
X0311200Y0181439D03*
X0311200Y0191439D03*
X0321200Y0191439D03*
X0321200Y0201439D03*
X0311200Y0201439D03*
D13*
X0380012Y0141280D03*
X0380012Y0139311D03*
X0380012Y0137343D03*
X0380012Y0135374D03*
X0380012Y0133406D03*
X0380012Y0131437D03*
X0380012Y0129469D03*
X0380012Y0127500D03*
X0380012Y0125531D03*
X0380012Y0123563D03*
X0380012Y0121594D03*
X0380012Y0119626D03*
X0380012Y0117657D03*
X0380012Y0115689D03*
X0380012Y0113720D03*
X0380012Y0111752D03*
X0380012Y0109783D03*
X0380012Y0107815D03*
X0380012Y0105846D03*
X0380012Y0103878D03*
X0380012Y0101909D03*
X0380012Y0099941D03*
X0380012Y0097972D03*
X0380012Y0096004D03*
X0380012Y0094035D03*
X0380012Y0092067D03*
X0380012Y0090098D03*
X0380012Y0088130D03*
X0380012Y0086161D03*
X0380012Y0084193D03*
X0380012Y0082224D03*
X0380012Y0080256D03*
D14*
X0392807Y0074154D03*
X0392807Y0147382D03*
D15*
X0361340Y0113415D03*
X0361340Y0110915D03*
X0361340Y0108315D03*
X0361340Y0105815D03*
X0361340Y0103215D03*
X0361340Y0100615D03*
X0361340Y0098115D03*
X0361340Y0095515D03*
X0361340Y0093015D03*
X0361340Y0090415D03*
X0361340Y0087815D03*
X0361340Y0085315D03*
X0361340Y0082715D03*
X0361340Y0080215D03*
X0339140Y0080215D03*
X0339140Y0082715D03*
X0339140Y0085315D03*
X0339140Y0087815D03*
X0339140Y0090415D03*
X0339140Y0093015D03*
X0339140Y0095515D03*
X0339140Y0098115D03*
X0339140Y0100615D03*
X0339140Y0103215D03*
X0339140Y0105815D03*
X0339140Y0108315D03*
X0339140Y0110915D03*
X0339140Y0113415D03*
D16*
X0340492Y0157327D03*
X0340524Y0174311D03*
X0340539Y0189965D03*
X0370539Y0189965D03*
X0370524Y0174311D03*
X0370492Y0157327D03*
D17*
X0345500Y0152500D03*
X0338500Y0149500D03*
X0360500Y0133500D03*
X0357000Y0131000D03*
X0368500Y0133000D03*
X0373500Y0131500D03*
X0353500Y0117500D03*
X0340500Y0117500D03*
X0337500Y0126500D03*
X0333500Y0127500D03*
X0297500Y0084500D03*
X0214500Y0081500D03*
X0143500Y0025500D03*
X0353500Y0182500D03*
X0359500Y0192500D03*
M02*
