G75*
%MOIN*%
%OFA0B0*%
%FSLAX25Y25*%
%IPPOS*%
%LPD*%
%AMOC8*
5,1,8,0,0,1.08239X$1,22.5*
%
%ADD10C,0.07200*%
%ADD11OC8,0.07200*%
%ADD12C,0.00500*%
D10*
X0050689Y0007786D02*
X0050689Y0014186D01*
X0060689Y0014186D02*
X0060689Y0007786D01*
X0070689Y0007786D02*
X0070689Y0014186D01*
X0080689Y0014186D02*
X0080689Y0007786D01*
X0090689Y0007786D02*
X0090689Y0014186D01*
X0100689Y0014186D02*
X0100689Y0007786D01*
X0110689Y0007786D02*
X0110689Y0014186D01*
X0120689Y0014186D02*
X0120689Y0007786D01*
X0141013Y0007786D02*
X0141013Y0014186D01*
X0151013Y0014186D02*
X0151013Y0007786D01*
X0161013Y0007786D02*
X0161013Y0014186D01*
X0171013Y0014186D02*
X0171013Y0007786D01*
X0181013Y0007786D02*
X0181013Y0014186D01*
X0191013Y0014186D02*
X0191013Y0007786D01*
X0201013Y0007786D02*
X0201013Y0014186D01*
X0211013Y0014186D02*
X0211013Y0007786D01*
X0231337Y0008119D02*
X0231337Y0014519D01*
X0241337Y0014519D02*
X0241337Y0008119D01*
X0251337Y0008119D02*
X0251337Y0014519D01*
X0261337Y0014519D02*
X0261337Y0008119D01*
X0271337Y0008119D02*
X0271337Y0014519D01*
X0281337Y0014519D02*
X0281337Y0008119D01*
X0291337Y0008119D02*
X0291337Y0014519D01*
X0301337Y0014519D02*
X0301337Y0008119D01*
X0281006Y0198434D02*
X0281006Y0204834D01*
X0271006Y0204834D02*
X0271006Y0198434D01*
X0261006Y0198434D02*
X0261006Y0204834D01*
X0251006Y0204834D02*
X0251006Y0198434D01*
X0241006Y0198434D02*
X0241006Y0204834D01*
X0231006Y0204834D02*
X0231006Y0198434D01*
X0221006Y0198434D02*
X0221006Y0204834D01*
X0211006Y0204834D02*
X0211006Y0198434D01*
X0191015Y0198767D02*
X0191015Y0205167D01*
X0181015Y0205167D02*
X0181015Y0198767D01*
X0171015Y0198767D02*
X0171015Y0205167D01*
X0161015Y0205167D02*
X0161015Y0198767D01*
X0151015Y0198767D02*
X0151015Y0205167D01*
X0141015Y0205167D02*
X0141015Y0198767D01*
X0131015Y0198767D02*
X0131015Y0205167D01*
X0121015Y0205167D02*
X0121015Y0198767D01*
X0105691Y0198100D02*
X0105691Y0204500D01*
X0095691Y0204500D02*
X0095691Y0198100D01*
X0085691Y0198100D02*
X0085691Y0204500D01*
X0075691Y0204500D02*
X0075691Y0198100D01*
X0065691Y0198100D02*
X0065691Y0204500D01*
X0055691Y0204500D02*
X0055691Y0198100D01*
X0045691Y0198100D02*
X0045691Y0204500D01*
X0035691Y0204500D02*
X0035691Y0198100D01*
X0025691Y0198100D02*
X0025691Y0204500D01*
X0015691Y0204500D02*
X0015691Y0198100D01*
D11*
X0191011Y0121643D03*
X0201011Y0121643D03*
X0201011Y0111643D03*
X0191011Y0111643D03*
X0191011Y0101643D03*
X0201011Y0101643D03*
X0311200Y0101439D03*
X0321200Y0101439D03*
X0321200Y0091439D03*
X0311200Y0091439D03*
X0311200Y0081439D03*
X0321200Y0081439D03*
X0321200Y0071439D03*
X0311200Y0071439D03*
X0311200Y0061439D03*
X0321200Y0061439D03*
X0321200Y0051439D03*
X0311200Y0051439D03*
X0311200Y0041439D03*
X0321200Y0041439D03*
X0321200Y0031439D03*
X0311200Y0031439D03*
X0311200Y0111439D03*
X0321200Y0111439D03*
X0321200Y0121439D03*
X0311200Y0121439D03*
X0311200Y0131439D03*
X0321200Y0131439D03*
X0321200Y0141439D03*
X0311200Y0141439D03*
X0311200Y0151439D03*
X0321200Y0151439D03*
X0321200Y0161439D03*
X0311200Y0161439D03*
X0311200Y0171439D03*
X0321200Y0171439D03*
X0321200Y0181439D03*
X0311200Y0181439D03*
X0311200Y0191439D03*
X0321200Y0191439D03*
X0321200Y0201439D03*
X0311200Y0201439D03*
D12*
X0337003Y0191176D02*
X0336839Y0190534D01*
X0336790Y0189875D01*
X0336871Y0189152D01*
X0337091Y0188459D01*
X0337443Y0187822D01*
X0337911Y0187266D01*
X0338480Y0186812D01*
X0339126Y0186478D01*
X0339825Y0186276D01*
X0340549Y0186215D01*
X0341270Y0186278D01*
X0341965Y0186480D01*
X0342606Y0186814D01*
X0343171Y0187267D01*
X0343636Y0187821D01*
X0343983Y0188455D01*
X0344201Y0189145D01*
X0344280Y0189865D01*
X0344231Y0190524D01*
X0344070Y0191166D01*
X0343799Y0191770D01*
X0343427Y0192317D01*
X0342966Y0192792D01*
X0342430Y0193179D01*
X0341834Y0193467D01*
X0341198Y0193648D01*
X0340539Y0193715D01*
X0339881Y0193650D01*
X0339244Y0193471D01*
X0338648Y0193184D01*
X0338111Y0192798D01*
X0337648Y0192325D01*
X0337275Y0191778D01*
X0337003Y0191176D01*
X0336941Y0190934D02*
X0344128Y0190934D01*
X0344238Y0190436D02*
X0336832Y0190436D01*
X0336794Y0189937D02*
X0344274Y0189937D01*
X0344233Y0189439D02*
X0336839Y0189439D01*
X0336938Y0188940D02*
X0344136Y0188940D01*
X0343976Y0188442D02*
X0337101Y0188442D01*
X0337376Y0187943D02*
X0343703Y0187943D01*
X0343320Y0187445D02*
X0337761Y0187445D01*
X0338312Y0186946D02*
X0342771Y0186946D01*
X0341854Y0186448D02*
X0339231Y0186448D01*
X0337119Y0191433D02*
X0343950Y0191433D01*
X0343689Y0191931D02*
X0337380Y0191931D01*
X0337751Y0192430D02*
X0343317Y0192430D01*
X0342777Y0192928D02*
X0338292Y0192928D01*
X0339153Y0193427D02*
X0341917Y0193427D01*
X0366869Y0190564D02*
X0367033Y0191205D01*
X0367305Y0191808D01*
X0367678Y0192355D01*
X0368140Y0192828D01*
X0368678Y0193214D01*
X0369274Y0193501D01*
X0369911Y0193679D01*
X0370569Y0193745D01*
X0371227Y0193678D01*
X0371864Y0193497D01*
X0372460Y0193209D01*
X0372996Y0192822D01*
X0373457Y0192347D01*
X0373829Y0191800D01*
X0374099Y0191196D01*
X0374261Y0190554D01*
X0374309Y0189894D01*
X0374231Y0189175D01*
X0374013Y0188485D01*
X0373665Y0187851D01*
X0373200Y0187297D01*
X0372636Y0186844D01*
X0371994Y0186510D01*
X0371300Y0186307D01*
X0370579Y0186244D01*
X0369854Y0186306D01*
X0369156Y0186508D01*
X0368510Y0186842D01*
X0367941Y0187296D01*
X0367472Y0187852D01*
X0367121Y0188489D01*
X0366901Y0189182D01*
X0366820Y0189905D01*
X0366869Y0190564D01*
X0366860Y0190436D02*
X0374270Y0190436D01*
X0374306Y0189937D02*
X0366822Y0189937D01*
X0366872Y0189439D02*
X0374260Y0189439D01*
X0374157Y0188940D02*
X0366978Y0188940D01*
X0367147Y0188442D02*
X0373990Y0188442D01*
X0373716Y0187943D02*
X0367422Y0187943D01*
X0367816Y0187445D02*
X0373325Y0187445D01*
X0372764Y0186946D02*
X0368379Y0186946D01*
X0369364Y0186448D02*
X0371781Y0186448D01*
X0374165Y0190934D02*
X0366964Y0190934D01*
X0367136Y0191433D02*
X0373993Y0191433D01*
X0373739Y0191931D02*
X0367389Y0191931D01*
X0367752Y0192430D02*
X0373376Y0192430D01*
X0372848Y0192928D02*
X0368280Y0192928D01*
X0369121Y0193427D02*
X0372009Y0193427D01*
X0370554Y0178091D02*
X0371212Y0178024D01*
X0371848Y0177844D01*
X0372444Y0177555D01*
X0372980Y0177168D01*
X0373441Y0176693D01*
X0373813Y0176146D01*
X0374084Y0175542D01*
X0374246Y0174901D01*
X0374294Y0174241D01*
X0374215Y0173522D01*
X0373998Y0172832D01*
X0373650Y0172197D01*
X0373185Y0171643D01*
X0372620Y0171190D01*
X0371979Y0170856D01*
X0371284Y0170654D01*
X0370563Y0170591D01*
X0369839Y0170653D01*
X0369140Y0170854D01*
X0368494Y0171189D01*
X0367926Y0171642D01*
X0367457Y0172198D01*
X0367105Y0172835D01*
X0366885Y0173528D01*
X0366804Y0174251D01*
X0366854Y0174911D01*
X0367017Y0175552D01*
X0367290Y0176155D01*
X0367663Y0176701D01*
X0368125Y0177175D01*
X0368662Y0177560D01*
X0369258Y0177847D01*
X0369895Y0178026D01*
X0370554Y0178091D01*
X0371392Y0177973D02*
X0369707Y0177973D01*
X0368542Y0177474D02*
X0372556Y0177474D01*
X0373167Y0176976D02*
X0367931Y0176976D01*
X0367510Y0176477D02*
X0373588Y0176477D01*
X0373888Y0175979D02*
X0367210Y0175979D01*
X0366999Y0175480D02*
X0374099Y0175480D01*
X0374225Y0174982D02*
X0366872Y0174982D01*
X0366821Y0174483D02*
X0374276Y0174483D01*
X0374266Y0173985D02*
X0366834Y0173985D01*
X0366898Y0173486D02*
X0374204Y0173486D01*
X0374047Y0172988D02*
X0367057Y0172988D01*
X0367296Y0172489D02*
X0373810Y0172489D01*
X0373476Y0171991D02*
X0367632Y0171991D01*
X0368114Y0171492D02*
X0372997Y0171492D01*
X0372243Y0170994D02*
X0368870Y0170994D01*
X0369762Y0161014D02*
X0370482Y0161077D01*
X0371207Y0161015D01*
X0371906Y0160813D01*
X0372552Y0160479D01*
X0373120Y0160025D01*
X0373589Y0159469D01*
X0373940Y0158832D01*
X0374161Y0158139D01*
X0374242Y0157417D01*
X0374192Y0156757D01*
X0374028Y0156116D01*
X0373756Y0155513D01*
X0373383Y0154967D01*
X0372921Y0154493D01*
X0372384Y0154107D01*
X0371787Y0153821D01*
X0371150Y0153642D01*
X0370492Y0153576D01*
X0369834Y0153644D01*
X0369197Y0153824D01*
X0368602Y0154112D01*
X0368065Y0154500D01*
X0367604Y0154974D01*
X0367233Y0155522D01*
X0366962Y0156125D01*
X0366800Y0156767D01*
X0366752Y0157427D01*
X0366831Y0158146D01*
X0367048Y0158836D01*
X0367396Y0159470D01*
X0367861Y0160025D01*
X0368425Y0160477D01*
X0369067Y0160811D01*
X0369762Y0161014D01*
X0369874Y0161024D02*
X0371108Y0161024D01*
X0372463Y0160525D02*
X0368517Y0160525D01*
X0367863Y0160027D02*
X0373118Y0160027D01*
X0373539Y0159528D02*
X0367444Y0159528D01*
X0367154Y0159030D02*
X0373832Y0159030D01*
X0374036Y0158531D02*
X0366952Y0158531D01*
X0366818Y0158033D02*
X0374173Y0158033D01*
X0374229Y0157534D02*
X0366764Y0157534D01*
X0366780Y0157036D02*
X0374213Y0157036D01*
X0374136Y0156537D02*
X0366858Y0156537D01*
X0367001Y0156039D02*
X0373994Y0156039D01*
X0373768Y0155540D02*
X0367225Y0155540D01*
X0367559Y0155041D02*
X0373434Y0155041D01*
X0372970Y0154543D02*
X0368023Y0154543D01*
X0368742Y0154044D02*
X0372253Y0154044D01*
X0344162Y0156727D02*
X0343999Y0156086D01*
X0343726Y0155483D01*
X0343353Y0154937D01*
X0342891Y0154463D01*
X0342354Y0154077D01*
X0341757Y0153791D01*
X0341121Y0153612D01*
X0340462Y0153546D01*
X0339804Y0153614D01*
X0339167Y0153794D01*
X0338572Y0154082D01*
X0338036Y0154470D01*
X0337575Y0154944D01*
X0337203Y0155492D01*
X0336932Y0156095D01*
X0336770Y0156737D01*
X0336722Y0157397D01*
X0336801Y0158116D01*
X0337018Y0158806D01*
X0337366Y0159440D01*
X0337831Y0159995D01*
X0338395Y0160448D01*
X0339037Y0160782D01*
X0339732Y0160984D01*
X0340452Y0161047D01*
X0341177Y0160985D01*
X0341876Y0160783D01*
X0342522Y0160449D01*
X0343090Y0159995D01*
X0343559Y0159439D01*
X0343910Y0158803D01*
X0344131Y0158109D01*
X0344212Y0157387D01*
X0344162Y0156727D01*
X0344114Y0156537D02*
X0336821Y0156537D01*
X0336748Y0157036D02*
X0344185Y0157036D01*
X0344195Y0157534D02*
X0336737Y0157534D01*
X0336792Y0158033D02*
X0344139Y0158033D01*
X0343997Y0158531D02*
X0336931Y0158531D01*
X0337141Y0159030D02*
X0343785Y0159030D01*
X0343484Y0159528D02*
X0337440Y0159528D01*
X0337871Y0160027D02*
X0343051Y0160027D01*
X0342375Y0160525D02*
X0338544Y0160525D01*
X0340186Y0161024D02*
X0340726Y0161024D01*
X0343977Y0156039D02*
X0336958Y0156039D01*
X0337181Y0155540D02*
X0343752Y0155540D01*
X0343425Y0155041D02*
X0337509Y0155041D01*
X0337964Y0154543D02*
X0342969Y0154543D01*
X0342285Y0154044D02*
X0338650Y0154044D01*
X0339809Y0170623D02*
X0339110Y0170824D01*
X0338464Y0171159D01*
X0337896Y0171613D01*
X0337427Y0172169D01*
X0337075Y0172805D01*
X0336855Y0173498D01*
X0336774Y0174221D01*
X0336824Y0174881D01*
X0336987Y0175522D01*
X0337260Y0176125D01*
X0337633Y0176671D01*
X0338095Y0177145D01*
X0338632Y0177530D01*
X0339228Y0177817D01*
X0339865Y0177996D01*
X0340524Y0178061D01*
X0341182Y0177994D01*
X0341818Y0177814D01*
X0342414Y0177525D01*
X0342950Y0177138D01*
X0343411Y0176663D01*
X0343783Y0176116D01*
X0344054Y0175512D01*
X0344216Y0174871D01*
X0344264Y0174211D01*
X0344185Y0173492D01*
X0343968Y0172802D01*
X0343620Y0172167D01*
X0343155Y0171613D01*
X0342591Y0171160D01*
X0341949Y0170826D01*
X0341254Y0170624D01*
X0340533Y0170561D01*
X0339809Y0170623D01*
X0338783Y0170994D02*
X0342271Y0170994D01*
X0343004Y0171492D02*
X0338046Y0171492D01*
X0337577Y0171991D02*
X0343472Y0171991D01*
X0343796Y0172489D02*
X0337250Y0172489D01*
X0337017Y0172988D02*
X0344026Y0172988D01*
X0344183Y0173486D02*
X0336859Y0173486D01*
X0336800Y0173985D02*
X0344239Y0173985D01*
X0344244Y0174483D02*
X0336794Y0174483D01*
X0336850Y0174982D02*
X0344188Y0174982D01*
X0344062Y0175480D02*
X0336977Y0175480D01*
X0337194Y0175979D02*
X0343844Y0175979D01*
X0343538Y0176477D02*
X0337500Y0176477D01*
X0337930Y0176976D02*
X0343108Y0176976D01*
X0342484Y0177474D02*
X0338554Y0177474D01*
X0339784Y0177973D02*
X0341257Y0177973D01*
M02*
