G75*
%MOIN*%
%OFA0B0*%
%FSLAX25Y25*%
%IPPOS*%
%LPD*%
%AMOC8*
5,1,8,0,0,1.08239X$1,22.5*
%
%ADD10C,0.07200*%
%ADD11OC8,0.07200*%
%ADD12R,0.05512X0.01575*%
%ADD13R,0.09252X0.07480*%
%ADD14R,0.06600X0.02200*%
%ADD15C,0.00500*%
D10*
X0050689Y0007786D02*
X0050689Y0014186D01*
X0060689Y0014186D02*
X0060689Y0007786D01*
X0070689Y0007786D02*
X0070689Y0014186D01*
X0080689Y0014186D02*
X0080689Y0007786D01*
X0090689Y0007786D02*
X0090689Y0014186D01*
X0100689Y0014186D02*
X0100689Y0007786D01*
X0110689Y0007786D02*
X0110689Y0014186D01*
X0120689Y0014186D02*
X0120689Y0007786D01*
X0141013Y0007786D02*
X0141013Y0014186D01*
X0151013Y0014186D02*
X0151013Y0007786D01*
X0161013Y0007786D02*
X0161013Y0014186D01*
X0171013Y0014186D02*
X0171013Y0007786D01*
X0181013Y0007786D02*
X0181013Y0014186D01*
X0191013Y0014186D02*
X0191013Y0007786D01*
X0201013Y0007786D02*
X0201013Y0014186D01*
X0211013Y0014186D02*
X0211013Y0007786D01*
X0231337Y0008119D02*
X0231337Y0014519D01*
X0241337Y0014519D02*
X0241337Y0008119D01*
X0251337Y0008119D02*
X0251337Y0014519D01*
X0261337Y0014519D02*
X0261337Y0008119D01*
X0271337Y0008119D02*
X0271337Y0014519D01*
X0281337Y0014519D02*
X0281337Y0008119D01*
X0291337Y0008119D02*
X0291337Y0014519D01*
X0301337Y0014519D02*
X0301337Y0008119D01*
X0281006Y0198434D02*
X0281006Y0204834D01*
X0271006Y0204834D02*
X0271006Y0198434D01*
X0261006Y0198434D02*
X0261006Y0204834D01*
X0251006Y0204834D02*
X0251006Y0198434D01*
X0241006Y0198434D02*
X0241006Y0204834D01*
X0231006Y0204834D02*
X0231006Y0198434D01*
X0221006Y0198434D02*
X0221006Y0204834D01*
X0211006Y0204834D02*
X0211006Y0198434D01*
X0191015Y0198767D02*
X0191015Y0205167D01*
X0181015Y0205167D02*
X0181015Y0198767D01*
X0171015Y0198767D02*
X0171015Y0205167D01*
X0161015Y0205167D02*
X0161015Y0198767D01*
X0151015Y0198767D02*
X0151015Y0205167D01*
X0141015Y0205167D02*
X0141015Y0198767D01*
X0131015Y0198767D02*
X0131015Y0205167D01*
X0121015Y0205167D02*
X0121015Y0198767D01*
X0105691Y0198100D02*
X0105691Y0204500D01*
X0095691Y0204500D02*
X0095691Y0198100D01*
X0085691Y0198100D02*
X0085691Y0204500D01*
X0075691Y0204500D02*
X0075691Y0198100D01*
X0065691Y0198100D02*
X0065691Y0204500D01*
X0055691Y0204500D02*
X0055691Y0198100D01*
X0045691Y0198100D02*
X0045691Y0204500D01*
X0035691Y0204500D02*
X0035691Y0198100D01*
X0025691Y0198100D02*
X0025691Y0204500D01*
X0015691Y0204500D02*
X0015691Y0198100D01*
D11*
X0191011Y0121643D03*
X0201011Y0121643D03*
X0201011Y0111643D03*
X0191011Y0111643D03*
X0191011Y0101643D03*
X0201011Y0101643D03*
X0311200Y0101439D03*
X0321200Y0101439D03*
X0321200Y0091439D03*
X0311200Y0091439D03*
X0311200Y0081439D03*
X0321200Y0081439D03*
X0321200Y0071439D03*
X0311200Y0071439D03*
X0311200Y0061439D03*
X0321200Y0061439D03*
X0321200Y0051439D03*
X0311200Y0051439D03*
X0311200Y0041439D03*
X0321200Y0041439D03*
X0321200Y0031439D03*
X0311200Y0031439D03*
X0311200Y0111439D03*
X0321200Y0111439D03*
X0321200Y0121439D03*
X0311200Y0121439D03*
X0311200Y0131439D03*
X0321200Y0131439D03*
X0321200Y0141439D03*
X0311200Y0141439D03*
X0311200Y0151439D03*
X0321200Y0151439D03*
X0321200Y0161439D03*
X0311200Y0161439D03*
X0311200Y0171439D03*
X0321200Y0171439D03*
X0321200Y0181439D03*
X0311200Y0181439D03*
X0311200Y0191439D03*
X0321200Y0191439D03*
X0321200Y0201439D03*
X0311200Y0201439D03*
D12*
X0380012Y0141280D03*
X0380012Y0139311D03*
X0380012Y0137343D03*
X0380012Y0135374D03*
X0380012Y0133406D03*
X0380012Y0131437D03*
X0380012Y0129469D03*
X0380012Y0127500D03*
X0380012Y0125531D03*
X0380012Y0123563D03*
X0380012Y0121594D03*
X0380012Y0119626D03*
X0380012Y0117657D03*
X0380012Y0115689D03*
X0380012Y0113720D03*
X0380012Y0111752D03*
X0380012Y0109783D03*
X0380012Y0107815D03*
X0380012Y0105846D03*
X0380012Y0103878D03*
X0380012Y0101909D03*
X0380012Y0099941D03*
X0380012Y0097972D03*
X0380012Y0096004D03*
X0380012Y0094035D03*
X0380012Y0092067D03*
X0380012Y0090098D03*
X0380012Y0088130D03*
X0380012Y0086161D03*
X0380012Y0084193D03*
X0380012Y0082224D03*
X0380012Y0080256D03*
D13*
X0392807Y0074154D03*
X0392807Y0147382D03*
D14*
X0361340Y0113415D03*
X0361340Y0110915D03*
X0361340Y0108315D03*
X0361340Y0105815D03*
X0361340Y0103215D03*
X0361340Y0100615D03*
X0361340Y0098115D03*
X0361340Y0095515D03*
X0361340Y0093015D03*
X0361340Y0090415D03*
X0361340Y0087815D03*
X0361340Y0085315D03*
X0361340Y0082715D03*
X0361340Y0080215D03*
X0339140Y0080215D03*
X0339140Y0082715D03*
X0339140Y0085315D03*
X0339140Y0087815D03*
X0339140Y0090415D03*
X0339140Y0093015D03*
X0339140Y0095515D03*
X0339140Y0098115D03*
X0339140Y0100615D03*
X0339140Y0103215D03*
X0339140Y0105815D03*
X0339140Y0108315D03*
X0339140Y0110915D03*
X0339140Y0113415D03*
D15*
X0340462Y0155537D02*
X0340069Y0155588D01*
X0339697Y0155725D01*
X0339365Y0155942D01*
X0339090Y0156227D01*
X0338885Y0156566D01*
X0338760Y0156942D01*
X0338722Y0157337D01*
X0338769Y0157720D01*
X0338900Y0158084D01*
X0339108Y0158409D01*
X0339383Y0158680D01*
X0339712Y0158882D01*
X0340078Y0159007D01*
X0340462Y0159047D01*
X0340844Y0159013D01*
X0341208Y0158895D01*
X0341537Y0158699D01*
X0341814Y0158434D01*
X0342026Y0158115D01*
X0342160Y0157756D01*
X0342212Y0157377D01*
X0342177Y0156976D01*
X0342054Y0156594D01*
X0341849Y0156248D01*
X0341572Y0155957D01*
X0341237Y0155734D01*
X0340860Y0155592D01*
X0340462Y0155537D01*
X0340484Y0155540D02*
X0340439Y0155540D01*
X0339272Y0156039D02*
X0341649Y0156039D01*
X0342020Y0156537D02*
X0338902Y0156537D01*
X0338751Y0157036D02*
X0342182Y0157036D01*
X0342191Y0157534D02*
X0338746Y0157534D01*
X0338881Y0158033D02*
X0342057Y0158033D01*
X0341713Y0158531D02*
X0339232Y0158531D01*
X0340296Y0159030D02*
X0340656Y0159030D01*
X0340524Y0172561D02*
X0340908Y0172601D01*
X0341274Y0172725D01*
X0341602Y0172928D01*
X0341878Y0173199D01*
X0342086Y0173524D01*
X0342217Y0173888D01*
X0342263Y0174271D01*
X0342226Y0174666D01*
X0342101Y0175042D01*
X0341896Y0175381D01*
X0341620Y0175666D01*
X0341288Y0175883D01*
X0340917Y0176020D01*
X0340524Y0176071D01*
X0340125Y0176016D01*
X0339749Y0175874D01*
X0339414Y0175651D01*
X0339137Y0175360D01*
X0338932Y0175014D01*
X0338809Y0174632D01*
X0338774Y0174231D01*
X0338825Y0173852D01*
X0338960Y0173493D01*
X0339172Y0173174D01*
X0339449Y0172909D01*
X0339778Y0172713D01*
X0340142Y0172595D01*
X0340524Y0172561D01*
X0341663Y0172988D02*
X0339366Y0172988D01*
X0338965Y0173486D02*
X0342062Y0173486D01*
X0342229Y0173985D02*
X0338807Y0173985D01*
X0338796Y0174483D02*
X0342243Y0174483D01*
X0342121Y0174982D02*
X0338921Y0174982D01*
X0339252Y0175480D02*
X0341800Y0175480D01*
X0341027Y0175979D02*
X0340028Y0175979D01*
X0340539Y0188215D02*
X0340924Y0188254D01*
X0341289Y0188379D01*
X0341618Y0188582D01*
X0341894Y0188852D01*
X0342102Y0189178D01*
X0342233Y0189541D01*
X0342279Y0189925D01*
X0342241Y0190319D01*
X0342117Y0190696D01*
X0341912Y0191035D01*
X0341636Y0191320D01*
X0341304Y0191536D01*
X0340932Y0191673D01*
X0340539Y0191724D01*
X0340141Y0191669D01*
X0339765Y0191527D01*
X0339430Y0191305D01*
X0339153Y0191014D01*
X0338948Y0190668D01*
X0338824Y0190285D01*
X0338789Y0189885D01*
X0338841Y0189505D01*
X0338976Y0189147D01*
X0339187Y0188827D01*
X0339464Y0188563D01*
X0339793Y0188367D01*
X0340158Y0188249D01*
X0340539Y0188215D01*
X0341391Y0188442D02*
X0339667Y0188442D01*
X0339112Y0188940D02*
X0341950Y0188940D01*
X0342196Y0189439D02*
X0338866Y0189439D01*
X0338794Y0189937D02*
X0342278Y0189937D01*
X0342203Y0190436D02*
X0338873Y0190436D01*
X0339106Y0190934D02*
X0341972Y0190934D01*
X0341463Y0191433D02*
X0339623Y0191433D01*
X0368819Y0189915D02*
X0368854Y0190315D01*
X0368978Y0190698D01*
X0369183Y0191043D01*
X0369460Y0191335D01*
X0369795Y0191557D01*
X0370171Y0191699D01*
X0370569Y0191754D01*
X0370962Y0191703D01*
X0371334Y0191566D01*
X0371666Y0191350D01*
X0371942Y0191065D01*
X0372147Y0190726D01*
X0372271Y0190349D01*
X0372309Y0189955D01*
X0372263Y0189571D01*
X0372132Y0189208D01*
X0371924Y0188882D01*
X0371648Y0188612D01*
X0371319Y0188409D01*
X0370954Y0188284D01*
X0370569Y0188244D01*
X0370188Y0188278D01*
X0369823Y0188396D01*
X0369494Y0188593D01*
X0369217Y0188857D01*
X0369006Y0189177D01*
X0368871Y0189535D01*
X0368819Y0189915D01*
X0368821Y0189937D02*
X0372307Y0189937D01*
X0372243Y0190436D02*
X0368893Y0190436D01*
X0369118Y0190934D02*
X0372020Y0190934D01*
X0371539Y0191433D02*
X0369608Y0191433D01*
X0368907Y0189439D02*
X0372215Y0189439D01*
X0371961Y0188940D02*
X0369162Y0188940D01*
X0369747Y0188442D02*
X0371373Y0188442D01*
X0370554Y0176101D02*
X0370155Y0176046D01*
X0369779Y0175904D01*
X0369444Y0175681D01*
X0369167Y0175390D01*
X0368962Y0175044D01*
X0368839Y0174662D01*
X0368804Y0174261D01*
X0368855Y0173881D01*
X0368990Y0173523D01*
X0369201Y0173203D01*
X0369479Y0172939D01*
X0369808Y0172743D01*
X0370172Y0172625D01*
X0370554Y0172591D01*
X0370938Y0172631D01*
X0371303Y0172755D01*
X0371632Y0172958D01*
X0371908Y0173229D01*
X0372116Y0173554D01*
X0372247Y0173918D01*
X0372293Y0174301D01*
X0372256Y0174696D01*
X0372131Y0175072D01*
X0371926Y0175411D01*
X0371650Y0175696D01*
X0371318Y0175913D01*
X0370947Y0176050D01*
X0370554Y0176101D01*
X0369979Y0175979D02*
X0371138Y0175979D01*
X0371859Y0175480D02*
X0369253Y0175480D01*
X0368942Y0174982D02*
X0372161Y0174982D01*
X0372276Y0174483D02*
X0368823Y0174483D01*
X0368841Y0173985D02*
X0372255Y0173985D01*
X0372073Y0173486D02*
X0369014Y0173486D01*
X0369427Y0172988D02*
X0371663Y0172988D01*
X0370492Y0159077D02*
X0370108Y0159037D01*
X0369742Y0158912D01*
X0369413Y0158710D01*
X0369138Y0158439D01*
X0368930Y0158114D01*
X0368799Y0157750D01*
X0368752Y0157367D01*
X0368790Y0156972D01*
X0368915Y0156596D01*
X0369120Y0156257D01*
X0369395Y0155972D01*
X0369727Y0155755D01*
X0370099Y0155618D01*
X0370492Y0155567D01*
X0370890Y0155622D01*
X0371266Y0155764D01*
X0371601Y0155987D01*
X0371879Y0156278D01*
X0372084Y0156623D01*
X0372207Y0157006D01*
X0372242Y0157407D01*
X0372190Y0157786D01*
X0372055Y0158145D01*
X0371844Y0158464D01*
X0371567Y0158729D01*
X0371238Y0158925D01*
X0370874Y0159043D01*
X0370492Y0159077D01*
X0370087Y0159030D02*
X0370915Y0159030D01*
X0371774Y0158531D02*
X0369232Y0158531D01*
X0368900Y0158033D02*
X0372098Y0158033D01*
X0372225Y0157534D02*
X0368773Y0157534D01*
X0368784Y0157036D02*
X0372210Y0157036D01*
X0372032Y0156537D02*
X0368950Y0156537D01*
X0369331Y0156039D02*
X0371651Y0156039D01*
M02*
