%
M48
M72
T01C0.01200
T02C0.04000
%
T01
X143500Y25500
X214500Y81500
X297500Y84500
X340500Y117500
X353500Y117500
X337500Y126500
X333500Y127500
X357000Y131000
X360500Y133500
X368500Y133000
X373500Y131500
X338500Y149500
X345500Y152500
X353500Y182500
X359500Y192500
T02
X50689Y10986
X60689Y10986
X70689Y10986
X80689Y10986
X90689Y10986
X100689Y10986
X110689Y10986
X120689Y10986
X141013Y10986
X151013Y10986
X161013Y10986
X171013Y10986
X181013Y10986
X191013Y10986
X201013Y10986
X211013Y10986
X231337Y11319
X241337Y11319
X251337Y11319
X261337Y11319
X271337Y11319
X281337Y11319
X291337Y11319
X301337Y11319
X311200Y31439
X321200Y31439
X321200Y41439
X311200Y41439
X311200Y51439
X321200Y51439
X321200Y61439
X311200Y61439
X311200Y71439
X321200Y71439
X321200Y81439
X311200Y81439
X311200Y91439
X321200Y91439
X321200Y101439
X311200Y101439
X311200Y111439
X321200Y111439
X321200Y121439
X311200Y121439
X311200Y131439
X321200Y131439
X321200Y141439
X311200Y141439
X311200Y151439
X321200Y151439
X321200Y161439
X311200Y161439
X311200Y171439
X321200Y171439
X321200Y181439
X311200Y181439
X311200Y191439
X321200Y191439
X321200Y201439
X311200Y201439
X281006Y201634
X271006Y201634
X261006Y201634
X251006Y201634
X241006Y201634
X231006Y201634
X221006Y201634
X211006Y201634
X191015Y201967
X181015Y201967
X171015Y201967
X161015Y201967
X151015Y201967
X141015Y201967
X131015Y201967
X121015Y201967
X105691Y201300
X95691Y201300
X85691Y201300
X75691Y201300
X65691Y201300
X55691Y201300
X45691Y201300
X35691Y201300
X25691Y201300
X15691Y201300
X191011Y121643
X201011Y121643
X201011Y111643
X191011Y111643
X191011Y101643
X201011Y101643
X340492Y157327
X340524Y174311
X340539Y189965
X370539Y189965
X370524Y174311
X370492Y157327
M30
